SplineFontDB: 3.0
FontName: Topmarks-Book
FullName: Topmarks Book
FamilyName: Topmarks
Weight: Book
Copyright: Copyright (c) 2011-12 by vernon adams. All rights reserved.
Version: 
ItalicAngle: 0
UnderlinePosition: 0
UnderlineWidth: 0
Ascent: 800
Descent: 200
sfntRevision: 0x00010000
LayerCount: 2
Layer: 0 1 "Back"  1
Layer: 1 1 "Fore"  0
XUID: [1021 308 1009609422 288102]
FSType: 0
OS2Version: 1
OS2_WeightWidthSlopeOnly: 0
OS2_UseTypoMetrics: 1
CreationTime: 1359146569
ModificationTime: 1359147862
PfmFamily: 17
TTFWeight: 400
TTFWidth: 5
LineGap: 0
VLineGap: 0
Panose: 2 0 5 3 0 0 0 0 0 0
OS2TypoAscent: 800
OS2TypoAOffset: 0
OS2TypoDescent: -200
OS2TypoDOffset: 0
OS2TypoLinegap: 0
OS2WinAscent: 0
OS2WinAOffset: 0
OS2WinDescent: 0
OS2WinDOffset: 0
HheadAscent: 1960
HheadAOffset: 0
HheadDescent: -625
HheadDOffset: 0
OS2SubXSize: 650
OS2SubYSize: 700
OS2SubXOff: 0
OS2SubYOff: 140
OS2SupXSize: 650
OS2SupYSize: 700
OS2SupXOff: 0
OS2SupYOff: 480
OS2StrikeYSize: 49
OS2StrikeYPos: 258
OS2FamilyClass: 2053
OS2Vendor: 'newt'
OS2CodePages: 20000081.00000000
OS2UnicodeRanges: 800000ef.4000204b.00000000.00000000
MarkAttachClasses: 1
DEI: 91125
ShortTable: maxp 16
  1
  0
  334
  95
  7
  66
  4
  2
  0
  1
  1
  0
  64
  0
  3
  1
EndShort
LangName: 1033 "" "" "" "FontForge : Topmarks Book : 25-1-2013" "" "" "" "Topmarks is a trademark of vernon adams." "vernon adams" "vernon adams" "Copyright (c) 2011 by vernon adams. All rights reserved." 
GaspTable: 1 65535 2 0
Encoding: UnicodeBmp
UnicodeInterp: none
NameList: AGL For New Fonts
DisplaySize: -48
AntiAlias: 1
FitToEm: 1
WinInfo: 64 16 4
BeginChars: 65547 334

StartChar: exclam
Encoding: 33 33 4
Width: 737
GlyphClass: 2
Flags: W
LayerCount: 2
UndoRedoHistory
Layer: 1
Undoes
EndUndoes
Redoes
EndRedoes
EndUndoRedoHistory
Fore
SplineSet
431.5 24.5 m 128,-1,1
 397 -6 397 -6 348 -6 c 128,-1,2
 299 -6 299 -6 269 26.5 c 128,-1,3
 239 59 239 59 239 107.5 c 128,-1,4
 239 156 239 156 273.5 186.5 c 128,-1,5
 308 217 308 217 357 217 c 128,-1,6
 406 217 406 217 436 184.5 c 128,-1,7
 466 152 466 152 466 103.5 c 128,-1,0
 466 55 466 55 431.5 24.5 c 128,-1,1
305 373 m 1,8,-1
 254 1456 l 1,9,-1
 441 1456 l 1,10,-1
 391 373 l 1,11,-1
 305 373 l 1,8,-1
EndSplineSet
EndChar

StartChar: quotedbl
Encoding: 34 34 5
Width: 720
GlyphClass: 2
Flags: W
LayerCount: 2
UndoRedoHistory
Layer: 1
Undoes
EndUndoes
Redoes
EndRedoes
EndUndoRedoHistory
Fore
SplineSet
150 989 m 1,0,-1
 114 1451 l 1,1,-1
 281 1451 l 1,2,-1
 281 989 l 1,3,-1
 150 989 l 1,0,-1
439 989 m 1,4,-1
 403 1451 l 1,5,-1
 569 1451 l 1,6,-1
 569 989 l 1,7,-1
 439 989 l 1,4,-1
EndSplineSet
EndChar

StartChar: numbersign
Encoding: 35 35 6
Width: 1242
GlyphClass: 2
Flags: W
LayerCount: 2
UndoRedoHistory
Layer: 1
Undoes
EndUndoes
Redoes
EndRedoes
EndUndoRedoHistory
Fore
SplineSet
210 60 m 1,0,-1
 294 485 l 1,1,-1
 42 485 l 1,2,-1
 53 611 l 1,3,-1
 318 611 l 1,4,5
 322 632 322 632 368 886 c 1,6,-1
 107 886 l 1,7,-1
 120 1010 l 1,8,-1
 390 1010 l 1,9,-1
 469 1420 l 1,10,-1
 615 1420 l 1,11,-1
 538 1010 l 1,12,-1
 799 1010 l 1,13,-1
 875 1420 l 1,14,-1
 1021 1420 l 1,15,-1
 943 1010 l 1,16,-1
 1184 1010 l 1,17,-1
 1170 886 l 1,18,-1
 920 886 l 1,19,-1
 869 611 l 1,20,-1
 1121 611 l 1,21,-1
 1107 485 l 1,22,-1
 847 485 l 1,23,-1
 764 60 l 1,24,-1
 619 60 l 1,25,-1
 699 485 l 1,26,-1
 438 485 l 1,27,-1
 356 60 l 1,28,-1
 210 60 l 1,0,-1
460 611 m 1,29,-1
 724 611 l 1,30,-1
 775 886 l 1,31,-1
 514 886 l 1,32,-1
 460 611 l 1,29,-1
EndSplineSet
EndChar

StartChar: dollar
Encoding: 36 36 7
Width: 1190
GlyphClass: 2
Flags: W
LayerCount: 2
UndoRedoHistory
Layer: 1
Undoes
EndUndoes
Redoes
EndRedoes
EndUndoRedoHistory
Fore
SplineSet
536 -172 m 1,0,-1
 532 -16 l 1,1,2
 342 -12 342 -12 202 89 c 1,3,-1
 251 223 l 1,4,5
 383 134 383 134 531 127 c 1,6,-1
 534 648 l 1,7,8
 378 717 378 717 324 751 c 0,9,10
 216 817 216 817 169 904 c 0,11,12
 137 965 137 965 137 1047 c 0,13,14
 137 1199 137 1199 256 1311.5 c 128,-1,15
 375 1424 375 1424 534 1437 c 1,16,-1
 530 1575 l 1,17,-1
 654 1575 l 1,18,-1
 657 1439 l 1,19,20
 869 1434 869 1434 997 1326 c 1,21,-1
 948 1198 l 1,22,23
 842 1293 842 1293 658 1299 c 1,24,-1
 656 770 l 1,25,26
 770 726 770 726 842.5 689.5 c 128,-1,27
 915 653 915 653 972 604 c 0,28,29
 1080 511 1080 511 1080 361 c 0,30,31
 1080 232 1080 232 1007.5 149 c 0,32,33
 885.565312046 9.40580551524 885.565312046 9.40580551524 656 -11 c 1,34,-1
 659 -172 l 1,35,-1
 536 -172 l 1,0,-1
654 131 m 1,36,37
 821 154 821 154 881 270 c 0,38,39
 901 310 901 310 901 359.5 c 0,40,41
 901 459.27027027 901 459.27027027 824 516.5 c 0,42,43
 766.105882353 559.529411765 766.105882353 559.529411765 671 600 c 0,44,45
 667 601 667 601 664 602.5 c 128,-1,46
 661 604 661 604 658 605 c 1,47,-1
 654 131 l 1,36,37
532 818 m 1,48,-1
 534 1293 l 1,49,50
 441 1281 441 1281 383.5 1219 c 128,-1,51
 326 1157 326 1157 326 1055.72222222 c 128,-1,52
 326 954.444444444 326 954.444444444 389.5 898 c 0,53,54
 421 870 421 870 453.5 852.5 c 128,-1,55
 486 835 486 835 532 818 c 1,48,-1
EndSplineSet
EndChar

StartChar: percent
Encoding: 37 37 8
Width: 1985
GlyphClass: 2
Flags: W
LayerCount: 2
UndoRedoHistory
Layer: 1
Undoes
EndUndoes
Redoes
EndRedoes
EndUndoRedoHistory
Fore
SplineSet
520 686 m 0,0,1
 394 686 394 686 311 748 c 128,-1,2
 228 810 228 810 192 915 c 0,3,4
 168 984 168 984 168 1064 c 0,5,6
 168 1192 168 1192 224.5 1283.5 c 128,-1,7
 281 1375 281 1375 377 1418 c 0,8,9
 441 1447 441 1447 526 1447 c 0,10,11
 693 1447 693 1447 785 1344 c 128,-1,12
 877 1241 877 1241 877 1068 c 0,13,14
 877 940 877 940 820.5 850 c 128,-1,15
 764 760 764 760 668 716 c 0,16,17
 602 686 602 686 520 686 c 0,0,1
1449 -27 m 0,18,19
 1323 -27 1323 -27 1240.5 35 c 128,-1,20
 1158 97 1158 97 1121 202 c 0,21,22
 1097 271 1097 271 1097 351 c 0,23,24
 1097 480 1097 480 1153 570.5 c 128,-1,25
 1209 661 1209 661 1306 705 c 0,26,27
 1372 735 1372 735 1455 735 c 0,28,29
 1622 735 1622 735 1714 632 c 128,-1,30
 1806 529 1806 529 1806 356 c 0,31,32
 1806 228 1806 228 1749.5 137.5 c 128,-1,33
 1693 47 1693 47 1597 3 c 0,34,35
 1531 -27 1531 -27 1449 -27 c 0,18,19
365 873 m 128,-1,37
 418 799 418 799 523 799 c 128,-1,38
 628 799 628 799 681 875.5 c 128,-1,39
 734 952 734 952 734 1069 c 0,40,41
 734 1252 734 1252 618 1314 c 0,42,43
 579 1335 579 1335 525 1335 c 0,44,45
 420 1335 420 1335 366 1259 c 128,-1,46
 312 1183 312 1183 312 1065 c 128,-1,36
 312 947 312 947 365 873 c 128,-1,37
1452 86 m 0,47,48
 1556 86 1556 86 1609 162.5 c 128,-1,49
 1662 239 1662 239 1662 357 c 128,-1,50
 1662 475 1662 475 1610 548.5 c 128,-1,51
 1558 622 1558 622 1453.5 622 c 128,-1,52
 1349 622 1349 622 1295 545 c 128,-1,53
 1241 468 1241 468 1241 350 c 0,54,55
 1241 169 1241 169 1358 107 c 0,56,57
 1397 86 1397 86 1452 86 c 0,47,48
440 -5 m 1,58,-1
 1344 1436 l 1,59,-1
 1499 1436 l 1,60,-1
 594 -5 l 1,61,-1
 440 -5 l 1,58,-1
EndSplineSet
EndChar

StartChar: ampersand
Encoding: 38 38 9
Width: 1647
GlyphClass: 2
Flags: W
LayerCount: 2
UndoRedoHistory
Layer: 1
Undoes
EndUndoes
Redoes
EndRedoes
EndUndoRedoHistory
Fore
SplineSet
1036 1188 m 0,0,1
 1036 986.464285714 1036 986.464285714 729 822 c 1,2,-1
 1144 398 l 1,3,4
 1251 549 1251 549 1285 756 c 0,5,6
 1296 825 1296 825 1296 884 c 1,7,-1
 1463 863 l 1,8,9
 1450 529 1450 529 1260 284 c 1,10,11
 1324 218 1324 218 1378.5 178.5 c 128,-1,12
 1433 139 1433 139 1491 120 c 128,-1,13
 1549 101 1549 101 1618 86 c 1,14,-1
 1486 -12 l 1,15,16
 1430.73684211 -2.78947368421 1430.73684211 -2.78947368421 1402.36842105 10.1052631579 c 128,-1,17
 1374 23 1374 23 1358 29.5 c 128,-1,18
 1342 36 1342 36 1320.5 52 c 128,-1,19
 1299 68 1299 68 1288.5 75 c 0,20,21
 1254 98 1254 98 1166 186 c 1,22,23
 1064 87 1064 87 943.5 30 c 128,-1,24
 823 -27 823 -27 652 -27 c 128,-1,25
 481 -27 481 -27 349.5 37.5 c 128,-1,26
 218 102 218 102 156 220 c 0,27,28
 115 298 115 298 115 402 c 0,29,30
 115 552 115 552 233 672 c 0,31,32
 318 759 318 759 494 852 c 1,33,-1
 451.875 894.125 l 2,34,35
 377.818181818 968.181818182 377.818181818 968.181818182 338.409090909 1034.68465909 c 128,-1,36
 299 1101.1875 299 1101.1875 299 1189.59375 c 128,-1,37
 299 1278 299 1278 349 1345 c 0,38,39
 444.52238806 1473 444.52238806 1473 661 1473 c 0,40,41
 779 1473 779 1473 868.5 1431.5 c 128,-1,42
 958 1390 958 1390 1004 1314 c 0,43,44
 1036 1262 1036 1262 1036 1188 c 0,0,1
658 116 m 0,45,46
 788 116 788 116 880 162 c 128,-1,47
 972 208 972 208 1058 291 c 1,48,49
 1052.27950311 291 1052.27950311 291 944.139751553 400.5 c 128,-1,50
 836 510 836 510 823 523 c 2,51,-1
 594 750 l 1,52,53
 526 715 526 715 484 689.5 c 128,-1,54
 442 664 442 664 393.5 619 c 128,-1,55
 345 574 345 574 320 523 c 128,-1,56
 295 472 295 472 295 406 c 0,57,58
 295 303 295 303 356 236.5 c 128,-1,59
 417 170 417 170 512 138 c 0,60,61
 577 116 577 116 658 116 c 0,45,46
625 918 m 1,62,63
 865 1044.39053254 865 1044.39053254 865 1178 c 0,64,65
 865 1256 865 1256 809.5 1298 c 128,-1,66
 754 1340 754 1340 668 1340 c 128,-1,67
 582 1340 582 1340 527 1298.5 c 128,-1,68
 472 1257 472 1257 472 1178 c 0,69,70
 472 1116 472 1116 496.5 1070 c 0,71,72
 533.382432432 1000.75135135 533.382432432 1000.75135135 625 918 c 1,62,63
EndSplineSet
EndChar

StartChar: quotesingle
Encoding: 39 39 10
Width: 554
GlyphClass: 2
Flags: W
LayerCount: 2
UndoRedoHistory
Layer: 1
Undoes
EndUndoes
Redoes
EndRedoes
EndUndoRedoHistory
Fore
SplineSet
212 989 m 1,0,-1
 176 1451 l 1,1,-1
 342 1451 l 1,2,-1
 342 989 l 1,3,-1
 212 989 l 1,0,-1
EndSplineSet
EndChar

StartChar: parenleft
Encoding: 40 40 11
Width: 626
GlyphClass: 2
Flags: W
LayerCount: 2
UndoRedoHistory
Layer: 1
Undoes
EndUndoes
Redoes
EndRedoes
EndUndoRedoHistory
Fore
SplineSet
574 1551 m 1,0,1
 313.47645951 1130.99246704 313.47645951 1130.99246704 313.47645951 663.513078874 c 128,-1,2
 313.47645951 196.033690704 313.47645951 196.033690704 570 -214 c 1,3,-1
 421 -214 l 1,4,5
 146.492063492 219.380661666 146.492063492 219.380661666 146.492063492 661.380807024 c 128,-1,6
 146.492063492 1103.38095238 146.492063492 1103.38095238 427 1551 c 1,7,-1
 574 1551 l 1,0,1
EndSplineSet
EndChar

StartChar: parenright
Encoding: 41 41 12
Width: 626
GlyphClass: 2
Flags: W
LayerCount: 2
UndoRedoHistory
Layer: 1
Undoes
EndUndoes
Redoes
EndRedoes
EndUndoRedoHistory
Fore
SplineSet
56 -214 m 1,0,1
 312.52354049 196.033690704 312.52354049 196.033690704 312.52354049 663.513078874 c 128,-1,2
 312.52354049 1130.99246704 312.52354049 1130.99246704 52 1551 c 1,3,-1
 199 1551 l 1,4,5
 479.507936508 1103.38095238 479.507936508 1103.38095238 479.507936508 661.380807024 c 128,-1,6
 479.507936508 219.380661666 479.507936508 219.380661666 205 -214 c 1,7,-1
 56 -214 l 1,0,1
EndSplineSet
EndChar

StartChar: asterisk
Encoding: 42 42 13
Width: 1065
GlyphClass: 2
Flags: W
LayerCount: 2
UndoRedoHistory
Layer: 1
Undoes
EndUndoes
Redoes
EndRedoes
EndUndoRedoHistory
Fore
SplineSet
692 737 m 1,0,-1
 534 1003 l 1,1,-1
 381 745 l 1,2,-1
 257 820 l 1,3,-1
 448 1058 l 1,4,-1
 175 1136 l 1,5,-1
 196 1271 l 1,6,-1
 480 1148 l 1,7,8
 473 1198 473 1198 459.5 1299.5 c 128,-1,9
 446 1401 446 1401 439 1451 c 1,10,-1
 581 1451 l 1,11,-1
 581 1153 l 1,12,-1
 816 1274 l 1,13,-1
 880 1149 l 1,14,-1
 617 1061 l 1,15,-1
 818 810 l 1,16,-1
 692 737 l 1,0,-1
EndSplineSet
EndChar

StartChar: plus
Encoding: 43 43 14
Width: 1458
GlyphClass: 2
Flags: W
LayerCount: 2
UndoRedoHistory
Layer: 1
Undoes
EndUndoes
Redoes
EndRedoes
EndUndoRedoHistory
Fore
SplineSet
646 62 m 1,0,-1
 646 485 l 1,1,-1
 198 485 l 1,2,-1
 198 624 l 1,3,-1
 649 624 l 1,4,-1
 649 1047 l 1,5,-1
 797 1047 l 1,6,-1
 797 624 l 1,7,-1
 1246 624 l 1,8,-1
 1246 485 l 1,9,-1
 795 485 l 1,10,-1
 795 62 l 1,11,-1
 646 62 l 1,0,-1
EndSplineSet
EndChar

StartChar: comma
Encoding: 44 44 15
Width: 540
GlyphClass: 2
Flags: W
LayerCount: 2
UndoRedoHistory
Layer: 1
Undoes
EndUndoes
Redoes
EndRedoes
EndUndoRedoHistory
Fore
SplineSet
78 -256 m 1,0,-1
 185 207 l 1,1,-1
 372 207 l 1,2,-1
 209 -256 l 1,3,-1
 78 -256 l 1,0,-1
EndSplineSet
EndChar

StartChar: hyphen
Encoding: 45 45 16
Width: 728
GlyphClass: 2
Flags: W
LayerCount: 2
UndoRedoHistory
Layer: 1
Undoes
EndUndoes
Redoes
EndRedoes
EndUndoRedoHistory
Fore
SplineSet
79 489 m 1,0,-1
 79 626 l 1,1,-1
 651 626 l 1,2,-1
 651 489 l 1,3,-1
 79 489 l 1,0,-1
EndSplineSet
EndChar

StartChar: period
Encoding: 46 46 17
Width: 540
GlyphClass: 2
Flags: W
LayerCount: 2
UndoRedoHistory
Layer: 1
Undoes
EndUndoes
Redoes
EndRedoes
EndUndoRedoHistory
Fore
SplineSet
326.5 29 m 128,-1,1
 294 0 294 0 247.5 0 c 128,-1,2
 201 0 201 0 172.5 30.5 c 128,-1,3
 144 61 144 61 144 107 c 128,-1,4
 144 153 144 153 176.5 182 c 128,-1,5
 209 211 209 211 255.5 211 c 128,-1,6
 302 211 302 211 330.5 180.5 c 128,-1,7
 359 150 359 150 359 104 c 128,-1,0
 359 58 359 58 326.5 29 c 128,-1,1
EndSplineSet
EndChar

StartChar: slash
Encoding: 47 47 18
Width: 717
GlyphClass: 2
Flags: W
LayerCount: 2
UndoRedoHistory
Layer: 1
Undoes
EndUndoes
Redoes
EndRedoes
EndUndoRedoHistory
Fore
SplineSet
-47 -215 m 1,0,-1
 590 1451 l 1,1,-1
 757 1451 l 1,2,-1
 116 -215 l 1,3,-1
 -47 -215 l 1,0,-1
EndSplineSet
EndChar

StartChar: zero
Encoding: 48 48 19
Width: 1219
GlyphClass: 2
Flags: W
LayerCount: 2
UndoRedoHistory
Layer: 1
Undoes
EndUndoes
Redoes
EndRedoes
EndUndoRedoHistory
Fore
SplineSet
615 119 m 0,0,1
 682 119 682 119 740.5 155 c 128,-1,2
 799 191 799 191 834 248.5 c 0,3,4
 931 407.857142857 931 407.857142857 931 729.929118774 c 0,5,6
 931 1115.24242424 931 1115.24242424 795 1243 c 0,7,8
 721.548387097 1312 721.548387097 1312 607 1312 c 0,9,10
 530 1312 530 1312 471 1275 c 128,-1,11
 412 1238 412 1238 377 1179.5 c 0,12,13
 282 1020.71428571 282 1020.71428571 282 710 c 0,14,15
 282 485.275862069 282 485.275862069 318.046088795 364.707909893 c 128,-1,16
 354.09217759 244.139957717 354.09217759 244.139957717 422.816580598 181.569978858 c 128,-1,17
 491.540983607 119 491.540983607 119 615 119 c 0,0,1
805 16.5 m 128,-1,19
 717 -23 717 -23 605.5 -23 c 128,-1,20
 494 -23 494 -23 406 16 c 128,-1,21
 318 55 318 55 262 121.5 c 128,-1,22
 206 188 206 188 169.5 283.5 c 128,-1,23
 133 379 133 379 118.5 483 c 128,-1,24
 104 587 104 587 104 710 c 128,-1,25
 104 833 104 833 119 938.5 c 128,-1,26
 134 1044 134 1044 170.5 1140.5 c 128,-1,27
 207 1237 207 1237 263.5 1305 c 128,-1,28
 320 1373 320 1373 407.5 1413 c 128,-1,29
 495 1453 495 1453 610 1453 c 128,-1,30
 725 1453 725 1453 815 1414 c 128,-1,31
 905 1375 905 1375 961 1309.5 c 128,-1,32
 1017 1244 1017 1244 1052.5 1146.5 c 128,-1,33
 1088 1049 1088 1049 1101.5 944 c 128,-1,34
 1115 839 1115 839 1115 714.5 c 128,-1,35
 1115 590 1115 590 1099 485.5 c 128,-1,36
 1083 381 1083 381 1045 286 c 128,-1,37
 1007 191 1007 191 950 123.5 c 128,-1,18
 893 56 893 56 805 16.5 c 128,-1,19
EndSplineSet
EndChar

StartChar: one
Encoding: 49 49 20
Width: 1190
GlyphClass: 2
Flags: W
LayerCount: 2
UndoRedoHistory
Layer: 1
Undoes
EndUndoes
Redoes
EndRedoes
EndUndoRedoHistory
Fore
SplineSet
552 0 m 1,0,-1
 552 1270 l 1,1,2
 450 1193 450 1193 294 1128 c 1,3,-1
 253 1259 l 1,4,5
 432 1341 432 1341 559 1436 c 1,6,-1
 724 1438 l 1,7,-1
 724 0 l 1,8,-1
 552 0 l 1,0,-1
EndSplineSet
EndChar

StartChar: two
Encoding: 50 50 21
Width: 1248
GlyphClass: 2
Flags: W
LayerCount: 2
UndoRedoHistory
Layer: 1
Undoes
EndUndoes
Redoes
EndRedoes
EndUndoRedoHistory
Fore
SplineSet
99 0 m 1,0,-1
 98 147 l 1,1,2
 137 185 137 185 299.049924357 336.100605144 c 128,-1,3
 461.099848714 487.201210287 461.099848714 487.201210287 623.5 658.5 c 0,4,5
 660 697 660 697 671 708.5 c 128,-1,6
 682 720 682 720 714.5 758 c 128,-1,7
 747 796 747 796 760 816 c 0,8,9
 818.658536585 906.243902439 818.658536585 906.243902439 830 938 c 0,10,11
 857 1013.6 857 1013.6 857 1071 c 0,12,13
 857 1184 857 1184 777 1245.5 c 128,-1,14
 697 1307 697 1307 572 1307 c 128,-1,15
 447 1307 447 1307 361 1244 c 128,-1,16
 275 1181 275 1181 230 1078 c 1,17,-1
 133 1175 l 1,18,19
 180 1302 180 1302 298 1375 c 128,-1,20
 416 1448 416 1448 584 1448 c 0,21,22
 851.870588235 1448 851.870588235 1448 971 1282 c 0,23,24
 1032 1197 1032 1197 1032 1078 c 0,25,26
 1032 988.029411765 1032 988.029411765 990 885.5 c 0,27,28
 962.142703285 817.495422725 962.142703285 817.495422725 884.5 714.5 c 0,29,30
 860 682 860 682 817.5 636 c 128,-1,31
 775 590 775 590 751 566.5 c 128,-1,32
 727 543 727 543 682.5 500 c 128,-1,33
 638 457 638 457 602 421 c 128,-1,34
 566 385 566 385 305 145 c 1,35,-1
 1035 145 l 1,36,-1
 1035 0 l 1,37,-1
 99 0 l 1,0,-1
EndSplineSet
EndChar

StartChar: three
Encoding: 51 51 22
Width: 1190
GlyphClass: 2
Flags: W
LayerCount: 2
UndoRedoHistory
Layer: 1
Undoes
EndUndoes
Redoes
EndRedoes
EndUndoRedoHistory
Fore
SplineSet
519 -23 m 0,0,1
 358 -23 358 -23 246.5 39.5 c 128,-1,2
 135 102 135 102 108 223 c 1,3,-1
 191 324 l 1,4,5
 228 228 228 228 315 173.5 c 128,-1,6
 402 119 402 119 539 119 c 128,-1,7
 676 119 676 119 773.5 190.5 c 128,-1,8
 871 262 871 262 871 394 c 0,9,10
 871 672.403333333 871 672.403333333 491.443455556 672.403333333 c 0,11,12
 476.996666667 672.403333333 476.996666667 672.403333333 462 672 c 2,13,-1
 385 670 l 1,14,-1
 383 813 l 1,15,-1
 446 813 l 2,16,17
 619.084745763 813 619.084745763 813 717 867.5 c 0,18,19
 826 928.169811321 826 928.169811321 826 1085 c 0,20,21
 826 1198 826 1198 749 1252 c 128,-1,22
 672 1306 672 1306 544 1306 c 0,23,24
 324 1306 324 1306 219 1128 c 1,25,-1
 121 1217 l 1,26,27
 166 1326 166 1326 280.5 1387.5 c 128,-1,28
 395 1449 395 1449 550 1449 c 0,29,30
 675 1449 675 1449 777.5 1409.5 c 128,-1,31
 880 1370 880 1370 945 1286 c 128,-1,32
 1010 1202 1010 1202 1010 1086 c 0,33,34
 1010 942.87804878 1010 942.87804878 926.534997131 861.448777689 c 0,35,36
 843.069994263 780.019506598 843.069994263 780.019506598 721 746 c 1,37,38
 868 717 868 717 958.5 629 c 128,-1,39
 1049 541 1049 541 1049 391 c 0,40,41
 1049 291 1049 291 1005.5 210.5 c 128,-1,42
 962 130 962 130 887.5 80 c 0,43,44
 734.03 -23 734.03 -23 519 -23 c 0,0,1
EndSplineSet
EndChar

StartChar: four
Encoding: 52 52 23
Width: 1189
GlyphClass: 2
Flags: W
LayerCount: 2
UndoRedoHistory
Layer: 1
Undoes
EndUndoes
Redoes
EndRedoes
EndUndoRedoHistory
Fore
SplineSet
726 0 m 1,0,-1
 726 351 l 1,1,-1
 25 351 l 1,2,-1
 25 475 l 1,3,-1
 690 1420 l 1,4,-1
 898 1420 l 1,5,-1
 898 483 l 1,6,-1
 1112 483 l 1,7,-1
 1112 351 l 1,8,-1
 898 351 l 1,9,-1
 898 0 l 1,10,-1
 726 0 l 1,0,-1
196 483 m 1,11,-1
 726 483 l 1,12,-1
 726 1292 l 1,13,-1
 638 1146 l 1,14,-1
 196 483 l 1,11,-1
EndSplineSet
EndChar

StartChar: five
Encoding: 53 53 24
Width: 1190
GlyphClass: 2
Flags: W
LayerCount: 2
UndoRedoHistory
Layer: 1
Undoes
EndUndoes
Redoes
EndRedoes
EndUndoRedoHistory
Fore
SplineSet
985 175.5 m 0,0,1
 835.900452489 -23 835.900452489 -23 538 -23 c 0,2,3
 409 -23 409 -23 307.5 29 c 128,-1,4
 206 81 206 81 147 173 c 1,5,-1
 228 289 l 1,6,7
 343 119 343 119 546 119 c 0,8,9
 668 119 668 119 750.5 174 c 128,-1,10
 833 229 833 229 868 324 c 0,11,12
 891 385 891 385 891 452 c 0,13,14
 891 556 891 556 845.5 628 c 128,-1,15
 800 700 800 700 721 734 c 0,16,17
 665 758 665 758 593 758 c 128,-1,18
 521 758 521 758 465.5 731 c 128,-1,19
 410 704 410 704 379 658 c 1,20,-1
 203 652 l 1,21,-1
 203 1425 l 1,22,-1
 994 1425 l 1,23,-1
 994 1280 l 1,24,-1
 366 1280 l 1,25,-1
 352 839 l 1,26,27
 466 905 466 905 599 905 c 0,28,29
 762 905 762 905 874 831 c 128,-1,30
 986 757 986 757 1036 630 c 0,31,32
 1068 549 1068 549 1068 449 c 0,33,34
 1068 286 1068 286 985 175.5 c 0,0,1
EndSplineSet
EndChar

StartChar: six
Encoding: 54 54 25
Width: 1248
GlyphClass: 2
Flags: W
LayerCount: 2
UndoRedoHistory
Layer: 1
Undoes
EndUndoes
Redoes
EndRedoes
EndUndoRedoHistory
Fore
SplineSet
641 -22 m 0,0,1
 538 -22 538 -22 453.5 7.5 c 128,-1,2
 369 37 369 37 312 86.5 c 0,3,4
 124.12 249.658947368 124.12 249.658947368 124.12 588.680335802 c 0,5,6
 124.12 819.995733333 124.12 819.995733333 216.5 1022 c 0,7,8
 254 1104 254 1104 314.5 1180.5 c 128,-1,9
 375 1257 375 1257 453 1316.5 c 128,-1,10
 531 1376 531 1376 638.5 1420.5 c 128,-1,11
 746 1465 746 1465 874 1484 c 1,12,-1
 910 1338 l 1,13,14
 782 1321 782 1321 676 1270 c 128,-1,15
 570 1219 570 1219 496 1143 c 0,16,17
 347.274991697 990.255396878 347.274991697 990.255396878 301 779 c 1,18,19
 346 863 346 863 457 910 c 128,-1,20
 568 957 568 957 665 957 c 0,21,22
 888 957 888 957 1016 817 c 128,-1,23
 1144 677 1144 677 1144 464 c 128,-1,24
 1144 251 1144 251 1001.5 114.5 c 128,-1,25
 859 -22 859 -22 641 -22 c 0,0,1
639 127 m 0,26,27
 798 127 798 127 887.5 216.5 c 128,-1,28
 977 306 977 306 977 461 c 0,29,30
 977 575.416666667 977 575.416666667 933 662.5 c 0,31,32
 882.899600178 761.657041315 882.899600178 761.657041315 777 800 c 0,33,34
 719 821 719 821 645 821 c 0,35,36
 487 820 487 820 390.5 721 c 128,-1,37
 294 622 294 622 294 476.170731707 c 128,-1,38
 294 330.341463415 294 330.341463415 378 232 c 0,39,40
 419 184 419 184 486.5 155.5 c 128,-1,41
 554 127 554 127 639 127 c 0,26,27
EndSplineSet
EndChar

StartChar: seven
Encoding: 55 55 26
Width: 1196
GlyphClass: 2
Flags: W
LayerCount: 2
UndoRedoHistory
Layer: 1
Undoes
EndUndoes
Redoes
EndRedoes
EndUndoRedoHistory
Fore
SplineSet
315 0 m 1,0,-1
 895 1275 l 1,1,-1
 117 1275 l 1,2,-1
 117 1420 l 1,3,-1
 1087 1420 l 1,4,-1
 1087 1329 l 1,5,-1
 501 0 l 1,6,-1
 315 0 l 1,0,-1
EndSplineSet
EndChar

StartChar: eight
Encoding: 56 56 27
Width: 1196
GlyphClass: 2
Flags: W
LayerCount: 2
UndoRedoHistory
Layer: 1
Undoes
EndUndoes
Redoes
EndRedoes
EndUndoRedoHistory
Fore
SplineSet
598 -23 m 0,0,1
 440 -23 440 -23 321.5 36 c 128,-1,2
 203 95 203 95 145 200 c 0,3,4
 104 273 104 273 104 367 c 0,5,6
 104 653 104 653 420 747 c 1,7,8
 139 834 139 834 139 1091 c 0,9,10
 139 1284.14285714 139 1284.14285714 312 1383 c 0,11,12
 361 1411 361 1411 434 1432 c 128,-1,13
 507 1453 507 1453 598 1453 c 0,14,15
 748 1453 748 1453 858 1398 c 128,-1,16
 968 1343 968 1343 1021 1244 c 0,17,18
 1057 1176 1057 1176 1057 1091 c 0,19,20
 1057 834 1057 834 776 747 c 1,21,22
 1092 653 1092 653 1092 367 c 0,23,24
 1092 186 1092 186 943 78 c 0,25,26
 804 -23 804 -23 598 -23 c 0,0,1
598 119 m 0,27,28
 704 119 704 119 780 157.5 c 128,-1,29
 856 196 856 196 891 268 c 0,30,31
 915 316 915 316 915 380 c 0,32,33
 915 608 915 608 598 673 c 1,34,35
 374 628 374 628 305 489 c 0,36,37
 281 441 281 441 281 380 c 0,38,39
 281 251 281 251 368.5 185 c 128,-1,40
 456 119 456 119 598 119 c 0,27,28
598 820 m 1,41,42
 807.743047831 859.95105673 807.743047831 859.95105673 863 978 c 0,43,44
 885 1025 885 1025 885 1086 c 0,45,46
 885 1198 885 1198 803.5 1257.5 c 128,-1,47
 722 1317 722 1317 598 1317 c 0,48,49
 505 1317 505 1317 436 1282.5 c 128,-1,50
 367 1248 367 1248 334 1185 c 0,51,52
 311 1141 311 1141 311 1083 c 0,53,54
 311 964.268292683 311 964.268292683 396 900 c 0,55,56
 469.412731006 844.492813142 469.412731006 844.492813142 598 820 c 1,41,42
EndSplineSet
EndChar

StartChar: nine
Encoding: 57 57 28
Width: 1248
GlyphClass: 2
Flags: W
LayerCount: 2
UndoRedoHistory
Layer: 1
Undoes
EndUndoes
Redoes
EndRedoes
EndUndoRedoHistory
Fore
SplineSet
527 -76 m 1,0,-1
 391 0 l 1,1,-1
 800 575 l 1,2,3
 788 566 788 566 770.5 555.5 c 128,-1,4
 753 545 753 545 704.5 530 c 128,-1,5
 656 515 656 515 607 515 c 0,6,7
 457 515 457 515 344.5 578.5 c 128,-1,8
 232 642 232 642 174.5 750.5 c 128,-1,9
 117 859 117 859 117 995 c 0,10,11
 117 1209 117 1209 259.5 1346 c 128,-1,12
 402 1483 402 1483 620 1483 c 0,13,14
 748 1483 748 1483 849 1442 c 128,-1,15
 950 1401 950 1401 1011 1331 c 0,16,17
 1134 1189.85245902 1134 1189.85245902 1134 993.926229508 c 128,-1,18
 1134 798 1134 798 995 598 c 2,19,-1
 527 -76 l 1,0,-1
627 651 m 0,20,21
 793 651 793 651 880 743.5 c 128,-1,22
 967 836 967 836 967 995.5 c 128,-1,23
 967 1155 967 1155 885 1244.5 c 128,-1,24
 803 1334 803 1334 637.5 1334 c 128,-1,25
 472 1334 472 1334 380.5 1243 c 128,-1,26
 289 1152 289 1152 289 1003.02631579 c 0,27,28
 289 854.052631579 289 854.052631579 362 758 c 0,29,30
 400 708 400 708 467.5 679.5 c 128,-1,31
 535 651 535 651 627 651 c 0,20,21
EndSplineSet
EndChar

StartChar: colon
Encoding: 58 58 29
Width: 540
GlyphClass: 2
Flags: W
LayerCount: 2
UndoRedoHistory
Layer: 1
Undoes
EndUndoes
Redoes
EndRedoes
EndUndoRedoHistory
Fore
SplineSet
159 -11 m 1,0,-1
 159 199 l 1,1,-1
 376 199 l 1,2,-1
 376 -11 l 1,3,-1
 159 -11 l 1,0,-1
159 841 m 1,4,-1
 159 1051 l 1,5,-1
 376 1051 l 1,6,-1
 376 841 l 1,7,-1
 159 841 l 1,4,-1
EndSplineSet
EndChar

StartChar: semicolon
Encoding: 59 59 30
Width: 540
GlyphClass: 2
Flags: W
LayerCount: 2
UndoRedoHistory
Layer: 1
Undoes
EndUndoes
Redoes
EndRedoes
EndUndoRedoHistory
Fore
SplineSet
100 -256 m 1,0,-1
 206 207 l 1,1,-1
 394 207 l 1,2,-1
 231 -256 l 1,3,-1
 100 -256 l 1,0,-1
159 841 m 1,4,-1
 206 1051 l 1,5,-1
 376 1051 l 1,6,-1
 376 841 l 1,7,-1
 159 841 l 1,4,-1
EndSplineSet
EndChar

StartChar: less
Encoding: 60 60 31
Width: 1458
GlyphClass: 2
Flags: W
LayerCount: 2
UndoRedoHistory
Layer: 1
Undoes
EndUndoes
Redoes
EndRedoes
EndUndoRedoHistory
Fore
SplineSet
1223 48 m 1,0,-1
 219 508 l 1,1,-1
 219 595 l 1,2,-1
 1227 1067 l 1,3,-1
 1227 914 l 1,4,-1
 438 552 l 1,5,-1
 1223 200 l 1,6,-1
 1223 48 l 1,0,-1
EndSplineSet
EndChar

StartChar: equal
Encoding: 61 61 32
Width: 1458
GlyphClass: 2
Flags: W
LayerCount: 2
UndoRedoHistory
Layer: 1
Undoes
EndUndoes
Redoes
EndRedoes
EndUndoRedoHistory
Fore
SplineSet
198 283 m 1,0,-1
 198 420 l 1,1,-1
 1247 420 l 1,2,-1
 1247 283 l 1,3,-1
 198 283 l 1,0,-1
197 689 m 1,4,-1
 197 827 l 1,5,-1
 1246 827 l 1,6,-1
 1246 689 l 1,7,-1
 197 689 l 1,4,-1
EndSplineSet
EndChar

StartChar: greater
Encoding: 62 62 33
Width: 1458
GlyphClass: 2
Flags: W
LayerCount: 2
UndoRedoHistory
Layer: 1
Undoes
EndUndoes
Redoes
EndRedoes
EndUndoRedoHistory
Fore
SplineSet
215 58 m 1,0,-1
 215 212 l 1,1,-1
 1004 555 l 1,2,-1
 220 926 l 1,3,-1
 220 1078 l 1,4,-1
 1225 594 l 1,5,-1
 1225 505 l 1,6,-1
 215 58 l 1,0,-1
EndSplineSet
EndChar

StartChar: question
Encoding: 63 63 34
Width: 1032
GlyphClass: 2
Flags: W
LayerCount: 2
UndoRedoHistory
Layer: 1
Undoes
EndUndoes
Redoes
EndRedoes
EndUndoRedoHistory
Fore
SplineSet
356 368 m 1,0,1
 346 464 346 464 346 522.5 c 128,-1,2
 346 581 346 581 367 627.5 c 128,-1,3
 388 674 388 674 422 710.5 c 128,-1,4
 456 747 456 747 532.617760618 812.405405405 c 0,5,6
 609.235521236 877.810810811 609.235521236 877.810810811 654 928.5 c 0,7,8
 730 1014.55882353 730 1014.55882353 730 1125 c 0,9,10
 730 1214 730 1214 670 1266 c 128,-1,11
 610 1318 610 1318 524 1327 c 0,12,13
 494.79245283 1330.05660377 494.79245283 1330.05660377 450.603773585 1330.05660377 c 128,-1,14
 406.41509434 1330.05660377 406.41509434 1330.05660377 329.20754717 1315.52830189 c 128,-1,15
 252 1301 252 1301 183 1262 c 1,16,-1
 183 1413 l 1,17,18
 327 1483 327 1483 464 1483 c 0,19,20
 672 1483 672 1483 785.5 1387 c 128,-1,21
 899 1291 899 1291 899 1133 c 0,22,23
 899 1063 899 1063 875.5 1002.5 c 128,-1,24
 852 942 852 942 814.5 897.5 c 128,-1,25
 777 853 777 853 732 812 c 128,-1,26
 687 771 687 771 642 732 c 128,-1,27
 597 693 597 693 559.5 653 c 128,-1,28
 522 613 522 613 498.5 560 c 128,-1,29
 475 507 475 507 475 460 c 128,-1,30
 475 413 475 413 481 368 c 1,31,-1
 356 368 l 1,0,1
500.5 29 m 128,-1,33
 468 0 468 0 421.5 0 c 128,-1,34
 375 0 375 0 346.5 30.5 c 128,-1,35
 318 61 318 61 318 107 c 128,-1,36
 318 153 318 153 350.5 182 c 128,-1,37
 383 211 383 211 429.5 211 c 128,-1,38
 476 211 476 211 504.5 180.5 c 128,-1,39
 533 150 533 150 533 104 c 128,-1,32
 533 58 533 58 500.5 29 c 128,-1,33
EndSplineSet
EndChar

StartChar: at
Encoding: 64 64 35
Width: 1895
GlyphClass: 2
Flags: W
LayerCount: 2
UndoRedoHistory
Layer: 1
Undoes
EndUndoes
Redoes
EndRedoes
EndUndoRedoHistory
Fore
SplineSet
1313 -47.5 m 128,-1,1
 1159 -109 1159 -109 970.5 -109 c 128,-1,2
 782 -109 782 -109 629 -48 c 128,-1,3
 476 13 476 13 367 115.5 c 128,-1,4
 258 218 258 218 194 360.5 c 128,-1,5
 130 503 130 503 130 679 c 0,6,7
 130 1016 130 1016 374 1246 c 128,-1,8
 618 1476 618 1476 971 1476 c 0,9,10
 1304 1476 1304 1476 1532 1283 c 128,-1,11
 1760 1090 1760 1090 1760 791 c 0,12,13
 1760 560 1760 560 1612 390 c 0,14,15
 1550 319 1550 319 1467 272 c 128,-1,16
 1384 225 1384 225 1288 225 c 0,17,18
 1099 225 1099 225 1071 384 c 1,19,20
 967 257 967 257 814 257 c 0,21,22
 708 257 708 257 635 312.5 c 128,-1,23
 562 368 562 368 525 457 c 0,24,25
 498 523 498 523 498 610 c 0,26,27
 498 813 498 813 646 975.5 c 128,-1,28
 794 1138 794 1138 978 1138 c 0,29,30
 1056 1138 1056 1138 1116.5 1106.5 c 128,-1,31
 1177 1075 1177 1075 1207 1022 c 1,32,-1
 1225 1107 l 1,33,-1
 1371 1107 l 1,34,-1
 1314 857 l 2,35,36
 1307 824 1307 824 1250 584 c 0,37,38
 1226 482 1226 482 1226 437.5 c 128,-1,39
 1226 393 1226 393 1245.5 371.5 c 128,-1,40
 1265 350 1265 350 1309 350 c 0,41,42
 1427 350 1427 350 1517 485 c 128,-1,43
 1607 620 1607 620 1607 796 c 0,44,45
 1607 1042 1607 1042 1428 1199.5 c 128,-1,46
 1249 1357 1249 1357 966 1357 c 0,47,48
 815 1357 815 1357 690.5 1302.5 c 128,-1,49
 566 1248 566 1248 477 1158.5 c 128,-1,50
 388 1069 388 1069 334.5 946.5 c 128,-1,51
 281 824 281 824 281 677 c 0,52,53
 281 389 281 389 472.5 200.5 c 128,-1,54
 664 12 664 12 969.5 12 c 128,-1,55
 1275 12 1275 12 1486 192 c 1,56,-1
 1566 122 l 1,57,0
 1467 14 1467 14 1313 -47.5 c 128,-1,1
831 385 m 0,58,59
 959 385 959 385 1050 519.5 c 128,-1,60
 1141 654 1141 654 1141 821 c 0,61,62
 1141 1007 1141 1007 980 1007 c 0,63,64
 844 1007 844 1007 749.5 870.5 c 128,-1,65
 655 734 655 734 655 582 c 0,66,67
 655 492 655 492 700.5 438.5 c 128,-1,68
 746 385 746 385 831 385 c 0,58,59
EndSplineSet
EndChar

StartChar: A
Encoding: 65 65 36
Width: 1425
GlyphClass: 2
Flags: W
LayerCount: 2
UndoRedoHistory
Layer: 1
Undoes
EndUndoes
Redoes
EndRedoes
EndUndoRedoHistory
Fore
SplineSet
617 1456 m 1,0,-1
 802 1456 l 1,1,-1
 1407 0 l 1,2,-1
 1216 0 l 1,3,-1
 1053 397 l 1,4,-1
 355 397 l 1,5,-1
 199 0 l 1,6,-1
 13 0 l 1,7,-1
 617 1456 l 1,0,-1
760 1150 m 1,8,9
 733 1214 733 1214 707 1298 c 1,10,11
 694 1259 694 1259 655 1149 c 1,12,-1
 410 545 l 1,13,-1
 994 545 l 1,14,-1
 760 1150 l 1,8,9
EndSplineSet
EndChar

StartChar: B
Encoding: 66 66 37
Width: 1297
GlyphClass: 2
Flags: W
LayerCount: 2
UndoRedoHistory
Layer: 1
Undoes
EndUndoes
Redoes
EndRedoes
EndUndoRedoHistory
Fore
SplineSet
174 1456 m 1,0,-1
 585 1456 l 2,1,2
 871 1456 871 1456 1007 1373.5 c 128,-1,3
 1143 1291 1143 1291 1143 1105 c 0,4,5
 1143 967 1143 967 1086.5 888.5 c 128,-1,6
 1030 810 1030 810 908 769 c 1,7,8
 1061 739 1061 739 1136.5 652 c 128,-1,9
 1212 565 1212 565 1212 403 c 0,10,11
 1212 0 1212 0 651 0 c 2,12,-1
 174 0 l 1,13,-1
 174 1456 l 1,0,-1
939 208 m 128,-1,15
 1030 268 1030 268 1030 411 c 128,-1,16
 1030 554 1030 554 930 619 c 128,-1,17
 830 684 830 684 599 684 c 2,18,-1
 346 684 l 1,19,-1
 346 148 l 1,20,-1
 645 148 l 2,21,14
 848 148 848 148 939 208 c 128,-1,15
871 883.5 m 128,-1,23
 962 942 962 942 962 1072 c 128,-1,24
 962 1202 962 1202 875.5 1255 c 128,-1,25
 789 1308 789 1308 585 1308 c 2,26,-1
 346 1308 l 1,27,-1
 346 825 l 1,28,-1
 569 825 l 2,29,22
 780 825 780 825 871 883.5 c 128,-1,23
EndSplineSet
EndChar

StartChar: C
Encoding: 67 67 38
Width: 1391
GlyphClass: 2
Flags: W
LayerCount: 2
UndoRedoHistory
Layer: 1
Undoes
EndUndoes
Redoes
EndRedoes
EndUndoRedoHistory
Fore
SplineSet
112 726 m 0,0,1
 112 946 112 946 198.5 1117.5 c 128,-1,2
 285 1289 285 1289 446 1386 c 128,-1,3
 607 1483 607 1483 818 1483 c 0,4,5
 970 1483 970 1483 1077.5 1443 c 128,-1,6
 1185 1403 1185 1403 1281 1332 c 1,7,-1
 1202 1206 l 1,8,9
 1038 1331 1038 1331 837 1331 c 0,10,11
 664 1331 664 1331 540 1252 c 128,-1,12
 416 1173 416 1173 355.5 1038 c 128,-1,13
 295 903 295 903 295 725 c 0,14,15
 295 460.25 295 460.25 424 299 c 0,16,17
 488 219 488 219 589 174.5 c 128,-1,18
 690 130 690 130 821 130 c 0,19,20
 1081 130 1081 130 1238 267 c 1,21,-1
 1295 127 l 1,22,23
 1110 -22 1110 -22 816 -22 c 0,24,25
 653 -22 653 -22 520 33 c 128,-1,26
 387 88 387 88 298 187 c 128,-1,27
 209 286 209 286 160.5 424 c 128,-1,28
 112 562 112 562 112 726 c 0,0,1
EndSplineSet
EndChar

StartChar: D
Encoding: 68 68 39
Width: 1523
GlyphClass: 2
Flags: W
LayerCount: 2
UndoRedoHistory
Layer: 1
Undoes
EndUndoes
Redoes
EndRedoes
EndUndoRedoHistory
Fore
SplineSet
174 1456 m 1,0,-1
 489 1456 l 2,1,2
 658 1456 658 1456 795.5 1433 c 128,-1,3
 933 1410 933 1410 1049.5 1356.5 c 128,-1,4
 1166 1303 1166 1303 1244.5 1219.5 c 128,-1,5
 1323 1136 1323 1136 1367 1011 c 128,-1,6
 1411 886 1411 886 1411 716 c 128,-1,7
 1411 546 1411 546 1351.5 407.5 c 128,-1,8
 1292 269 1292 269 1183 180.5 c 0,9,10
 960.689265537 -1.42108547152e-14 960.689265537 -1.42108547152e-14 591 0 c 2,11,-1
 174 0 l 1,12,-1
 174 1456 l 1,0,-1
1229 721 m 0,13,14
 1229 1050.5 1229 1050.5 1037 1183.5 c 0,15,16
 941 1250 941 1250 813 1279 c 128,-1,17
 685 1308 685 1308 510 1308 c 2,18,-1
 346 1308 l 1,19,-1
 346 148 l 1,20,-1
 607 148 l 2,21,22
 901 148 901 148 1065 294.5 c 128,-1,23
 1229 441 1229 441 1229 721 c 0,13,14
EndSplineSet
EndChar

StartChar: E
Encoding: 69 69 40
Width: 1187
GlyphClass: 2
Flags: W
LayerCount: 2
UndoRedoHistory
Layer: 1
Undoes
EndUndoes
Redoes
EndRedoes
EndUndoRedoHistory
Fore
SplineSet
174 1456 m 1,0,-1
 1041 1456 l 1,1,-1
 1041 1308 l 1,2,-1
 346 1308 l 1,3,-1
 346 820 l 1,4,-1
 1003 820 l 1,5,-1
 1003 672 l 1,6,-1
 346 672 l 1,7,-1
 346 148 l 1,8,-1
 1091 148 l 1,9,-1
 1091 0 l 1,10,-1
 174 0 l 1,11,-1
 174 1456 l 1,0,-1
EndSplineSet
EndChar

StartChar: F
Encoding: 70 70 41
Width: 1103
GlyphClass: 2
Flags: W
LayerCount: 2
UndoRedoHistory
Layer: 1
Undoes
EndUndoes
Redoes
EndRedoes
EndUndoRedoHistory
Fore
SplineSet
174 1456 m 1,0,-1
 1017 1456 l 1,1,-1
 1017 1308 l 1,2,-1
 346 1308 l 1,3,-1
 346 815 l 1,4,-1
 983 815 l 1,5,-1
 983 667 l 1,6,-1
 346 667 l 1,7,-1
 346 0 l 1,8,-1
 174 0 l 1,9,-1
 174 1456 l 1,0,-1
EndSplineSet
EndChar

StartChar: G
Encoding: 71 71 42
Width: 1512
GlyphClass: 2
Flags: W
LayerCount: 2
UndoRedoHistory
Layer: 1
Undoes
EndUndoes
Redoes
EndRedoes
EndUndoRedoHistory
Fore
SplineSet
112 701 m 0,0,1
 112 933 112 933 200.5 1109 c 128,-1,2
 289 1285 289 1285 458.5 1384 c 128,-1,3
 628 1483 628 1483 856 1483 c 0,4,5
 1013 1483 1013 1483 1124.5 1442.5 c 128,-1,6
 1236 1402 1236 1402 1323 1315 c 1,7,-1
 1251 1198 l 1,8,9
 1112 1331 1112 1331 852 1331 c 0,10,11
 678 1331 678 1331 549 1250.5 c 128,-1,12
 420 1170 420 1170 355 1031.5 c 128,-1,13
 290 893 290 893 290 714 c 0,14,15
 290 435 290 435 436.5 282.5 c 128,-1,16
 583 130 583 130 859 130 c 0,17,18
 1056 130 1056 130 1176 178 c 1,19,-1
 1176 608 l 1,20,-1
 815 608 l 1,21,-1
 815 757 l 1,22,-1
 1348 757 l 1,23,-1
 1348 81 l 1,24,25
 1128 -22 1128 -22 845 -22 c 0,26,27
 496 -22 496 -22 304 166.5 c 128,-1,28
 112 355 112 355 112 701 c 0,0,1
EndSplineSet
EndChar

StartChar: H
Encoding: 72 72 43
Width: 1493
GlyphClass: 2
Flags: W
LayerCount: 2
UndoRedoHistory
Layer: 1
Undoes
EndUndoes
Redoes
EndRedoes
EndUndoRedoHistory
Fore
SplineSet
1319 1456 m 1,0,-1
 1319 0 l 1,1,-1
 1148 0 l 1,2,-1
 1148 674 l 1,3,-1
 346 674 l 1,4,-1
 346 0 l 1,5,-1
 174 0 l 1,6,-1
 174 1456 l 1,7,-1
 346 1456 l 1,8,-1
 346 822 l 1,9,-1
 1148 822 l 1,10,-1
 1148 1456 l 1,11,-1
 1319 1456 l 1,0,-1
EndSplineSet
EndChar

StartChar: I
Encoding: 73 73 44
Width: 544
GlyphClass: 2
Flags: W
LayerCount: 2
UndoRedoHistory
Layer: 1
Undoes
EndUndoes
Redoes
EndRedoes
EndUndoRedoHistory
Fore
SplineSet
186 1456 m 1,0,-1
 358 1456 l 1,1,-1
 358 0 l 1,2,-1
 186 0 l 1,3,-1
 186 1456 l 1,0,-1
EndSplineSet
EndChar

StartChar: J
Encoding: 74 74 45
Width: 1041
GlyphClass: 2
Flags: W
LayerCount: 2
UndoRedoHistory
Layer: 1
Undoes
EndUndoes
Redoes
EndRedoes
EndUndoRedoHistory
Fore
SplineSet
327.65550173 -38.5058823529 m 0,0,1
 583 -38.5058823529 583 -38.5058823529 583 334 c 2,2,-1
 583 1314 l 1,3,-1
 164 1314 l 1,4,-1
 164 1456 l 1,5,-1
 1027 1456 l 1,6,-1
 1027 1314 l 1,7,-1
 755 1314 l 1,8,-1
 755 336 l 2,9,10
 755 187 755 187 715 77 c 128,-1,11
 675 -33 675 -33 606 -93 c 0,12,13
 495.148734177 -189.392405063 495.148734177 -189.392405063 335.787213588 -189.392405063 c 0,14,15
 196.134371957 -189.392405063 196.134371957 -189.392405063 41 -114 c 1,16,-1
 93 22 l 1,17,18
 227.062053057 -38.5058823529 227.062053057 -38.5058823529 327.65550173 -38.5058823529 c 0,0,1
EndSplineSet
EndChar

StartChar: K
Encoding: 75 75 46
Width: 1246
GlyphClass: 2
Flags: W
LayerCount: 2
UndoRedoHistory
Layer: 1
Undoes
EndUndoes
Redoes
EndRedoes
EndUndoRedoHistory
Fore
SplineSet
990 1456 m 1,0,-1
 1202 1456 l 1,1,-1
 531 764 l 1,2,-1
 1242 0 l 1,3,-1
 1024 0 l 1,4,-1
 346 725 l 1,5,-1
 346 0 l 1,6,-1
 174 0 l 1,7,-1
 174 1456 l 1,8,-1
 346 1456 l 1,9,-1
 346 796 l 1,10,-1
 990 1456 l 1,0,-1
EndSplineSet
EndChar

StartChar: L
Encoding: 76 76 47
Width: 1069
GlyphClass: 2
Flags: W
LayerCount: 2
UndoRedoHistory
Layer: 1
Undoes
EndUndoes
Redoes
EndRedoes
EndUndoRedoHistory
Fore
SplineSet
174 1456 m 1,0,-1
 346 1456 l 1,1,-1
 346 148 l 1,2,-1
 1045 148 l 1,3,-1
 1045 0 l 1,4,-1
 174 0 l 1,5,-1
 174 1456 l 1,0,-1
EndSplineSet
EndChar

StartChar: M
Encoding: 77 77 48
Width: 1944
GlyphClass: 2
Flags: W
LayerCount: 2
UndoRedoHistory
Layer: 1
Undoes
EndUndoes
Redoes
EndRedoes
EndUndoRedoHistory
Fore
SplineSet
1536 1456 m 1,0,-1
 1770 1456 l 1,1,-1
 1770 0 l 1,2,-1
 1602 0 l 1,3,-1
 1602 1251 l 1,4,-1
 1534 1096 l 1,5,-1
 1034 110 l 1,6,-1
 908 110 l 1,7,-1
 404 1108 l 1,8,-1
 344 1268 l 1,9,-1
 344 0 l 1,10,-1
 174 0 l 1,11,-1
 174 1456 l 1,12,-1
 412 1456 l 1,13,-1
 887 526 l 1,14,-1
 973 322 l 1,15,-1
 1058 529 l 1,16,-1
 1536 1456 l 1,0,-1
EndSplineSet
EndChar

StartChar: N
Encoding: 78 78 49
Width: 1570
GlyphClass: 2
Flags: W
LayerCount: 2
UndoRedoHistory
Layer: 1
Undoes
EndUndoes
Redoes
EndRedoes
EndUndoRedoHistory
Fore
SplineSet
1225 1456 m 1,0,-1
 1396 1456 l 1,1,-1
 1396 0 l 1,2,-1
 1188 0 l 1,3,-1
 418 1113 l 1,4,-1
 346 1237 l 1,5,-1
 346 0 l 1,6,-1
 174 0 l 1,7,-1
 174 1456 l 1,8,-1
 380 1456 l 1,9,-1
 1147 342 l 1,10,-1
 1225 215 l 1,11,-1
 1225 1456 l 1,0,-1
EndSplineSet
EndChar

StartChar: O
Encoding: 79 79 50
Width: 1660
GlyphClass: 2
Flags: W
LayerCount: 2
UndoRedoHistory
Layer: 1
Undoes
EndUndoes
Redoes
EndRedoes
EndUndoRedoHistory
Fore
SplineSet
112 728 m 128,-1,1
 112 847 112 847 140.5 957.5 c 128,-1,2
 169 1068 169 1068 228.5 1164 c 128,-1,3
 288 1260 288 1260 372 1331 c 128,-1,4
 456 1402 456 1402 574 1442.5 c 128,-1,5
 692 1483 692 1483 830 1483 c 128,-1,6
 968 1483 968 1483 1086 1442.5 c 128,-1,7
 1204 1402 1204 1402 1288 1331 c 128,-1,8
 1372 1260 1372 1260 1431.5 1164 c 128,-1,9
 1491 1068 1491 1068 1519.5 957.5 c 128,-1,10
 1548 847 1548 847 1548 728 c 128,-1,11
 1548 609 1548 609 1519.5 499 c 128,-1,12
 1491 389 1491 389 1431.5 293.5 c 128,-1,13
 1372 198 1372 198 1288 127 c 128,-1,14
 1204 56 1204 56 1086 15.5 c 128,-1,15
 968 -25 968 -25 830 -25 c 128,-1,16
 692 -25 692 -25 574 15.5 c 128,-1,17
 456 56 456 56 372 127 c 128,-1,18
 288 198 288 198 228.5 293.5 c 128,-1,19
 169 389 169 389 140.5 499 c 128,-1,0
 112 609 112 609 112 728 c 128,-1,1
1364 729 m 128,-1,21
 1364 874 1364 874 1320 990.5 c 128,-1,22
 1276 1107 1276 1107 1201 1180 c 128,-1,23
 1126 1253 1126 1253 1031 1292 c 128,-1,24
 936 1331 936 1331 830 1331 c 128,-1,25
 724 1331 724 1331 629 1292 c 128,-1,26
 534 1253 534 1253 459 1180 c 128,-1,27
 384 1107 384 1107 340 990.5 c 128,-1,28
 296 874 296 874 296 729 c 128,-1,29
 296 584 296 584 340 467.5 c 128,-1,30
 384 351 384 351 459 278 c 128,-1,31
 534 205 534 205 629 166 c 128,-1,32
 724 127 724 127 830 127 c 128,-1,33
 936 127 936 127 1031 166 c 128,-1,34
 1126 205 1126 205 1201 278 c 128,-1,35
 1276 351 1276 351 1320 467.5 c 128,-1,20
 1364 584 1364 584 1364 729 c 128,-1,21
EndSplineSet
EndChar

StartChar: P
Encoding: 80 80 51
Width: 1239
GlyphClass: 2
Flags: W
LayerCount: 2
UndoRedoHistory
Layer: 1
Undoes
EndUndoes
Redoes
EndRedoes
EndUndoRedoHistory
Fore
SplineSet
174 1456 m 1,0,-1
 563 1456 l 2,1,2
 883 1456 883 1456 1027 1350.5 c 128,-1,3
 1171 1245 1171 1245 1171 1025.5 c 0,4,5
 1171 587 1171 587 588 587 c 2,6,-1
 346 587 l 1,7,-1
 346 0 l 1,8,-1
 174 0 l 1,9,-1
 174 1456 l 1,0,-1
607 736 m 2,10,11
 987 736 987 736 987 1023 c 0,12,13
 987 1168 987 1168 894.5 1238 c 128,-1,14
 802 1308 802 1308 587 1308 c 2,15,-1
 346 1308 l 1,16,-1
 346 736 l 1,17,-1
 607 736 l 2,10,11
EndSplineSet
EndChar

StartChar: Q
Encoding: 81 81 52
Width: 1648
GlyphClass: 2
Flags: W
LayerCount: 2
UndoRedoHistory
Layer: 1
Undoes
EndUndoes
Redoes
EndRedoes
EndUndoRedoHistory
Fore
SplineSet
112 736 m 0,0,1
 112 1074 112 1074 305.5 1278.5 c 128,-1,2
 499 1483 499 1483 830 1483 c 128,-1,3
 1161 1483 1161 1483 1348.5 1279.5 c 128,-1,4
 1536 1076 1536 1076 1536 736 c 0,5,6
 1536 472 1536 472 1416 286.5 c 128,-1,7
 1296 101 1296 101 1092 20 c 1,8,9
 1174 -149 1174 -149 1341 -304 c 1,10,-1
 1229 -422 l 1,11,12
 1020 -213 1020 -213 927 -13 c 1,13,14
 880 -22 880 -22 822 -22 c 0,15,16
 655 -22 655 -22 520.5 32.5 c 128,-1,17
 386 87 386 87 296.5 186.5 c 128,-1,18
 207 286 207 286 159.5 426 c 128,-1,19
 112 566 112 566 112 736 c 0,0,1
1348 736 m 0,20,21
 1348 1106.85 1348 1106.85 1114 1257 c 0,22,23
 994 1334 994 1334 824 1334 c 128,-1,24
 654 1334 654 1334 532.5 1256 c 128,-1,25
 411 1178 411 1178 351 1044 c 128,-1,26
 291 910 291 910 291 736 c 0,27,28
 291 469.5 291 469.5 427 299.5 c 0,29,30
 493 217 493 217 594.5 170 c 128,-1,31
 696 123 696 123 824.5 123 c 128,-1,32
 953 123 953 123 1054 168.5 c 128,-1,33
 1155 214 1155 214 1219 297 c 0,34,35
 1348 464.296875 1348 464.296875 1348 736 c 0,20,21
EndSplineSet
EndChar

StartChar: R
Encoding: 82 82 53
Width: 1320
GlyphClass: 2
Flags: W
LayerCount: 2
UndoRedoHistory
Layer: 1
Undoes
EndUndoes
Redoes
EndRedoes
EndUndoRedoHistory
Fore
SplineSet
174 1456 m 1,0,-1
 530 1456 l 2,1,2
 791.542857143 1456 791.542857143 1456 917.48802304 1413.20309897 c 128,-1,3
 1043.43318894 1370.40619793 1043.43318894 1370.40619793 1100.5 1296.5 c 0,4,5
 1168 1209.08196721 1168 1209.08196721 1168 1069.04098361 c 128,-1,6
 1168 929 1168 929 1081.5 840 c 128,-1,7
 995 751 995 751 858 715 c 1,8,9
 952.634298881 682.784068466 952.634298881 682.784068466 1003.5 601 c 0,10,11
 1041.89010989 539.274725275 1041.89010989 539.274725275 1088 424 c 0,12,13
 1089 421 1089 421 1089.75 418 c 128,-1,14
 1090.5 415 1090.5 415 1093 410 c 2,15,-1
 1256 0 l 1,16,-1
 1068 0 l 1,17,-1
 915 419 l 2,18,19
 897 468 897 468 882 499.5 c 0,20,21
 843.029246344 581.338582677 843.029246344 581.338582677 790.5 612.5 c 0,22,23
 723.914285714 652 723.914285714 652 616 652 c 2,24,-1
 346 652 l 1,25,-1
 346 0 l 1,26,-1
 174 0 l 1,27,-1
 174 1456 l 1,0,-1
956 934 m 128,-1,29
 986 986 986 986 986 1051.5 c 0,30,31
 986 1173.6984127 986 1173.6984127 917.5 1233.5 c 0,32,33
 832.163636364 1308 832.163636364 1308 623 1308 c 2,34,-1
 346 1308 l 1,35,-1
 346 799 l 1,36,-1
 612 799 l 2,37,38
 768.736842105 799 768.736842105 799 872 853.5 c 0,39,28
 926 882 926 882 956 934 c 128,-1,29
EndSplineSet
EndChar

StartChar: S
Encoding: 83 83 54
Width: 1229
GlyphClass: 2
Flags: W
LayerCount: 2
UndoRedoHistory
Layer: 1
Undoes
EndUndoes
Redoes
EndRedoes
EndUndoRedoHistory
Fore
SplineSet
140.804878049 1093.38072576 m 0,0,1
 140.804878049 1277.60660607 140.804878049 1277.60660607 277.902439024 1380.30330303 c 128,-1,2
 415 1483 415 1483 636 1483 c 0,3,4
 887 1483 887 1483 1085 1359 c 1,5,-1
 1033 1218 l 1,6,7
 947 1271 947 1271 847 1302.5 c 128,-1,8
 747 1334 747 1334 656 1334 c 0,9,10
 333 1334 333 1334 324 1120 c 0,11,12
 323.714285714 1112.14285714 323.714285714 1112.14285714 323.714285714 1085.82142857 c 128,-1,13
 323.714285714 1059.5 323.714285714 1059.5 334.857142857 1023.75 c 128,-1,14
 346 988 346 988 383 950.5 c 128,-1,15
 420 913 420 913 491 881.5 c 128,-1,16
 562 850 562 850 688 813.5 c 128,-1,17
 814 777 814 777 906 732 c 128,-1,18
 998 687 998 687 1047 633.5 c 128,-1,19
 1096 580 1096 580 1115.5 524 c 128,-1,20
 1135 468 1135 468 1135 387.5 c 128,-1,21
 1135 307 1135 307 1106.5 233 c 128,-1,22
 1078 159 1078 159 1022 101 c 128,-1,23
 966 43 966 43 874.5 10.5 c 128,-1,24
 783 -22 783 -22 656.5 -22 c 128,-1,25
 530 -22 530 -22 388 17.5 c 128,-1,26
 246 57 246 57 146 123 c 1,27,-1
 174 289 l 1,28,29
 270 214 270 214 403.5 168.5 c 128,-1,30
 537 123 537 123 649 123 c 0,31,32
 800 123 800 123 875.5 196 c 128,-1,33
 951 269 951 269 951 401 c 0,34,35
 951 443 951 443 939 472 c 128,-1,36
 927 501 927 501 888.5 535 c 0,37,38
 815.086956522 599.832298137 815.086956522 599.832298137 566.13162992 670.682499779 c 0,39,40
 317.176303318 741.532701422 317.176303318 741.532701422 223.5 850 c 0,41,42
 176 905 176 905 158.402439024 963.5 c 128,-1,43
 140.804878049 1022 140.804878049 1022 140.804878049 1093.38072576 c 0,0,1
EndSplineSet
EndChar

StartChar: T
Encoding: 84 84 55
Width: 1161
GlyphClass: 2
Flags: W
LayerCount: 2
UndoRedoHistory
Layer: 1
Undoes
EndUndoes
Redoes
EndRedoes
EndUndoRedoHistory
Fore
SplineSet
24 1456 m 1,0,-1
 1137 1456 l 1,1,-1
 1137 1308 l 1,2,-1
 665 1308 l 1,3,-1
 665 0 l 1,4,-1
 493 0 l 1,5,-1
 493 1308 l 1,6,-1
 24 1308 l 1,7,-1
 24 1456 l 1,0,-1
EndSplineSet
EndChar

StartChar: U
Encoding: 85 85 56
Width: 1473
GlyphClass: 2
Flags: W
LayerCount: 2
UndoRedoHistory
Layer: 1
Undoes
EndUndoes
Redoes
EndRedoes
EndUndoRedoHistory
Fore
SplineSet
1138 1456 m 1,0,-1
 1309 1456 l 1,1,-1
 1309 551 l 1,2,3
 1307 279 1307 279 1162.5 128.5 c 128,-1,4
 1018 -22 1018 -22 749 -22 c 0,5,6
 164 -22 164 -22 164 541 c 2,7,-1
 164 1456 l 1,8,-1
 336 1456 l 1,9,-1
 336 546 l 2,10,11
 336 123 336 123 747 123 c 0,12,13
 935 123 935 123 1036.5 233 c 128,-1,14
 1138 343 1138 343 1138 539 c 2,15,-1
 1138 1456 l 1,0,-1
EndSplineSet
EndChar

StartChar: V
Encoding: 86 86 57
Width: 1336
GlyphClass: 2
Flags: W
LayerCount: 2
UndoRedoHistory
Layer: 1
Undoes
EndUndoes
Redoes
EndRedoes
EndUndoRedoHistory
Fore
SplineSet
1141 1456 m 1,0,-1
 1324 1456 l 1,1,-1
 767 1 l 1,2,-1
 581 1 l 1,3,-1
 13 1456 l 1,4,-1
 201 1456 l 1,5,-1
 626 325 l 1,6,-1
 672 184 l 1,7,-1
 720 324 l 1,8,-1
 1141 1456 l 1,0,-1
EndSplineSet
EndChar

StartChar: W
Encoding: 87 87 58
Width: 2095
GlyphClass: 2
Flags: W
LayerCount: 2
UndoRedoHistory
Layer: 1
Undoes
EndUndoes
Redoes
EndRedoes
EndUndoRedoHistory
Fore
SplineSet
1897 1456 m 1,0,-1
 2077 1456 l 1,1,-1
 1654 0 l 1,2,-1
 1442 0 l 1,3,-1
 1049 1247 l 1,4,-1
 654 1 l 1,5,-1
 441 1 l 1,6,-1
 18 1456 l 1,7,-1
 204 1456 l 1,8,-1
 514 349 l 1,9,-1
 552 189 l 1,10,-1
 602 349 l 1,11,-1
 964 1456 l 1,12,-1
 1145 1456 l 1,13,-1
 1504 345 l 1,14,-1
 1550 190 l 1,15,-1
 1592 349 l 1,16,-1
 1897 1456 l 1,0,-1
EndSplineSet
EndChar

StartChar: X
Encoding: 88 88 59
Width: 1304
GlyphClass: 2
Flags: W
LayerCount: 2
UndoRedoHistory
Layer: 1
Undoes
EndUndoes
Redoes
EndRedoes
EndUndoRedoHistory
Fore
SplineSet
1079 1456 m 1,0,-1
 1275 1456 l 1,1,-1
 764 742 l 1,2,-1
 1285 0 l 1,3,-1
 1084 0 l 1,4,-1
 648 623 l 1,5,-1
 215 0 l 1,6,-1
 11 0 l 1,7,-1
 548 741 l 1,8,-1
 50 1456 l 1,9,-1
 258 1456 l 1,10,-1
 662 854 l 1,11,-1
 1079 1456 l 1,0,-1
EndSplineSet
EndChar

StartChar: Y
Encoding: 89 89 60
Width: 1256
GlyphClass: 2
Flags: W
LayerCount: 2
UndoRedoHistory
Layer: 1
Undoes
EndUndoes
Redoes
EndRedoes
EndUndoRedoHistory
Fore
SplineSet
1061 1456 m 1,0,-1
 1252 1456 l 1,1,-1
 709 585 l 1,2,-1
 709 0 l 1,3,-1
 537 0 l 1,4,-1
 537 582 l 1,5,-1
 4 1456 l 1,6,-1
 195 1456 l 1,7,-1
 626 727 l 1,8,-1
 1061 1456 l 1,0,-1
EndSplineSet
EndChar

StartChar: Z
Encoding: 90 90 61
Width: 1222
GlyphClass: 2
Flags: W
LayerCount: 2
UndoRedoHistory
Layer: 1
Undoes
EndUndoes
Redoes
EndRedoes
EndUndoRedoHistory
Fore
SplineSet
124 1456 m 1,0,-1
 1154 1456 l 1,1,-1
 1154 1368 l 1,2,-1
 320 148 l 1,3,-1
 1146 148 l 1,4,-1
 1146 0 l 1,5,-1
 92 0 l 1,6,-1
 92 92 l 1,7,-1
 922 1308 l 1,8,-1
 124 1308 l 1,9,-1
 124 1456 l 1,0,-1
EndSplineSet
EndChar

StartChar: bracketleft
Encoding: 91 91 62
Width: 628
GlyphClass: 2
Flags: W
LayerCount: 2
UndoRedoHistory
Layer: 1
Undoes
EndUndoes
Redoes
EndRedoes
EndUndoRedoHistory
Fore
SplineSet
191 -259 m 1,0,-1
 191 1451 l 1,1,-1
 547 1451 l 1,2,-1
 547 1329 l 1,3,-1
 354 1329 l 1,4,-1
 354 -137 l 1,5,-1
 548 -137 l 1,6,-1
 548 -259 l 1,7,-1
 191 -259 l 1,0,-1
EndSplineSet
EndChar

StartChar: backslash
Encoding: 92 92 63
Width: 706
GlyphClass: 2
Flags: W
LayerCount: 2
UndoRedoHistory
Layer: 1
Undoes
EndUndoes
Redoes
EndRedoes
EndUndoRedoHistory
Fore
SplineSet
757 -215 m 1,0,-1
 594 -215 l 1,1,-1
 -47 1451 l 1,2,-1
 120 1451 l 1,3,-1
 757 -215 l 1,0,-1
EndSplineSet
EndChar

StartChar: bracketright
Encoding: 93 93 64
Width: 628
GlyphClass: 2
Flags: W
LayerCount: 2
UndoRedoHistory
Layer: 1
Undoes
EndUndoes
Redoes
EndRedoes
EndUndoRedoHistory
Fore
SplineSet
87 -259 m 1,0,-1
 87 -137 l 1,1,-1
 278 -137 l 1,2,-1
 278 1329 l 1,3,-1
 88 1329 l 1,4,-1
 78 1451 l 1,5,-1
 442 1451 l 1,6,-1
 442 -259 l 1,7,-1
 87 -259 l 1,0,-1
EndSplineSet
EndChar

StartChar: asciicircum
Encoding: 94 94 65
Width: 1457
GlyphClass: 2
Flags: W
LayerCount: 2
UndoRedoHistory
Layer: 1
Undoes
EndUndoes
Redoes
EndRedoes
EndUndoRedoHistory
Fore
SplineSet
184 550 m 1,0,-1
 665 1432 l 1,1,-1
 766 1432 l 1,2,-1
 1255 550 l 1,3,-1
 1100 550 l 1,4,-1
 714 1260 l 1,5,-1
 340 550 l 1,6,-1
 184 550 l 1,0,-1
EndSplineSet
EndChar

StartChar: underscore
Encoding: 95 95 66
Width: 998
GlyphClass: 2
Flags: W
LayerCount: 2
UndoRedoHistory
Layer: 1
Undoes
EndUndoes
Redoes
EndRedoes
EndUndoRedoHistory
Fore
SplineSet
-5 -273 m 1,0,-1
 -5 -145 l 1,1,-1
 998 -145 l 1,2,-1
 998 -273 l 1,3,-1
 -5 -273 l 1,0,-1
EndSplineSet
EndChar

StartChar: grave
Encoding: 96 96 67
Width: 593
GlyphClass: 2
Flags: W
LayerCount: 2
UndoRedoHistory
Layer: 1
Undoes
EndUndoes
Redoes
EndRedoes
EndUndoRedoHistory
Fore
SplineSet
333 1172 m 1,0,-1
 1 1492 l 1,1,-1
 215 1492 l 1,2,-1
 462 1172 l 1,3,-1
 333 1172 l 1,0,-1
EndSplineSet
EndChar

StartChar: a
Encoding: 97 97 68
Width: 1205
GlyphClass: 2
Flags: W
LayerCount: 2
UndoRedoHistory
Layer: 1
Undoes
EndUndoes
Redoes
EndRedoes
EndUndoRedoHistory
Fore
SplineSet
90 438 m 0,0,1
 90 713 90 713 248.5 880.5 c 128,-1,2
 407 1048 407 1048 666 1048 c 0,3,4
 767 1048 767 1048 865 1024.5 c 128,-1,5
 963 1001 963 1001 1023 962 c 1,6,-1
 1023 286 l 2,7,8
 1023 220 1023 220 1057.5 179.5 c 128,-1,9
 1092 139 1092 139 1148 139 c 1,10,-1
 1114 -4 l 1,11,12
 1027 -4 1027 -4 963 43 c 128,-1,13
 899 90 899 90 882 166 c 1,14,15
 831 81 831 81 727.5 29.5 c 128,-1,16
 624 -22 624 -22 506 -22 c 0,17,18
 319 -22 319 -22 204.5 104.5 c 128,-1,19
 90 231 90 231 90 438 c 0,0,1
859 872 m 1,20,21
 789 907 789 907 663 907 c 0,22,23
 482 907 482 907 371 780.5 c 128,-1,24
 260 654 260 654 260 448 c 0,25,26
 260 299 260 299 334.5 207.5 c 128,-1,27
 409 116 409 116 531 116 c 0,28,29
 677 116 677 116 768 211.5 c 128,-1,30
 859 307 859 307 859 453 c 2,31,-1
 859 872 l 1,20,21
EndSplineSet
EndChar

StartChar: b
Encoding: 98 98 69
Width: 1210
GlyphClass: 2
Flags: W
LayerCount: 2
UndoRedoHistory
Layer: 1
Undoes
EndUndoes
Redoes
EndRedoes
EndUndoRedoHistory
Fore
SplineSet
152 1495 m 1,0,-1
 317 1525 l 1,1,-1
 317 851 l 1,2,3
 402 948 402 948 502.5 996.5 c 128,-1,4
 603 1045 603 1045 695.5 1045 c 128,-1,5
 788 1045 788 1045 863 1011 c 128,-1,6
 938 977 938 977 995.5 915 c 128,-1,7
 1053 853 1053 853 1086.5 757 c 128,-1,8
 1120 661 1120 661 1120 545 c 0,9,10
 1120 293 1120 293 983 135.5 c 128,-1,11
 846 -22 846 -22 612 -22 c 0,12,13
 437.857142857 -22 437.857142857 -22 245 38 c 0,14,15
 200 52 200 52 176 62 c 2,16,-1
 152 71 l 1,17,-1
 152 1495 l 1,0,-1
950 550 m 0,18,19
 950 722 950 722 876.5 813 c 128,-1,20
 803 904 803 904 686 904 c 0,21,22
 595 904 595 904 498 848 c 128,-1,23
 401 792 401 792 317 686 c 1,24,-1
 317 156 l 1,25,26
 461 116 461 116 615 116 c 0,27,28
 727 116 727 116 804.5 177.5 c 0,29,30
 950 292.961290323 950 292.961290323 950 550 c 0,18,19
EndSplineSet
EndChar

StartChar: c
Encoding: 99 99 70
Width: 1019
GlyphClass: 2
Flags: W
LayerCount: 2
UndoRedoHistory
Layer: 1
Undoes
EndUndoes
Redoes
EndRedoes
EndUndoRedoHistory
Fore
SplineSet
90 503 m 128,-1,1
 90 629 90 629 137 734.5 c 128,-1,2
 184 840 184 840 262 908 c 128,-1,3
 340 976 340 976 437.5 1013 c 128,-1,4
 535 1050 535 1050 640 1050 c 0,5,6
 847 1050 847 1050 983 920 c 1,7,-1
 923 799 l 1,8,9
 812 906 812 906 656 906 c 0,10,11
 553 906 553 906 464.5 861.5 c 128,-1,12
 376 817 376 817 318 724.5 c 128,-1,13
 260 632 260 632 260 508 c 0,14,15
 260 411 260 411 292.5 335 c 128,-1,16
 325 259 325 259 380.5 213 c 0,17,18
 493.913043478 119 493.913043478 119 651 119 c 0,19,20
 734 119 734 119 814.5 150 c 128,-1,21
 895 181 895 181 956 238 c 1,22,-1
 1013 112 l 1,23,24
 846 -23 846 -23 634 -23 c 0,25,26
 527 -23 527 -23 430 11 c 128,-1,27
 333 45 333 45 256.5 109.5 c 128,-1,28
 180 174 180 174 135 275.5 c 128,-1,0
 90 377 90 377 90 503 c 128,-1,1
EndSplineSet
EndChar

StartChar: d
Encoding: 100 100 71
Width: 1226
GlyphClass: 2
Flags: W
LayerCount: 2
UndoRedoHistory
Layer: 1
Undoes
EndUndoes
Redoes
EndRedoes
EndUndoRedoHistory
Fore
SplineSet
906 1506 m 1,0,-1
 1071 1526 l 1,1,-1
 1071 390 l 2,2,3
 1071 236 1071 236 1094 153.5 c 128,-1,4
 1117 71 1117 71 1159 10 c 1,5,-1
 997 -13 l 1,6,7
 967 22 967 22 944.5 75.5 c 128,-1,8
 922 129 922 129 919 177 c 1,9,10
 874 84 874 84 778 31 c 128,-1,11
 682 -22 682 -22 561 -22 c 0,12,13
 349 -22 349 -22 219.5 121.5 c 128,-1,14
 90 265 90 265 90 501 c 0,15,16
 90 658 90 658 142.5 780 c 128,-1,17
 195 902 195 902 303 975 c 128,-1,18
 411 1048 411 1048 561 1048 c 0,19,20
 661 1048 661 1048 742.5 1017.5 c 128,-1,21
 824 987 824 987 906 917 c 1,22,-1
 906 1506 l 1,0,-1
907 744 m 1,23,24
 851 818 851 818 763 862.5 c 128,-1,25
 675 907 675 907 585 907 c 0,26,27
 423 907 423 907 341.5 796.5 c 128,-1,28
 260 686 260 686 260 509.5 c 128,-1,29
 260 333 260 333 349 224.5 c 128,-1,30
 438 116 438 116 579 116 c 0,31,32
 666 116 666 116 730.5 147.5 c 128,-1,33
 795 179 795 179 833 236.5 c 0,34,35
 907 348.473684211 907 348.473684211 907 534 c 2,36,-1
 907 744 l 1,23,24
EndSplineSet
EndChar

StartChar: e
Encoding: 101 101 72
Width: 1070
GlyphClass: 2
Flags: W
LayerCount: 2
UndoRedoHistory
Layer: 1
Undoes
EndUndoes
Redoes
EndRedoes
EndUndoRedoHistory
Fore
SplineSet
90 516 m 0,0,1
 90 622 90 622 125.5 718 c 128,-1,2
 161 814 161 814 226 887.5 c 128,-1,3
 291 961 291 961 390.5 1004.5 c 128,-1,4
 490 1048 490 1048 610 1048 c 0,5,6
 769 1048 769 1048 866.5 963.5 c 128,-1,7
 964 879 964 879 964 751 c 0,8,9
 964 679 964 679 929.5 622.5 c 128,-1,10
 895 566 895 566 838 527 c 128,-1,11
 781 488 781 488 690.5 457.5 c 128,-1,12
 600 427 600 427 506 408 c 128,-1,13
 412 389 412 389 285 371 c 1,14,15
 315 259 315 259 410.5 187.5 c 128,-1,16
 506 116 506 116 612.5 116 c 128,-1,17
 719 116 719 116 807 154 c 128,-1,18
 895 192 895 192 948 252 c 1,19,-1
 1031 146 l 1,20,21
 955 68 955 68 846.5 23 c 128,-1,22
 738 -22 738 -22 619 -22 c 0,23,24
 387 -22 387 -22 238.5 125.5 c 128,-1,25
 90 273 90 273 90 516 c 0,0,1
801 755 m 0,26,27
 801 824 801 824 750.5 865.5 c 128,-1,28
 700 907 700 907 611 907 c 0,29,30
 480.875 907 480.875 907 378.5 816 c 0,31,32
 329 772 329 772 299.5 700 c 128,-1,33
 270 628 270 628 270 539 c 0,34,35
 270 514 270 514 273 490 c 1,36,37
 589.89059501 534.364683301 589.89059501 534.364683301 705 605 c 0,38,39
 801 663.909090909 801 663.909090909 801 755 c 0,26,27
EndSplineSet
EndChar

StartChar: f
Encoding: 102 102 73
Width: 699
GlyphClass: 2
Flags: W
LayerCount: 2
UndoRedoHistory
Layer: 1
Undoes
EndUndoes
Redoes
EndRedoes
EndUndoRedoHistory
Fore
SplineSet
253 1170 m 2,0,1
 253 1360 253 1360 321.5 1446 c 128,-1,2
 390 1532 390 1532 541 1532 c 0,3,4
 623 1532 623 1532 719 1499 c 1,5,-1
 695 1392 l 1,6,7
 625 1409 625 1409 584 1409 c 0,8,9
 496 1409 496 1409 456.5 1357.5 c 128,-1,10
 417 1306 417 1306 417 1193 c 2,11,-1
 417 1026 l 1,12,-1
 665 1026 l 1,13,-1
 665 919 l 1,14,-1
 417 919 l 1,15,-1
 417 -11 l 2,16,17
 417 -206 417 -206 340.5 -316.5 c 128,-1,18
 264 -427 264 -427 91 -449 c 1,19,-1
 70 -328 l 1,20,21
 159 -306 159 -306 206 -230.5 c 128,-1,22
 253 -155 253 -155 253 -34 c 2,23,-1
 253 919 l 1,24,-1
 51 919 l 1,25,-1
 51 1026 l 1,26,-1
 253 1026 l 1,27,-1
 253 1170 l 2,0,1
EndSplineSet
EndChar

StartChar: g
Encoding: 103 103 74
Width: 1143
GlyphClass: 2
Flags: W
LayerCount: 2
UndoRedoHistory
Layer: 1
Undoes
EndUndoes
Redoes
EndRedoes
EndUndoRedoHistory
Fore
SplineSet
90 438 m 0,0,1
 90 713 90 713 248.5 880.5 c 128,-1,2
 407 1048 407 1048 666 1048 c 0,3,4
 767 1048 767 1048 865 1024.5 c 128,-1,5
 963 1001 963 1001 1023 962 c 1,6,-1
 1023 -23 l 2,7,8
 1023 -235 1023 -235 886 -364.5 c 128,-1,9
 749 -494 749 -494 525 -494 c 0,10,11
 356 -494 356 -494 189 -433 c 1,12,-1
 208 -280 l 1,13,14
 277 -314 277 -314 360.5 -335.5 c 128,-1,15
 444 -357 444 -357 511 -357 c 0,16,17
 668 -357 668 -357 763.5 -271 c 128,-1,18
 859 -185 859 -185 859 -44 c 2,19,-1
 859 133 l 1,20,21
 802 62 802 62 707 20 c 128,-1,22
 612 -22 612 -22 506 -22 c 0,23,24
 319 -22 319 -22 204.5 104.5 c 128,-1,25
 90 231 90 231 90 438 c 0,0,1
859 872 m 1,26,27
 789 907 789 907 663 907 c 0,28,29
 482 907 482 907 371 780.5 c 128,-1,30
 260 654 260 654 260 448 c 0,31,32
 260 299 260 299 334.5 207.5 c 128,-1,33
 409 116 409 116 531 116 c 0,34,35
 677 116 677 116 768 211.5 c 128,-1,36
 859 307 859 307 859 453 c 2,37,-1
 859 872 l 1,26,27
EndSplineSet
EndChar

StartChar: h
Encoding: 104 104 75
Width: 1222
GlyphClass: 2
Flags: W
LayerCount: 2
UndoRedoHistory
Layer: 1
Undoes
EndUndoes
Redoes
EndRedoes
EndUndoRedoHistory
Fore
SplineSet
152 1506 m 1,0,-1
 316 1526 l 1,1,-1
 316 875 l 1,2,3
 367 953 367 953 469 1000.5 c 128,-1,4
 571 1048 571 1048 686 1048 c 0,5,6
 863 1048 863 1048 947.522857143 932.831428571 c 128,-1,7
 1032.04571429 817.662857143 1032.04571429 817.662857143 1032.04571429 576.35882449 c 0,8,9
 1032.04571429 570.714285714 1032.04571429 570.714285714 1032 565 c 2,10,-1
 1030 320 l 2,11,12
 1029.88888889 306.333333333 1029.88888889 306.333333333 1029.88888889 250 c 128,-1,13
 1029.88888889 193.666666667 1029.88888889 193.666666667 1037 167 c 0,14,15
 1050.29738562 114.833333333 1050.29738562 114.833333333 1108.5 114.833333333 c 0,16,17
 1125.16666667 114.833333333 1125.16666667 114.833333333 1146 119 c 1,18,-1
 1130 -19 l 1,19,20
 1091.17204301 -24.688172043 1091.17204301 -24.688172043 1058.58272633 -24.688172043 c 0,21,22
 959.397849462 -24.688172043 959.397849462 -24.688172043 918 28 c 0,23,24
 864.929824561 95.5438596491 864.929824561 95.5438596491 864.929824561 271.090181594 c 0,25,26
 864.929824561 277.473684211 864.929824561 277.473684211 865 284 c 2,27,-1
 867 562 l 1,28,29
 867 744 867 744 816.5 825.5 c 128,-1,30
 766 907 766 907 647.362068966 907 c 0,31,32
 528.724137931 907 528.724137931 907 427 818.5 c 0,33,34
 377 775 377 775 346.5 700.5 c 128,-1,35
 316 626 316 626 316 532 c 2,36,-1
 316 0 l 1,37,-1
 152 0 l 1,38,-1
 152 1506 l 1,0,-1
EndSplineSet
EndChar

StartChar: i
Encoding: 105 105 76
Width: 603
GlyphClass: 2
Flags: W
LayerCount: 2
UndoRedoHistory
Layer: 1
Undoes
EndUndoes
Redoes
EndRedoes
EndUndoRedoHistory
Fore
SplineSet
625 26 m 1,0,1
 518.24863388 -17.1803278689 518.24863388 -17.1803278689 423.750335931 -17.1803278689 c 0,2,3
 361.213114754 -17.1803278689 361.213114754 -17.1803278689 302.606557377 4.90983606557 c 128,-1,4
 244 27 244 27 205.5 93.5 c 128,-1,5
 167 160 167 160 167 262 c 2,6,-1
 167 1026 l 1,7,-1
 331 1026 l 1,8,-1
 331 267 l 2,9,10
 331 159.346938776 331 159.346938776 386.945881226 126.236111111 c 0,11,12
 411.891762452 111.472222222 411.891762452 111.472222222 461.584770115 111.472222222 c 128,-1,13
 511.277777778 111.472222222 511.277777778 111.472222222 602 145 c 1,14,-1
 625 26 l 1,0,1
144 1345 m 128,-1,16
 144 1392 144 1392 176 1418 c 128,-1,17
 208 1444 208 1444 252 1444 c 128,-1,18
 296 1444 296 1444 327.5 1417.5 c 128,-1,19
 359 1391 359 1391 359 1344 c 128,-1,20
 359 1297 359 1297 327 1271 c 128,-1,21
 295 1245 295 1245 251 1245 c 128,-1,22
 207 1245 207 1245 175.5 1271.5 c 128,-1,15
 144 1298 144 1298 144 1345 c 128,-1,16
EndSplineSet
EndChar

StartChar: j
Encoding: 106 106 77
Width: 539
GlyphClass: 2
Flags: W
LayerCount: 2
UndoRedoHistory
Layer: 1
Undoes
EndUndoes
Redoes
EndRedoes
EndUndoRedoHistory
Fore
SplineSet
-143 -307 m 1,0,1
 -66.0141206675 -332.219512195 -66.0141206675 -332.219512195 -21.8363286264 -332.219512195 c 128,-1,2
 22.3414634146 -332.219512195 22.3414634146 -332.219512195 63.1707317073 -318.609756098 c 128,-1,3
 104 -305 104 -305 136 -266.5 c 128,-1,4
 168 -228 168 -228 187.5 -153 c 128,-1,5
 207 -78 207 -78 207 29 c 2,6,-1
 207 1026 l 1,7,-1
 371 1026 l 1,8,-1
 371 35 l 2,9,10
 371 -97 371 -97 343 -195 c 0,11,12
 290.371428571 -379.2 290.371428571 -379.2 150 -437 c 0,13,14
 85.4576271186 -463.576271186 85.4576271186 -463.576271186 8.29755178908 -463.576271186 c 0,15,16
 -68.8625235405 -463.576271186 -68.8625235405 -463.576271186 -162 -435 c 1,17,-1
 -143 -307 l 1,0,1
183 1345 m 128,-1,19
 183 1392 183 1392 215 1418 c 128,-1,20
 247 1444 247 1444 291 1444 c 128,-1,21
 335 1444 335 1444 366.5 1417.5 c 128,-1,22
 398 1391 398 1391 398 1344 c 128,-1,23
 398 1297 398 1297 366 1271 c 128,-1,24
 334 1245 334 1245 290 1245 c 128,-1,25
 246 1245 246 1245 214.5 1271.5 c 128,-1,18
 183 1298 183 1298 183 1345 c 128,-1,19
EndSplineSet
EndChar

StartChar: k
Encoding: 107 107 78
Width: 1107
GlyphClass: 2
Flags: W
LayerCount: 2
UndoRedoHistory
Layer: 1
Undoes
EndUndoes
Redoes
EndRedoes
EndUndoRedoHistory
Fore
SplineSet
152 1496 m 1,0,-1
 316 1526 l 1,1,-1
 316 292 l 1,2,-1
 832 1026 l 1,3,-1
 981 976 l 1,4,-1
 694 580 l 1,5,-1
 891 270 l 2,6,7
 1006.36612022 88.9945355191 1006.36612022 88.9945355191 1151.4052674 88.9945355191 c 0,8,9
 1152.20218579 88.9945355191 1152.20218579 88.9945355191 1153 89 c 2,10,-1
 1064 -35 l 1,11,12
 980 -20 980 -20 900 36.5 c 128,-1,13
 820 93 820 93 763 189 c 2,14,-1
 602 458 l 1,15,-1
 297 27 l 1,16,17
 262.642857143 -15.2857142857 262.642857143 -15.2857142857 217.56122449 -15.2857142857 c 0,18,19
 194.857142857 -15.2857142857 194.857142857 -15.2857142857 173.428571429 1.85714285714 c 128,-1,20
 152 19 152 19 152 60 c 2,21,-1
 152 1496 l 1,0,-1
EndSplineSet
EndChar

StartChar: l
Encoding: 108 108 79
Width: 686
GlyphClass: 2
Flags: W
LayerCount: 2
UndoRedoHistory
Layer: 1
Undoes
EndUndoes
Redoes
EndRedoes
EndUndoRedoHistory
Fore
SplineSet
720 35 m 1,0,1
 600.211174242 -16.6736111111 600.211174242 -16.6736111111 484.582561728 -16.6736111111 c 0,2,3
 406.826388889 -16.6736111111 406.826388889 -16.6736111111 335.413194444 10.1631944444 c 128,-1,4
 264 37 264 37 216 112.5 c 128,-1,5
 168 188 168 188 168 300 c 2,6,-1
 168 1496 l 1,7,-1
 332 1526 l 1,8,-1
 332 292 l 2,9,10
 332 217 332 217 363.5 172 c 128,-1,11
 395 127 395 127 448 115.5 c 0,12,13
 477.023809524 109.202380952 477.023809524 109.202380952 508.89654195 109.202380952 c 0,14,15
 593.171182266 109.202380952 593.171182266 109.202380952 695 152 c 1,16,-1
 720 35 l 1,0,1
EndSplineSet
EndChar

StartChar: m
Encoding: 109 109 80
Width: 1964
GlyphClass: 2
Flags: W
LayerCount: 2
UndoRedoHistory
Layer: 1
Undoes
EndUndoes
Redoes
EndRedoes
EndUndoRedoHistory
Fore
SplineSet
84 974 m 1,0,-1
 249 1026 l 1,1,2
 317 922 317 922 328 851 c 1,3,4
 373 939 373 939 480.5 993.5 c 128,-1,5
 588 1048 588 1048 712 1048 c 0,6,7
 958 1048 958 1048 1028 819 c 1,8,-1
 1040 842 l 1,9,10
 1082 933 1082 933 1191.5 990.5 c 128,-1,11
 1301 1048 1301 1048 1428 1048 c 0,12,13
 1605 1048 1605 1048 1689.52285714 932.831428571 c 128,-1,14
 1774.04571429 817.662857143 1774.04571429 817.662857143 1774.04571429 576.35882449 c 0,15,16
 1774.04571429 570.714285714 1774.04571429 570.714285714 1774 565 c 2,17,-1
 1772 320 l 2,18,19
 1771.88888889 306.333333333 1771.88888889 306.333333333 1771.88888889 250 c 128,-1,20
 1771.88888889 193.666666667 1771.88888889 193.666666667 1779 167 c 0,21,22
 1792.29738562 114.833333333 1792.29738562 114.833333333 1850.5 114.833333333 c 0,23,24
 1867.16666667 114.833333333 1867.16666667 114.833333333 1888 119 c 1,25,-1
 1872 -19 l 1,26,27
 1833.17204301 -24.688172043 1833.17204301 -24.688172043 1800.58272633 -24.688172043 c 0,28,29
 1701.39784946 -24.688172043 1701.39784946 -24.688172043 1660 28 c 0,30,31
 1606.92982456 95.5438596491 1606.92982456 95.5438596491 1606.92982456 271.090181594 c 0,32,33
 1606.92982456 277.473684211 1606.92982456 277.473684211 1607 284 c 2,34,-1
 1609 562 l 1,35,36
 1609 744 1609 744 1558.5 825.5 c 128,-1,37
 1508 907 1508 907 1389.36206897 907 c 0,38,39
 1270.72413793 907 1270.72413793 907 1169 818.5 c 0,40,41
 1119 775 1119 775 1088.58094585 700.698247736 c 128,-1,42
 1058.1618917 626.396495471 1058.1618917 626.396495471 1058 533 c 2,43,-1
 1056 0 l 1,44,-1
 891 0 l 1,45,-1
 893 562 l 2,46,47
 893 744 893 744 842.5 825.5 c 128,-1,48
 792 907 792 907 675.85625 907 c 0,49,50
 559.7125 907 559.7125 907 461.5 826 c 0,51,52
 413 786 413 786 380.5 718.5 c 128,-1,53
 348 651 348 651 343 565 c 1,54,-1
 343 0 l 1,55,-1
 179 0 l 1,56,-1
 179 699 l 2,57,58
 179 753 179 753 163 807 c 128,-1,59
 147 861 147 861 131 891.5 c 128,-1,60
 115 922 115 922 84 974 c 1,0,-1
EndSplineSet
EndChar

StartChar: n
Encoding: 110 110 81
Width: 1248
GlyphClass: 2
Flags: W
LayerCount: 2
UndoRedoHistory
Layer: 1
Undoes
EndUndoes
Redoes
EndRedoes
EndUndoRedoHistory
Fore
SplineSet
84 974 m 1,0,-1
 249 1026 l 1,1,2
 317 922 317 922 328 851 c 1,3,4
 373 939 373 939 480.5 993.5 c 128,-1,5
 588 1048 588 1048 712 1048 c 0,6,7
 889 1048 889 1048 973.522857143 932.831428571 c 128,-1,8
 1058.04571429 817.662857143 1058.04571429 817.662857143 1058.04571429 576.35882449 c 0,9,10
 1058.04571429 570.714285714 1058.04571429 570.714285714 1058 565 c 2,11,-1
 1056 320 l 2,12,13
 1055.88888889 306.333333333 1055.88888889 306.333333333 1055.88888889 250 c 128,-1,14
 1055.88888889 193.666666667 1055.88888889 193.666666667 1063 167 c 0,15,16
 1076.29738562 114.833333333 1076.29738562 114.833333333 1134.5 114.833333333 c 0,17,18
 1151.16666667 114.833333333 1151.16666667 114.833333333 1172 119 c 1,19,-1
 1156 -19 l 1,20,21
 1117.17204301 -24.688172043 1117.17204301 -24.688172043 1084.58272633 -24.688172043 c 0,22,23
 985.397849462 -24.688172043 985.397849462 -24.688172043 944 28 c 0,24,25
 890.929824561 95.5438596491 890.929824561 95.5438596491 890.929824561 271.090181594 c 0,26,27
 890.929824561 277.473684211 890.929824561 277.473684211 891 284 c 2,28,-1
 893 562 l 1,29,30
 893 744 893 744 842.5 825.5 c 128,-1,31
 792 907 792 907 675.85625 907 c 0,32,33
 559.7125 907 559.7125 907 461.5 826 c 0,34,35
 413 786 413 786 380.5 718.5 c 128,-1,36
 348 651 348 651 343 565 c 1,37,-1
 343 0 l 1,38,-1
 179 0 l 1,39,-1
 179 699 l 2,40,41
 179 753 179 753 163 807 c 128,-1,42
 147 861 147 861 131 891.5 c 128,-1,43
 115 922 115 922 84 974 c 1,0,-1
EndSplineSet
EndChar

StartChar: o
Encoding: 111 111 82
Width: 1230
GlyphClass: 2
Flags: W
LayerCount: 2
UndoRedoHistory
Layer: 1
Undoes
EndUndoes
Redoes
EndRedoes
EndUndoRedoHistory
Fore
SplineSet
237.5 124.5 m 128,-1,1
 92 271 92 271 92 511.5 c 128,-1,2
 92 752 92 752 237.5 900 c 128,-1,3
 383 1048 383 1048 619.5 1048 c 128,-1,4
 856 1048 856 1048 999 901 c 128,-1,5
 1142 754 1142 754 1142 513 c 128,-1,6
 1142 272 1142 272 999 125 c 128,-1,7
 856 -22 856 -22 619.5 -22 c 128,-1,0
 383 -22 383 -22 237.5 124.5 c 128,-1,1
876 224.5 m 128,-1,9
 972 333 972 333 972 511.5 c 128,-1,10
 972 690 972 690 875.5 798.5 c 128,-1,11
 779 907 779 907 619.5 907 c 128,-1,12
 460 907 460 907 361 797.5 c 128,-1,13
 262 688 262 688 262 510 c 128,-1,14
 262 332 262 332 361 224 c 128,-1,15
 460 116 460 116 620 116 c 128,-1,8
 780 116 780 116 876 224.5 c 128,-1,9
EndSplineSet
EndChar

StartChar: p
Encoding: 112 112 83
Width: 1253
GlyphClass: 2
Flags: W
LayerCount: 2
UndoRedoHistory
Layer: 1
Undoes
EndUndoes
Redoes
EndRedoes
EndUndoRedoHistory
Fore
SplineSet
317 840 m 1,0,1
 371 937 371 937 475.5 992.5 c 128,-1,2
 580 1048 580 1048 704 1048 c 0,3,4
 919 1048 919 1048 1040 910 c 128,-1,5
 1161 772 1161 772 1161 520 c 128,-1,6
 1161 268 1161 268 1037.5 123 c 128,-1,7
 914 -22 914 -22 694 -22 c 0,8,9
 587 -22 587 -22 490 9 c 128,-1,10
 393 40 393 40 337 95 c 1,11,-1
 337 -439 l 1,12,-1
 173 -457 l 1,13,-1
 173 718 l 2,14,15
 173 850 173 850 82 948 c 1,16,-1
 221 1026 l 1,17,18
 304 965 304 965 317 840 c 1,0,1
906.5 223 m 128,-1,20
 991 330 991 330 991 516.5 c 128,-1,21
 991 703 991 703 913 805 c 128,-1,22
 835 907 835 907 695 907 c 0,23,24
 530 907 530 907 433 781 c 128,-1,25
 336 655 336 655 336 434 c 2,26,-1
 336 268 l 1,27,28
 387 197 387 197 477.5 156.5 c 128,-1,29
 568 116 568 116 670 116 c 0,30,19
 822 116 822 116 906.5 223 c 128,-1,20
EndSplineSet
EndChar

StartChar: q
Encoding: 113 113 84
Width: 1241
GlyphClass: 2
Flags: W
LayerCount: 2
UndoRedoHistory
Layer: 1
Undoes
EndUndoes
Redoes
EndRedoes
EndUndoRedoHistory
Fore
SplineSet
220 125.5 m 128,-1,1
 92 273 92 273 92 508.5 c 128,-1,2
 92 744 92 744 224 896 c 128,-1,3
 356 1048 356 1048 583 1048 c 0,4,5
 716 1048 716 1048 789 1008 c 128,-1,6
 862 968 862 968 909 888 c 1,7,-1
 924 1026 l 1,8,-1
 1091 1026 l 1,9,10
 1073 904 1073 904 1073 813 c 2,11,-1
 1073 -355 l 1,12,-1
 1325 -221 l 1,13,-1
 1397 -343 l 1,14,15
 1144 -480 1144 -480 1023 -539 c 1,16,-1
 909 -426 l 1,17,-1
 909 128 l 1,18,19
 786 -22 786 -22 567 -22 c 128,-1,0
 348 -22 348 -22 220 125.5 c 128,-1,1
909 543 m 2,20,21
 909 710 909 710 827.5 808.5 c 128,-1,22
 746 907 746 907 585.5 907 c 128,-1,23
 425 907 425 907 343.5 798 c 128,-1,24
 262 689 262 689 262 510 c 128,-1,25
 262 331 262 331 344.5 223.5 c 128,-1,26
 427 116 427 116 588 116 c 0,27,28
 684 116 684 116 776 173 c 128,-1,29
 868 230 868 230 909 302 c 1,30,-1
 909 543 l 2,20,21
EndSplineSet
EndChar

StartChar: r
Encoding: 114 114 85
Width: 792
GlyphClass: 2
Flags: W
LayerCount: 2
UndoRedoHistory
Layer: 1
Undoes
EndUndoes
Redoes
EndRedoes
EndUndoRedoHistory
Fore
SplineSet
90 974 m 1,0,-1
 255 1026 l 1,1,2
 324 920 324 920 334 854 c 1,3,4
 377 938 377 938 454.5 993 c 128,-1,5
 532 1048 532 1048 619 1048 c 0,6,7
 706 1048 706 1048 778 1028 c 1,8,-1
 764 883 l 1,9,10
 696 907 696 907 619 907 c 0,11,12
 502 907 502 907 425.5 821 c 128,-1,13
 349 735 349 735 349 568 c 2,14,-1
 349 0 l 1,15,-1
 185 0 l 1,16,-1
 185 699 l 2,17,18
 185 753 185 753 169 807 c 128,-1,19
 153 861 153 861 137 891.5 c 128,-1,20
 121 922 121 922 90 974 c 1,0,-1
EndSplineSet
EndChar

StartChar: s
Encoding: 115 115 86
Width: 896
GlyphClass: 2
Flags: W
LayerCount: 2
UndoRedoHistory
Layer: 1
Undoes
EndUndoes
Redoes
EndRedoes
EndUndoRedoHistory
Fore
SplineSet
110.966666667 766.680555556 m 0,0,1
 110.966666667 897.353442029 110.966666667 897.353442029 203.983333333 972.676721014 c 128,-1,2
 297 1048 297 1048 458.5 1048 c 128,-1,3
 620 1048 620 1048 775 967 c 1,4,-1
 731 832 l 1,5,6
 591 907 591 907 461 907 c 0,7,8
 373 907 373 907 323 872.5 c 128,-1,9
 273 838 273 838 273 776 c 0,10,11
 273 704.625 273 704.625 381 649.5 c 0,12,13
 429 625 429 625 487.5 600 c 128,-1,14
 546 575 546 575 603.5 545.5 c 128,-1,15
 661 516 661 516 708.5 480.5 c 128,-1,16
 756 445 756 445 784.064516129 394.193548387 c 128,-1,17
 812.129032258 343.387096774 812.129032258 343.387096774 812.129032258 283.335067638 c 0,18,19
 812.129032258 144.715139102 812.129032258 144.715139102 716.064516129 61.3575695511 c 128,-1,20
 620 -22 620 -22 464 -22 c 0,21,22
 276 -22 276 -22 108 71 c 1,23,-1
 158 212 l 1,24,25
 215 168 215 168 295.5 142 c 128,-1,26
 376 116 376 116 458.5 116 c 128,-1,27
 541 116 541 116 596.5 151.5 c 128,-1,28
 652 187 652 187 652 260 c 0,29,30
 652 302 652 302 622 337 c 128,-1,31
 592 372 592 372 543.5 397.5 c 128,-1,32
 495 423 495 423 437 448 c 128,-1,33
 379 473 379 473 321 502 c 128,-1,34
 263 531 263 531 215.5 566 c 128,-1,35
 168 601 168 601 139.483333333 652.625 c 128,-1,36
 110.966666667 704.25 110.966666667 704.25 110.966666667 766.680555556 c 0,0,1
EndSplineSet
EndChar

StartChar: t
Encoding: 116 116 87
Width: 821
GlyphClass: 2
Flags: W
LayerCount: 2
UndoRedoHistory
Layer: 1
Undoes
EndUndoes
Redoes
EndRedoes
EndUndoRedoHistory
Fore
SplineSet
233 1298 m 1,0,-1
 392 1345 l 1,1,-1
 392 1026 l 1,2,-1
 729 1026 l 1,3,-1
 729 919 l 1,4,-1
 392 919 l 1,5,-1
 392 298 l 2,6,7
 392 204 392 204 436.5 161.5 c 128,-1,8
 481 119 481 119 579 119 c 0,9,10
 613 119 613 119 674.5 131.5 c 128,-1,11
 736 144 736 144 772 158 c 1,12,-1
 791 35 l 1,13,14
 743 18 743 18 672.5 5 c 128,-1,15
 602 -8 602 -8 560 -8 c 0,16,17
 386 -8 386 -8 307 65 c 128,-1,18
 228 138 228 138 228 300 c 2,19,-1
 228 919 l 1,20,-1
 25 919 l 1,21,-1
 25 1026 l 1,22,-1
 233 1026 l 1,23,-1
 233 1298 l 1,0,-1
EndSplineSet
EndChar

StartChar: u
Encoding: 117 117 88
Width: 1199
GlyphClass: 2
Flags: W
LayerCount: 2
UndoRedoHistory
Layer: 1
Undoes
EndUndoes
Redoes
EndRedoes
EndUndoRedoHistory
Fore
SplineSet
850 1026 m 1,0,-1
 1014 1026 l 1,1,-1
 1014 302 l 2,2,3
 1014 196 1014 196 1049 157.5 c 0,4,5
 1073.72477064 130.302752294 1073.72477064 130.302752294 1116.41469573 130.302752294 c 0,6,7
 1134.1559633 130.302752294 1134.1559633 130.302752294 1155 135 c 1,8,-1
 1139 -3 l 1,9,10
 1102.91366906 -9.96402877698 1102.91366906 -9.96402877698 1071.18611873 -9.96402877698 c 0,11,12
 1002.68345324 -9.96402877698 1002.68345324 -9.96402877698 954.5 22.5 c 0,13,14
 884 70 884 70 875 164 c 1,15,16
 760 -22 760 -22 522 -22 c 0,17,18
 365.5 -22 365.5 -22 258 64 c 0,19,20
 203 108 203 108 173.865671642 181.552238806 c 128,-1,21
 144.731343284 255.104477612 144.731343284 255.104477612 144.731343284 346.760748496 c 0,22,23
 144.731343284 355.776119403 144.731343284 355.776119403 145 365 c 2,24,-1
 151 582 l 2,25,26
 152.058823529 613.411764706 152.058823529 613.411764706 152.058823529 655.617647059 c 0,27,28
 152.058823529 778.209150327 152.058823529 778.209150327 133.6645469 869.158629217 c 128,-1,29
 115.27027027 960.108108108 115.27027027 960.108108108 99 988 c 2,30,-1
 92 1000 l 1,31,-1
 257 1026 l 1,32,33
 265.577777778 1017.42222222 265.577777778 1017.42222222 278.288888889 978.711111111 c 0,34,35
 317.058823529 860.639037433 317.058823529 860.639037433 317.058823529 661.415224913 c 0,36,37
 317.058823529 629.235294118 317.058823529 629.235294118 316 595 c 2,38,-1
 310 365 l 2,39,40
 309.872340426 359.255319149 309.872340426 359.255319149 309.872340426 353.651878678 c 0,41,42
 309.872340426 227.574468085 309.872340426 227.574468085 375.936170213 171.787234043 c 128,-1,43
 442 116 442 116 547 116 c 0,44,45
 675 116 675 116 762.5 200.5 c 128,-1,46
 850 285 850 285 850 427 c 2,47,-1
 850 1026 l 1,0,-1
EndSplineSet
EndChar

StartChar: v
Encoding: 118 118 89
Width: 1062
GlyphClass: 2
Flags: W
LayerCount: 2
UndoRedoHistory
Layer: 1
Undoes
EndUndoes
Redoes
EndRedoes
EndUndoRedoHistory
Fore
SplineSet
869 1026 m 1,0,-1
 1046 1026 l 1,1,-1
 613 0 l 1,2,-1
 445 0 l 1,3,-1
 16 1026 l 1,4,-1
 198 1026 l 1,5,-1
 479 336 l 2,6,7
 503 278 503 278 537 163 c 1,8,9
 584 315 584 315 593 336 c 2,10,-1
 869 1026 l 1,0,-1
EndSplineSet
EndChar

StartChar: w
Encoding: 119 119 90
Width: 1688
GlyphClass: 2
Flags: W
LayerCount: 2
UndoRedoHistory
Layer: 1
Undoes
EndUndoes
Redoes
EndRedoes
EndUndoRedoHistory
Fore
SplineSet
1493 1026 m 1,0,-1
 1662 1026 l 1,1,-1
 1294 0 l 1,2,-1
 1134 0 l 1,3,-1
 853 831 l 1,4,-1
 553 0 l 1,5,-1
 391 0 l 1,6,-1
 26 1026 l 1,7,-1
 202 1026 l 1,8,-1
 451 284 l 2,9,10
 462.666666667 246.666666667 462.666666667 246.666666667 480 186 c 1,11,12
 482 192 482 192 493 226 c 128,-1,13
 504 260 504 260 511 276 c 1,14,-1
 776 1026 l 1,15,-1
 942 1026 l 1,16,-1
 1190 286 l 2,17,18
 1195 271 1195 271 1204.5 237 c 128,-1,19
 1214 203 1214 203 1219 189 c 1,20,21
 1226 206 1226 206 1237 240.5 c 128,-1,22
 1248 275 1248 275 1253 287 c 1,23,-1
 1493 1026 l 1,0,-1
EndSplineSet
EndChar

StartChar: x
Encoding: 120 120 91
Width: 1087
GlyphClass: 2
Flags: W
LayerCount: 2
UndoRedoHistory
Layer: 1
Undoes
EndUndoes
Redoes
EndRedoes
EndUndoRedoHistory
Fore
SplineSet
847 1026 m 1,0,-1
 1026 1026 l 1,1,-1
 648 518 l 1,2,-1
 1039 0 l 1,3,-1
 838 0 l 1,4,-1
 542 408 l 1,5,-1
 238 0 l 1,6,-1
 48 0 l 1,7,-1
 448 514 l 1,8,-1
 67 1026 l 1,9,-1
 270 1026 l 1,10,-1
 558 626 l 1,11,-1
 847 1026 l 1,0,-1
EndSplineSet
EndChar

StartChar: y
Encoding: 121 121 92
Width: 1186
GlyphClass: 2
Flags: W
LayerCount: 2
UndoRedoHistory
Layer: 1
Undoes
EndUndoes
Redoes
EndRedoes
EndUndoRedoHistory
Fore
SplineSet
862 1026 m 1,0,-1
 1026 1026 l 1,1,-1
 1026 -23 l 2,2,3
 1026 -235 1026 -235 888.5 -364.5 c 128,-1,4
 751 -494 751 -494 527 -494 c 0,5,6
 358 -494 358 -494 191 -433 c 1,7,-1
 210 -280 l 1,8,9
 279 -314 279 -314 362.5 -335.5 c 128,-1,10
 446 -357 446 -357 513 -357 c 0,11,12
 670 -357 670 -357 766 -271 c 128,-1,13
 862 -185 862 -185 862 -44 c 2,14,-1
 862 128 l 1,15,16
 746 -22 746 -22 534 -22 c 0,17,18
 377.5 -22 377.5 -22 270 64 c 0,19,20
 215 108 215 108 185.865671642 181.552238806 c 128,-1,21
 156.731343284 255.104477612 156.731343284 255.104477612 156.731343284 346.760748496 c 0,22,23
 156.731343284 355.776119403 156.731343284 355.776119403 157 365 c 2,24,-1
 163 582 l 2,25,26
 164.058823529 613.411764706 164.058823529 613.411764706 164.058823529 655.617647059 c 0,27,28
 164.058823529 778.209150327 164.058823529 778.209150327 145.6645469 869.158629217 c 128,-1,29
 127.27027027 960.108108108 127.27027027 960.108108108 111 988 c 2,30,-1
 104 1000 l 1,31,-1
 269 1026 l 1,32,33
 277.577777778 1017.42222222 277.577777778 1017.42222222 290.288888889 978.711111111 c 0,34,35
 329.058823529 860.639037433 329.058823529 860.639037433 329.058823529 661.415224913 c 0,36,37
 329.058823529 629.235294118 329.058823529 629.235294118 328 595 c 2,38,-1
 322 365 l 2,39,40
 321.872340426 359.255319149 321.872340426 359.255319149 321.872340426 353.651878678 c 0,41,42
 321.872340426 227.574468085 321.872340426 227.574468085 387.936170213 171.787234043 c 128,-1,43
 454 116 454 116 559 116 c 0,44,45
 687 116 687 116 774.5 200.5 c 128,-1,46
 862 285 862 285 862 427 c 2,47,-1
 862 1026 l 1,0,-1
EndSplineSet
EndChar

StartChar: z
Encoding: 122 122 93
Width: 979
GlyphClass: 2
Flags: W
LayerCount: 2
UndoRedoHistory
Layer: 1
Undoes
EndUndoes
Redoes
EndRedoes
EndUndoRedoHistory
Fore
SplineSet
106 1026 m 1,0,-1
 903 1026 l 1,1,-1
 903 939 l 1,2,-1
 305 134 l 1,3,-1
 920 134 l 1,4,-1
 920 0 l 1,5,-1
 80 0 l 1,6,-1
 80 89 l 1,7,-1
 680 891 l 1,8,-1
 106 891 l 1,9,-1
 106 1026 l 1,0,-1
EndSplineSet
EndChar

StartChar: braceleft
Encoding: 123 123 94
Width: 627
GlyphClass: 2
Flags: W
LayerCount: 2
UndoRedoHistory
Layer: 1
Undoes
EndUndoes
Redoes
EndRedoes
EndUndoRedoHistory
Fore
SplineSet
244 935 m 2,0,-1
 243 1218 l 2,1,2
 243 1474 243 1474 566 1488 c 1,3,-1
 566 1362 l 1,4,5
 466 1362 466 1362 434.5 1309.5 c 128,-1,6
 403 1257 403 1257 403 1122 c 1,7,-1
 405 884 l 2,8,9
 405 804.666666667 405 804.666666667 393.5 766.333333333 c 128,-1,10
 382 728 382 728 363.5 707 c 0,11,12
 320.744444444 658.466666667 320.744444444 658.466666667 232 615 c 1,13,14
 293 585 293 585 328 558 c 128,-1,15
 363 531 363 531 380 496.5 c 128,-1,16
 397 462 397 462 401 431.5 c 128,-1,17
 405 401 405 401 405 345 c 2,18,-1
 403 107 l 1,19,20
 403 -28 403 -28 434.5 -80.5 c 128,-1,21
 466 -133 466 -133 566 -133 c 1,22,-1
 566 -259 l 1,23,24
 420.686090226 -253.028195489 420.686090226 -253.028195489 331.843045113 -191.825208855 c 0,25,26
 243 -130.622222222 243 -130.622222222 243 11 c 2,27,-1
 244 294 l 2,28,29
 244 391.2 244 391.2 231 434.1 c 128,-1,30
 218 477 218 477 201 498.5 c 0,31,32
 163.216093446 546.285528877 163.216093446 546.285528877 88 554 c 1,33,-1
 87 554 l 1,34,-1
 86 553 l 1,35,-1
 86 676 l 1,36,-1
 87 676 l 1,37,-1
 88 675 l 1,38,39
 198.088211708 686.291098637 198.088211708 686.291098637 228 785 c 0,40,41
 244 837.8 244 837.8 244 935 c 2,0,-1
EndSplineSet
EndChar

StartChar: bar
Encoding: 124 124 95
Width: 500
GlyphClass: 2
Flags: W
LayerCount: 2
UndoRedoHistory
Layer: 1
Undoes
EndUndoes
Redoes
EndRedoes
EndUndoRedoHistory
Fore
SplineSet
168 -491 m 1,0,-1
 168 1545 l 1,1,-1
 325 1545 l 1,2,-1
 325 -491 l 1,3,-1
 168 -491 l 1,0,-1
EndSplineSet
EndChar

StartChar: braceright
Encoding: 125 125 96
Width: 627
GlyphClass: 2
Flags: W
LayerCount: 2
UndoRedoHistory
Layer: 1
Undoes
EndUndoes
Redoes
EndRedoes
EndUndoRedoHistory
Fore
SplineSet
86 1488 m 1,0,1
 409 1474 409 1474 409 1218 c 2,2,-1
 408 935 l 2,3,4
 408 837.8 408 837.8 421 794.9 c 128,-1,5
 434 752 434 752 451 730.5 c 0,6,7
 488.783906554 682.714471123 488.783906554 682.714471123 564 675 c 1,8,-1
 565 676 l 1,9,-1
 566 676 l 1,10,-1
 566 553 l 1,11,-1
 565 554 l 1,12,-1
 564 554 l 1,13,14
 453.911788292 542.708901363 453.911788292 542.708901363 424 444 c 0,15,16
 408 391.2 408 391.2 408 294 c 2,17,-1
 409 11 l 2,18,19
 409 -130.622222222 409 -130.622222222 320.156954887 -191.825208855 c 0,20,21
 231.313909774 -253.028195489 231.313909774 -253.028195489 86 -259 c 1,22,-1
 86 -133 l 1,23,24
 186 -133 186 -133 217.5 -80.5 c 128,-1,25
 249 -28 249 -28 249 107 c 1,26,-1
 247 345 l 2,27,28
 247 424.333333333 247 424.333333333 258.5 462.666666667 c 128,-1,29
 270 501 270 501 288.5 522 c 0,30,31
 331.255555556 570.533333333 331.255555556 570.533333333 420 614 c 1,32,33
 359 644 359 644 324 671 c 128,-1,34
 289 698 289 698 272 732.5 c 128,-1,35
 255 767 255 767 251 797.5 c 128,-1,36
 247 828 247 828 247 884 c 2,37,-1
 249 1122 l 1,38,39
 249 1257 249 1257 217.5 1309.5 c 128,-1,40
 186 1362 186 1362 86 1362 c 1,41,-1
 86 1488 l 1,0,1
EndSplineSet
EndChar

StartChar: asciitilde
Encoding: 126 126 97
Width: 1458
GlyphClass: 2
Flags: W
LayerCount: 2
UndoRedoHistory
Layer: 1
Undoes
EndUndoes
Redoes
EndRedoes
EndUndoRedoHistory
Fore
SplineSet
304 385 m 1,0,-1
 189 440 l 1,1,2
 207 525 207 525 256 588.5 c 128,-1,3
 305 652 305 652 377 683 c 0,4,5
 427 705 427 705 489.5 705 c 128,-1,6
 552 705 552 705 658 664 c 0,7,8
 695 649 695 649 776 611 c 128,-1,9
 857 573 857 573 895 559 c 128,-1,10
 933 545 933 545 957 545 c 0,11,12
 1026 545 1026 545 1070 598 c 128,-1,13
 1114 651 1114 651 1131 723 c 1,14,-1
 1256 684 l 1,15,16
 1210 491 1210 491 1065 430 c 0,17,18
 1018 410 1018 410 960.5 410 c 128,-1,19
 903 410 903 410 810 452 c 0,20,21
 786 463 786 463 707.34169279 500.786833856 c 0,22,23
 561.183673469 571 561.183673469 571 489.591836735 571 c 128,-1,24
 418 571 418 571 370 516.5 c 128,-1,25
 322 462 322 462 304 385 c 1,0,-1
EndSplineSet
EndChar

StartChar: exclamdown
Encoding: 161 161 99
Width: 737
GlyphClass: 2
Flags: W
LayerCount: 2
UndoRedoHistory
Layer: 1
Undoes
EndUndoes
Redoes
EndRedoes
EndUndoRedoHistory
Fore
SplineSet
305 1077 m 1,0,-1
 391 1077 l 1,1,-1
 441 -6 l 1,2,-1
 254 -6 l 1,3,-1
 305 1077 l 1,0,-1
269 1423.5 m 128,-1,5
 299 1456 299 1456 348 1456 c 128,-1,6
 397 1456 397 1456 431.5 1425.5 c 128,-1,7
 466 1395 466 1395 466 1346.5 c 128,-1,8
 466 1298 466 1298 436 1265.5 c 128,-1,9
 406 1233 406 1233 357 1233 c 128,-1,10
 308 1233 308 1233 273.5 1263.5 c 128,-1,11
 239 1294 239 1294 239 1342.5 c 128,-1,4
 239 1391 239 1391 269 1423.5 c 128,-1,5
EndSplineSet
EndChar

StartChar: cent
Encoding: 162 162 100
Width: 1189
GlyphClass: 2
Flags: W
LayerCount: 2
UndoRedoHistory
Layer: 1
Undoes
EndUndoes
Redoes
EndRedoes
EndUndoRedoHistory
Fore
SplineSet
553 904 m 1,0,1
 416 882 416 882 341.5 774.5 c 128,-1,2
 267 667 267 667 267 505.5 c 0,3,4
 267 344 267 344 344.5 243 c 128,-1,5
 422 142 422 142 553 122 c 1,6,-1
 553 904 l 1,0,1
553 -235 m 1,7,-1
 553 -20 l 1,8,9
 351 0 351 0 222.5 144 c 128,-1,10
 94 288 94 288 94 510 c 0,11,12
 94 732 94 732 217 881 c 128,-1,13
 340 1030 340 1030 553 1049 c 1,14,-1
 553 1281 l 1,15,-1
 666 1281 l 1,16,-1
 666 1049 l 1,17,18
 868 1034 868 1034 960 912 c 1,19,-1
 883 801 l 1,20,21
 809 893 809 893 666 907 c 1,22,-1
 666 120 l 1,23,24
 809 135 809 135 940 225 c 1,25,-1
 976 87 l 1,26,27
 826 -4 826 -4 666 -20 c 1,28,-1
 666 -235 l 1,29,-1
 553 -235 l 1,7,-1
EndSplineSet
EndChar

StartChar: sterling
Encoding: 163 163 101
Width: 1189
GlyphClass: 2
Flags: W
LayerCount: 2
UndoRedoHistory
Layer: 1
Undoes
EndUndoes
Redoes
EndRedoes
EndUndoRedoHistory
Fore
SplineSet
115 0 m 1,0,-1
 114 138 l 1,1,2
 251.74196351 218.082536924 251.74196351 218.082536924 283.5 331 c 0,3,4
 297 379 297 379 297 440 c 2,5,-1
 297 690 l 1,6,-1
 114 690 l 1,7,-1
 114 832 l 1,8,-1
 296 832 l 1,9,10
 294 852 294 852 294 861 c 0,11,12
 294 972 294 972 305.5 1057 c 128,-1,13
 317 1142 317 1142 347 1218 c 128,-1,14
 377 1294 377 1294 426 1343 c 0,15,16
 531 1448 531 1448 739 1448 c 128,-1,17
 947 1448 947 1448 1062 1357 c 1,18,-1
 1010 1237 l 1,19,20
 896 1307 896 1307 742.5 1307 c 128,-1,21
 589 1307 589 1307 526 1212 c 128,-1,22
 463 1117 463 1117 463 947 c 1,23,-1
 466 832 l 1,24,-1
 798 832 l 1,25,-1
 798 690 l 1,26,-1
 468 690 l 1,27,-1
 468 641 l 2,28,29
 468 535 468 535 465.5 471.5 c 128,-1,30
 463 408 463 408 450 327 c 0,31,32
 427.617021277 187.536824877 427.617021277 187.536824877 370 141 c 1,33,-1
 1081 141 l 1,34,-1
 1081 0 l 1,35,-1
 115 0 l 1,0,-1
EndSplineSet
EndChar

StartChar: currency
Encoding: 164 164 102
Width: 1238
GlyphClass: 2
Flags: W
LayerCount: 2
UndoRedoHistory
Layer: 1
Undoes
EndUndoes
Redoes
EndRedoes
EndUndoRedoHistory
Fore
SplineSet
564 351 m 128,-1,1
 690 351 690 351 777.551136364 439.060154598 c 0,2,3
 865.102272727 527.120309197 865.102272727 527.120309197 865.102272727 654.128336416 c 128,-1,4
 865.102272727 781.136363636 865.102272727 781.136363636 780.121270939 873.115800866 c 0,5,6
 695.140269151 965.095238095 695.140269151 965.095238095 569.117753623 965.095238095 c 128,-1,7
 443.095238095 965.095238095 443.095238095 965.095238095 353.047619048 875.047619048 c 128,-1,8
 263 785 263 785 263 658 c 128,-1,9
 263 531 263 531 350.5 441 c 128,-1,0
 438 351 438 351 564 351 c 128,-1,1
858 917 m 1,10,11
 957.085714286 807.228571429 957.085714286 807.228571429 957.085714286 661.37755102 c 128,-1,12
 957.085714286 515.526530612 957.085714286 515.526530612 863 408 c 1,13,-1
 1031 246 l 1,14,-1
 994 210 l 1,15,-1
 827 371 l 1,16,17
 717 274 717 274 573 274 c 128,-1,18
 429 274 429 274 319 363 c 1,19,-1
 157 195 l 1,20,-1
 121 232 l 1,21,-1
 281 398 l 1,22,23
 175 511 175 511 175 654.5 c 128,-1,24
 175 798 175 798 269 908 c 1,25,-1
 106 1065 l 1,26,-1
 145 1104 l 1,27,-1
 307 947 l 1,28,29
 420.719626168 1048.08411215 420.719626168 1048.08411215 565.040533445 1048.08411215 c 128,-1,30
 709.361440722 1048.08411215 709.361440722 1048.08411215 818 956 c 1,31,-1
 976 1120 l 1,32,-1
 1016 1081 l 1,33,-1
 858 917 l 1,10,11
EndSplineSet
EndChar

StartChar: yen
Encoding: 165 165 103
Width: 1266
GlyphClass: 2
Flags: W
LayerCount: 2
UndoRedoHistory
Layer: 1
Undoes
EndUndoes
Redoes
EndRedoes
EndUndoRedoHistory
Fore
SplineSet
1061 1456 m 1,0,-1
 1252 1456 l 1,1,-1
 790.668197474 716 l 1,2,-1
 1099 716 l 1,3,-1
 1099 574 l 1,4,-1
 709 574 l 1,5,-1
 709 423 l 1,6,-1
 1102 423 l 1,7,-1
 1102 283 l 1,8,-1
 709 283 l 1,9,-1
 709 0 l 1,10,-1
 537 0 l 1,11,-1
 537 283 l 1,12,-1
 147 283 l 1,13,-1
 147 423 l 1,14,-1
 537 423 l 1,15,-1
 537 574 l 1,16,-1
 141 574 l 1,17,-1
 141 716 l 1,18,-1
 455.281464531 716 l 1,19,-1
 4 1456 l 1,20,-1
 195 1456 l 1,21,-1
 626 727 l 1,22,-1
 1061 1456 l 1,0,-1
EndSplineSet
EndChar

StartChar: brokenbar
Encoding: 166 166 104
Width: 500
GlyphClass: 2
Flags: W
LayerCount: 2
UndoRedoHistory
Layer: 1
Undoes
EndUndoes
Redoes
EndRedoes
EndUndoRedoHistory
Fore
SplineSet
168 -491 m 1,0,-1
 168 393 l 1,1,-1
 325 393 l 1,2,-1
 325 -491 l 1,3,-1
 168 -491 l 1,0,-1
168 677 m 1,4,-1
 168 1545 l 1,5,-1
 325 1545 l 1,6,-1
 325 677 l 1,7,-1
 168 677 l 1,4,-1
EndSplineSet
EndChar

StartChar: section
Encoding: 167 167 105
Width: 1097
GlyphClass: 2
Flags: W
LayerCount: 2
UndoRedoHistory
Layer: 1
Undoes
EndUndoes
Redoes
EndRedoes
EndUndoRedoHistory
Fore
SplineSet
482 -48 m 0,0,1
 339 -48 339 -48 212 4 c 1,2,-1
 210 153 l 1,3,4
 354 89 354 89 477 89 c 0,5,6
 555 89 555 89 614 112.5 c 128,-1,7
 673 136 673 136 699 182 c 0,8,9
 715 210 715 210 715 240.5 c 0,10,11
 715 300.071428571 715 300.071428571 678.419708029 328.813086548 c 128,-1,12
 641.839416058 357.554744526 641.839416058 357.554744526 601.419708029 375.777372263 c 128,-1,13
 561 394 561 394 505 418 c 2,14,-1
 421 454 l 2,15,16
 340 488 340 488 284 532 c 128,-1,17
 228 576 228 576 202 640 c 0,18,19
 185 682 185 682 185 729 c 0,20,21
 185 880 185 880 374 975 c 1,22,23
 300 1020 300 1020 260.5 1074.5 c 128,-1,24
 221 1129 221 1129 221 1209 c 0,25,26
 221 1361.59633028 221 1361.59633028 337.5 1430 c 0,27,28
 444.796875 1493 444.796875 1493 603 1493 c 0,29,30
 687.8 1493 687.8 1493 758 1473.5 c 0,31,32
 785 1466 785 1466 832 1452 c 1,33,-1
 834 1304 l 1,34,35
 723 1356 723 1356 608 1356 c 0,36,37
 393 1356 393 1356 393 1221 c 0,38,39
 393 1166 393 1166 422 1134 c 128,-1,40
 451 1102 451 1102 494 1078.5 c 128,-1,41
 537 1055 537 1055 635.5 1011.5 c 128,-1,42
 734 968 734 968 793.5 928 c 128,-1,43
 853 888 853 888 882 838 c 128,-1,44
 911 788 911 788 911 739 c 0,45,46
 911 644.2 911 644.2 848 577 c 0,47,48
 799.121673004 524.863117871 799.121673004 524.863117871 725 480 c 1,49,50
 774 455 774 455 806.5 429.5 c 128,-1,51
 839 404 839 404 863.5 357.5 c 128,-1,52
 888 311 888 311 888 252 c 0,53,54
 888 116 888 116 765 30 c 0,55,56
 653 -48 653 -48 482 -48 c 0,0,1
591 547 m 1,57,58
 690 610 690 610 720 668 c 0,59,60
 733 693 733 693 733 725.5 c 128,-1,61
 733 758 733 758 716.5 785 c 128,-1,62
 700 812 700 812 671 830.5 c 128,-1,63
 642 849 642 849 614 861.5 c 128,-1,64
 586 874 586 874 549.5 888 c 128,-1,65
 513 902 513 902 495 912 c 1,66,67
 436 881 436 881 399 841 c 128,-1,68
 362 801 362 801 362 739.347826087 c 128,-1,69
 362 677.695652174 362 677.695652174 402.317596567 645.266281023 c 128,-1,70
 442.635193133 612.836909871 442.635193133 612.836909871 486.317596567 592.418454936 c 128,-1,71
 530 572 530 572 591 547 c 1,57,58
EndSplineSet
EndChar

StartChar: dieresis
Encoding: 168 168 106
Width: 743
GlyphClass: 2
Flags: W
LayerCount: 2
UndoRedoHistory
Layer: 1
Undoes
EndUndoes
Redoes
EndRedoes
EndUndoRedoHistory
Fore
SplineSet
121 1183 m 1,0,-1
 121 1346 l 1,1,-1
 285 1346 l 1,2,-1
 285 1183 l 1,3,-1
 121 1183 l 1,0,-1
453 1183 m 1,4,-1
 453 1346 l 1,5,-1
 617 1346 l 1,6,-1
 617 1183 l 1,7,-1
 453 1183 l 1,4,-1
EndSplineSet
EndChar

StartChar: copyright
Encoding: 169 169 107
Width: 1829
GlyphClass: 2
Flags: W
LayerCount: 2
UndoRedoHistory
Layer: 1
Undoes
EndUndoes
Redoes
EndRedoes
EndUndoRedoHistory
Fore
SplineSet
1249 339 m 1,0,1
 1120 249 1120 249 949 249 c 128,-1,2
 778 249 778 249 663.5 330 c 128,-1,3
 549 411 549 411 496 542 c 0,4,5
 460 629 460 629 460 729 c 0,6,7
 460 894 460 894 539 1007 c 128,-1,8
 618 1120 618 1120 750 1172 c 0,9,10
 840 1208 840 1208 951 1208 c 0,11,12
 1124 1208 1124 1208 1245 1105 c 1,13,-1
 1214 985 l 1,14,15
 1104 1080 1104 1080 944 1080 c 0,16,17
 828 1080 828 1080 749.5 1022 c 128,-1,18
 671 964 671 964 636 868 c 0,19,20
 613 804 613 804 613 733 c 0,21,22
 613 612 613 612 667.5 529.5 c 128,-1,23
 722 447 722 447 816 408 c 0,24,25
 886 380 886 380 972 380 c 0,26,27
 1112 380 1112 380 1210 460 c 1,28,-1
 1249 339 l 1,0,1
1480 192 m 128,-1,30
 1243 -32 1243 -32 910.5 -32 c 128,-1,31
 578 -32 578 -32 340 192 c 0,32,33
 191 331 191 331 132 526 c 0,34,35
 103 624 103 624 103 726 c 0,36,37
 103 1035 103 1035 340.5 1259 c 128,-1,38
 578 1483 578 1483 909.5 1483 c 128,-1,39
 1241 1483 1241 1483 1480 1258 c 0,40,41
 1630 1117 1630 1117 1688 924 c 0,42,43
 1717 826 1717 826 1717 725 c 0,44,29
 1717 416 1717 416 1480 192 c 128,-1,30
639.5 135 m 128,-1,46
 764 85 764 85 912 85 c 128,-1,47
 1060 85 1060 85 1183 135.5 c 128,-1,48
 1306 186 1306 186 1394.5 269.5 c 128,-1,49
 1483 353 1483 353 1536.5 468 c 128,-1,50
 1590 583 1590 583 1590 724 c 0,51,52
 1590 995 1590 995 1394 1180 c 0,53,54
 1305 1264 1305 1264 1181 1315 c 128,-1,55
 1057 1366 1057 1366 909.5 1366 c 128,-1,56
 762 1366 762 1366 638.5 1316 c 128,-1,57
 515 1266 515 1266 426 1182.5 c 128,-1,58
 337 1099 337 1099 283.5 983.5 c 128,-1,59
 230 868 230 868 230 726.5 c 128,-1,60
 230 585 230 585 283.5 469.5 c 128,-1,61
 337 354 337 354 426 269.5 c 128,-1,45
 515 185 515 185 639.5 135 c 128,-1,46
EndSplineSet
EndChar

StartChar: ordfeminine
Encoding: 170 170 108
Width: 745
GlyphClass: 2
Flags: W
LayerCount: 2
UndoRedoHistory
Layer: 1
Undoes
EndUndoes
Redoes
EndRedoes
EndUndoRedoHistory
Fore
SplineSet
317 768 m 0,0,1
 234 768 234 768 173.5 800 c 128,-1,2
 113 832 113 832 85 890 c 0,3,4
 66 928 66 928 66 976 c 128,-1,5
 66 1024 66 1024 86.5 1063.5 c 128,-1,6
 107 1103 107 1103 143 1128.5 c 0,7,8
 212.851851852 1177.97839506 212.851851852 1177.97839506 309 1192 c 0,9,10
 346 1197 346 1197 422.5 1201.5 c 128,-1,11
 499 1206 499 1206 536 1211 c 1,12,-1
 536 1219 l 2,13,14
 536 1302 536 1302 503 1335.5 c 128,-1,15
 470 1369 470 1369 388 1369 c 0,16,17
 242 1369 242 1369 178 1275 c 1,18,-1
 111 1350 l 1,19,20
 186 1477 186 1477 394 1477 c 0,21,22
 521 1477 521 1477 595 1416 c 128,-1,23
 669 1355 669 1355 669 1235 c 2,24,-1
 667 914 l 2,25,26
 667 870 667 870 674 786 c 1,27,-1
 543 786 l 1,28,-1
 537 860 l 1,29,30
 462 768 462 768 317 768 c 0,0,1
338 871 m 0,31,32
 432 871 432 871 481.5 929.5 c 128,-1,33
 531 988 531 988 536 1085 c 1,34,-1
 536 1110 l 1,35,36
 510 1105 510 1105 459 1101.5 c 128,-1,37
 408 1098 408 1098 368.5 1093 c 128,-1,38
 329 1088 329 1088 288.5 1077.5 c 128,-1,39
 248 1067 248 1067 225 1041.5 c 128,-1,40
 202 1016 202 1016 202 977 c 0,41,42
 202 871 202 871 338 871 c 0,31,32
EndSplineSet
EndChar

StartChar: guillemotleft
Encoding: 171 171 109
Width: 1156
GlyphClass: 2
Flags: W
LayerCount: 2
UndoRedoHistory
Layer: 1
Undoes
EndUndoes
Redoes
EndRedoes
EndUndoRedoHistory
Fore
SplineSet
515 171 m 1,0,-1
 246 541 l 1,1,-1
 521 914 l 1,2,-1
 681 914 l 1,3,-1
 416 541 l 1,4,-1
 672 171 l 1,5,-1
 515 171 l 1,0,-1
885 171 m 1,6,-1
 616 541 l 1,7,-1
 890 914 l 1,8,-1
 1049 914 l 1,9,-1
 786 541 l 1,10,-1
 1042 171 l 1,11,-1
 885 171 l 1,6,-1
EndSplineSet
EndChar

StartChar: logicalnot
Encoding: 172 172 110
Width: 1458
GlyphClass: 2
Flags: W
LayerCount: 2
UndoRedoHistory
Layer: 1
Undoes
EndUndoes
Redoes
EndRedoes
EndUndoRedoHistory
Fore
SplineSet
1098 238 m 1,0,-1
 1098 659 l 1,1,-1
 200 659 l 1,2,-1
 200 798 l 1,3,-1
 1248 798 l 1,4,-1
 1248 238 l 1,5,-1
 1098 238 l 1,0,-1
EndSplineSet
EndChar

StartChar: registered
Encoding: 174 174 111
Width: 1829
GlyphClass: 2
Flags: W
LayerCount: 2
UndoRedoHistory
Layer: 1
Undoes
EndUndoes
Redoes
EndRedoes
EndUndoRedoHistory
Fore
SplineSet
597 273 m 1,0,-1
 597 1192 l 1,1,-1
 870 1192 l 2,2,3
 1088 1192 1088 1192 1194.5 1126 c 128,-1,4
 1301 1060 1301 1060 1301 941 c 128,-1,5
 1301 822 1301 822 1228 759 c 128,-1,6
 1155 696 1155 696 1036 681 c 1,7,8
 1094.5 624.666666667 1094.5 624.666666667 1133.25 567.833333333 c 0,9,10
 1204.97029703 462.643564356 1204.97029703 462.643564356 1320 273 c 1,11,-1
 1152 273 l 1,12,-1
 1029 485 l 2,13,14
 950 621 950 621 882 664 c 1,15,-1
 745 664 l 1,16,-1
 745 273 l 1,17,-1
 597 273 l 1,0,-1
1480 192 m 128,-1,19
 1243 -32 1243 -32 910.5 -32 c 128,-1,20
 578 -32 578 -32 340 192 c 0,21,22
 191 331 191 331 132 526 c 0,23,24
 103 624 103 624 103 726 c 0,25,26
 103 1035 103 1035 340.5 1259 c 128,-1,27
 578 1483 578 1483 909.5 1483 c 128,-1,28
 1241 1483 1241 1483 1480 1258 c 0,29,30
 1630 1117 1630 1117 1688 924 c 0,31,32
 1717 826 1717 826 1717 725 c 0,33,18
 1717 416 1717 416 1480 192 c 128,-1,19
913 85 m 0,34,35
 1199 85 1199 85 1394.5 268.5 c 128,-1,36
 1590 452 1590 452 1590 723.5 c 128,-1,37
 1590 995 1590 995 1394 1180 c 0,38,39
 1305 1264 1305 1264 1181 1315 c 128,-1,40
 1057 1366 1057 1366 909.5 1366 c 128,-1,41
 762 1366 762 1366 638.5 1316 c 128,-1,42
 515 1266 515 1266 426 1182 c 128,-1,43
 337 1098 337 1098 283.5 983 c 128,-1,44
 230 868 230 868 230 726.5 c 128,-1,45
 230 585 230 585 283.5 469.5 c 128,-1,46
 337 354 337 354 426 269.5 c 128,-1,47
 515 185 515 185 639.5 135 c 128,-1,48
 764 85 764 85 913 85 c 0,34,35
743 783 m 1,49,-1
 868 783 l 2,50,51
 994.2 783 994.2 783 1024.6 791 c 0,52,53
 1094.78403756 809.469483568 1094.78403756 809.469483568 1115.5 833.5 c 0,54,55
 1146 868.88 1146 868.88 1146 922.076363636 c 128,-1,56
 1146 975.272727273 1146 975.272727273 1118 1016 c 0,57,58
 1100.06369427 1042.08917197 1100.06369427 1042.08917197 1053.45324451 1055.94633271 c 128,-1,59
 1006.84279476 1069.80349345 1006.84279476 1069.80349345 957.42139738 1070.90174672 c 128,-1,60
 908 1072 908 1072 866 1072 c 2,61,-1
 742 1072 l 1,62,-1
 743 783 l 1,49,-1
EndSplineSet
EndChar

StartChar: macron
Encoding: 175 175 112
Width: 728
GlyphClass: 2
Flags: W
LayerCount: 2
UndoRedoHistory
Layer: 1
Undoes
EndUndoes
Redoes
EndRedoes
EndUndoRedoHistory
Fore
SplineSet
79 1183 m 1,0,-1
 79 1317 l 1,1,-1
 651 1317 l 1,2,-1
 651 1183 l 1,3,-1
 79 1183 l 1,0,-1
EndSplineSet
EndChar

StartChar: degree
Encoding: 176 176 113
Width: 844
GlyphClass: 2
Flags: W
LayerCount: 2
UndoRedoHistory
Layer: 1
Undoes
EndUndoes
Redoes
EndRedoes
EndUndoRedoHistory
Fore
SplineSet
253 1048 m 128,-1,1
 286 1006 286 1006 330 988.5 c 128,-1,2
 374 971 374 971 425.5 971 c 128,-1,3
 477 971 477 971 524 1001.5 c 128,-1,4
 571 1032 571 1032 589.5 1072.5 c 128,-1,5
 608 1113 608 1113 608 1151 c 0,6,7
 608 1211 608 1211 574 1252.5 c 128,-1,8
 540 1294 540 1294 495.5 1311 c 128,-1,9
 451 1328 451 1328 414 1328 c 0,10,11
 351 1328 351 1328 305 1298.5 c 128,-1,12
 259 1269 259 1269 239.5 1228 c 128,-1,13
 220 1187 220 1187 220 1151 c 0,14,0
 220 1090 220 1090 253 1048 c 128,-1,1
414 855 m 0,15,16
 312 855 312 855 235 906 c 128,-1,17
 158 957 158 957 120 1036 c 0,18,19
 95 1089 95 1089 95 1150 c 0,20,21
 95 1248 95 1248 151 1317.5 c 128,-1,22
 207 1387 207 1387 291 1421 c 1,23,24
 351 1444 351 1444 414 1444 c 0,25,26
 517 1444 517 1444 593.5 1393.5 c 128,-1,27
 670 1343 670 1343 708 1264 c 0,28,29
 733 1211 733 1211 733 1150 c 0,30,31
 733 1052 733 1052 677 982 c 128,-1,32
 621 912 621 912 536 878 c 0,33,34
 480 855 480 855 414 855 c 0,15,16
EndSplineSet
EndChar

StartChar: plusminus
Encoding: 177 177 114
Width: 1458
GlyphClass: 2
Flags: W
LayerCount: 2
UndoRedoHistory
Layer: 1
Undoes
EndUndoes
Redoes
EndRedoes
EndUndoRedoHistory
Fore
SplineSet
647 223 m 1,0,-1
 647 595 l 1,1,-1
 200 595 l 1,2,-1
 188 733 l 1,3,-1
 645 733 l 1,4,-1
 645 1107 l 1,5,-1
 794 1107 l 1,6,-1
 794 733 l 1,7,-1
 1245 733 l 1,8,-1
 1245 595 l 1,9,-1
 798 595 l 1,10,-1
 798 223 l 1,11,-1
 647 223 l 1,0,-1
200 0 m 1,12,-1
 200 138 l 1,13,-1
 1249 138 l 1,14,-1
 1249 0 l 1,15,-1
 200 0 l 1,12,-1
EndSplineSet
EndChar

StartChar: uni00B2
Encoding: 178 178 115
Width: 1190
GlyphClass: 2
Flags: W
LayerCount: 2
UndoRedoHistory
Layer: 1
Undoes
EndUndoes
Redoes
EndRedoes
EndUndoRedoHistory
Fore
SplineSet
283 604 m 1,0,-1
 283 715 l 1,1,2
 500 914 500 914 568.5 989.5 c 128,-1,3
 637 1065 637 1065 669 1116.5 c 128,-1,4
 701 1168 701 1168 701 1216.5 c 128,-1,5
 701 1265 701 1265 662 1294 c 128,-1,6
 623 1323 623 1323 561 1323 c 0,7,8
 438 1323 438 1323 376 1192 c 1,9,-1
 291 1270 l 1,10,11
 325 1348 325 1348 396 1394 c 128,-1,12
 467 1440 467 1440 560.5 1440 c 128,-1,13
 654 1440 654 1440 717 1404.5 c 0,14,15
 830 1340.82539683 830 1340.82539683 830 1203 c 0,16,17
 830 1142 830 1142 802 1085 c 128,-1,18
 774 1028 774 1028 740 987.5 c 128,-1,19
 706 947 706 947 683.5 923 c 128,-1,20
 661 899 661 899 646 883.5 c 128,-1,21
 631 868 631 868 599.5 840 c 128,-1,22
 568 812 568 812 558 803 c 128,-1,23
 548 794 548 794 509 760.5 c 128,-1,24
 470 727 470 727 465 722 c 1,25,-1
 829 722 l 1,26,-1
 829 604 l 1,27,-1
 283 604 l 1,0,-1
EndSplineSet
EndChar

StartChar: uni00B3
Encoding: 179 179 116
Width: 1190
GlyphClass: 2
Flags: W
LayerCount: 2
UndoRedoHistory
Layer: 1
Undoes
EndUndoes
Redoes
EndRedoes
EndUndoRedoHistory
Fore
SplineSet
436 971 m 1,0,-1
 406 970 l 1,1,-1
 380 970 l 1,2,-1
 380 1089 l 1,3,-1
 429 1089 l 2,4,5
 626 1089 626 1089 626 1210 c 0,6,7
 626 1322 626 1322 485 1322 c 0,8,9
 389 1322 389 1322 293 1244 c 1,10,-1
 235 1340 l 1,11,12
 279 1384 279 1384 346 1412.5 c 128,-1,13
 413 1441 413 1441 493.5 1441 c 128,-1,14
 574 1441 574 1441 639 1405.5 c 128,-1,15
 704 1370 704 1370 736 1310 c 0,16,17
 759 1267 759 1267 759 1213 c 0,18,19
 759 1089 759 1089 652 1032 c 1,20,21
 780 975 780 975 780 834 c 0,22,23
 780 745 780 745 728.5 687 c 128,-1,24
 677 629 677 629 608.5 607.5 c 128,-1,25
 540 586 540 586 481 586 c 0,26,27
 332 586 332 586 235 683 c 1,28,-1
 295 779 l 1,29,30
 379 701 379 701 476 701 c 0,31,32
 551 701 551 701 601 736 c 128,-1,33
 651 771 651 771 651 830.5 c 128,-1,34
 651 890 651 890 619 921 c 128,-1,35
 587 952 587 952 543 961.5 c 128,-1,36
 499 971 499 971 436 971 c 1,0,-1
EndSplineSet
EndChar

StartChar: acute
Encoding: 180 180 117
Width: 607
GlyphClass: 2
Flags: W
LayerCount: 2
UndoRedoHistory
Layer: 1
Undoes
EndUndoes
Redoes
EndRedoes
EndUndoRedoHistory
Fore
SplineSet
175 1172 m 1,0,-1
 401 1492 l 1,1,-1
 613 1492 l 1,2,-1
 305 1172 l 1,3,-1
 175 1172 l 1,0,-1
EndSplineSet
EndChar

StartChar: paragraph
Encoding: 182 182 118
Width: 1214
GlyphClass: 2
Flags: W
LayerCount: 2
UndoRedoHistory
Layer: 1
Undoes
EndUndoes
Redoes
EndRedoes
EndUndoRedoHistory
Fore
SplineSet
442 -148 m 1,0,-1
 442 786 l 1,1,2
 330 787 330 787 251 843.5 c 128,-1,3
 172 900 172 900 134 990 c 0,4,5
 107 1053 107 1053 107 1130 c 128,-1,6
 107 1207 107 1207 136 1264.5 c 128,-1,7
 165 1322 165 1322 212 1357 c 0,8,9
 338.228571429 1451 338.228571429 1451 623 1451 c 2,10,-1
 1009 1451 l 1,11,-1
 1009 1327 l 1,12,-1
 922 1327 l 1,13,-1
 922 -148 l 1,14,-1
 793 -148 l 1,15,-1
 793 1327 l 1,16,-1
 585 1327 l 1,17,-1
 585 -148 l 1,18,-1
 442 -148 l 1,0,-1
EndSplineSet
EndChar

StartChar: periodcentered
Encoding: 183 183 119
Width: 444
GlyphClass: 2
Flags: W
LayerCount: 2
UndoRedoHistory
Layer: 1
Undoes
EndUndoes
Redoes
EndRedoes
EndUndoRedoHistory
Fore
SplineSet
76 513 m 1,0,-1
 76 723 l 1,1,-1
 293 723 l 1,2,-1
 293 513 l 1,3,-1
 76 513 l 1,0,-1
EndSplineSet
EndChar

StartChar: cedilla
Encoding: 184 184 120
Width: 529
GlyphClass: 2
Flags: W
LayerCount: 2
UndoRedoHistory
Layer: 1
Undoes
EndUndoes
Redoes
EndRedoes
EndUndoRedoHistory
Fore
SplineSet
468 -239 m 0,0,1
 468 -358.341463415 468 -358.341463415 316 -388 c 0,2,3
 275 -396 275 -396 217.5 -396 c 128,-1,4
 160 -396 160 -396 52 -374 c 1,5,-1
 60 -289 l 1,6,7
 160 -313 160 -313 211 -313 c 0,8,9
 325 -313 325 -313 325 -240.5 c 128,-1,10
 325 -168 325 -168 216 -168 c 0,11,12
 212 -168 212 -168 179 -171 c 2,13,-1
 147 -173 l 1,14,-1
 180 17 l 1,15,-1
 277 17 l 1,16,-1
 259 -90 l 1,17,-1
 268 -90 l 1,18,19
 468 -100 468 -100 468 -239 c 0,0,1
EndSplineSet
EndChar

StartChar: uni00B9
Encoding: 185 185 121
Width: 1190
GlyphClass: 2
Flags: W
LayerCount: 2
UndoRedoHistory
Layer: 1
Undoes
EndUndoes
Redoes
EndRedoes
EndUndoRedoHistory
Fore
SplineSet
392 1008 m 1,0,-1
 391 1168 l 1,1,-1
 391 1271 l 1,2,3
 319 1233 319 1233 239 1203 c 1,4,-1
 240 1333 l 1,5,6
 315 1356 315 1356 408 1412 c 1,7,-1
 513 1427 l 1,8,-1
 513 720 l 1,9,-1
 635 720 l 1,10,-1
 635 604 l 1,11,-1
 270 604 l 1,12,-1
 270 723 l 1,13,-1
 392 723 l 1,14,-1
 392 1008 l 1,0,-1
EndSplineSet
EndChar

StartChar: ordmasculine
Encoding: 186 186 122
Width: 824
GlyphClass: 2
Flags: W
LayerCount: 2
UndoRedoHistory
Layer: 1
Undoes
EndUndoes
Redoes
EndRedoes
EndUndoRedoHistory
Fore
SplineSet
416 767 m 0,0,1
 247 767 247 767 150 862 c 128,-1,2
 53 957 53 957 53 1124 c 0,3,4
 53 1244 53 1244 109 1326.5 c 128,-1,5
 165 1409 165 1409 261 1448 c 0,6,7
 331 1476 331 1476 415 1476 c 0,8,9
 543 1476 543 1476 629 1418.5 c 128,-1,10
 715 1361 715 1361 751 1260 c 0,11,12
 774 1194 774 1194 774 1121 c 0,13,14
 774 1000 774 1000 719 917 c 128,-1,15
 664 834 664 834 570 795 c 0,16,17
 505 767 505 767 416 767 c 0,0,1
251 942.5 m 128,-1,19
 309 875 309 875 414 875 c 128,-1,20
 519 875 519 875 577.5 943 c 128,-1,21
 636 1011 636 1011 636 1121 c 128,-1,22
 636 1231 636 1231 577.5 1300 c 128,-1,23
 519 1369 519 1369 414 1369 c 128,-1,24
 309 1369 309 1369 251 1300.5 c 128,-1,25
 193 1232 193 1232 193 1121 c 128,-1,18
 193 1010 193 1010 251 942.5 c 128,-1,19
EndSplineSet
EndChar

StartChar: guillemotright
Encoding: 187 187 123
Width: 1156
GlyphClass: 2
Flags: W
LayerCount: 2
UndoRedoHistory
Layer: 1
Undoes
EndUndoes
Redoes
EndRedoes
EndUndoRedoHistory
Fore
SplineSet
165 171 m 1,0,-1
 430 542 l 1,1,-1
 172 914 l 1,2,-1
 330 914 l 1,3,-1
 600 542 l 1,4,-1
 325 171 l 1,5,-1
 165 171 l 1,0,-1
563 171 m 1,6,-1
 824 542 l 1,7,-1
 570 914 l 1,8,-1
 726 914 l 1,9,-1
 996 542 l 1,10,-1
 720 171 l 1,11,-1
 563 171 l 1,6,-1
EndSplineSet
EndChar

StartChar: AE
Encoding: 198 198 134
Width: 2028
GlyphClass: 2
Flags: W
LayerCount: 2
UndoRedoHistory
Layer: 1
Undoes
EndUndoes
Redoes
EndRedoes
EndUndoRedoHistory
Fore
SplineSet
5 0 m 1,0,-1
 836 1456 l 1,1,-1
 1878 1456 l 1,2,-1
 1878 1308 l 1,3,-1
 1159 1308 l 1,4,-1
 1197 820 l 1,5,-1
 1837 820 l 1,6,-1
 1837 672 l 1,7,-1
 1216 672 l 1,8,-1
 1257 148 l 1,9,-1
 1901 148 l 1,10,-1
 1901 0 l 1,11,-1
 1104 0 l 1,12,-1
 1073 398 l 1,13,-1
 427 398 l 1,14,-1
 201 0 l 1,15,-1
 5 0 l 1,0,-1
506 546 m 1,16,-1
 1054 546 l 1,17,-1
 994 1308 l 1,18,-1
 944 1308 l 1,19,-1
 506 546 l 1,16,-1
EndSplineSet
EndChar

StartChar: Eth
Encoding: 208 208 144
Width: 1546
GlyphClass: 2
Flags: W
LayerCount: 2
UndoRedoHistory
Layer: 1
Undoes
EndUndoes
Redoes
EndRedoes
EndUndoRedoHistory
Fore
SplineSet
365 148 m 1,0,-1
 626 148 l 2,1,2
 853 148 853 148 1002 235.5 c 128,-1,3
 1151 323 1151 323 1210 490 c 0,4,5
 1248 596 1248 596 1248 721 c 0,6,7
 1248 962 1248 962 1146 1097 c 128,-1,8
 1044 1232 1044 1232 840 1278 c 0,9,10
 705 1308 705 1308 529 1308 c 2,11,-1
 365 1308 l 1,12,-1
 365 795 l 1,13,-1
 571 795 l 1,14,-1
 571 658 l 1,15,-1
 365 658 l 1,16,-1
 365 148 l 1,0,-1
193 0 m 1,17,-1
 193 658 l 1,18,-1
 -1 658 l 1,19,-1
 -1 795 l 1,20,-1
 193 795 l 1,21,-1
 193 1456 l 1,22,-1
 508 1456 l 2,23,24
 677 1456 677 1456 814.5 1433 c 128,-1,25
 952 1410 952 1410 1068.5 1356.5 c 128,-1,26
 1185 1303 1185 1303 1263.5 1219.5 c 128,-1,27
 1342 1136 1342 1136 1386 1011 c 128,-1,28
 1430 886 1430 886 1430 724 c 0,29,30
 1430 461 1430 461 1303 293 c 128,-1,31
 1176 125 1176 125 956 51 c 0,32,33
 803 0 803 0 610 0 c 2,34,-1
 193 0 l 1,17,-1
EndSplineSet
EndChar

StartChar: multiply
Encoding: 215 215 151
Width: 1458
GlyphClass: 2
Flags: W
LayerCount: 2
UndoRedoHistory
Layer: 1
Undoes
EndUndoes
Redoes
EndRedoes
EndUndoRedoHistory
Fore
SplineSet
425 154 m 1,0,-1
 322 257 l 1,1,-1
 618 554 l 1,2,-1
 322 851 l 1,3,-1
 425 954 l 1,4,-1
 722 657 l 1,5,-1
 1018 954 l 1,6,-1
 1122 850 l 1,7,-1
 825 554 l 1,8,-1
 1122 258 l 1,9,-1
 1018 154 l 1,10,-1
 722 450 l 1,11,-1
 425 154 l 1,0,-1
EndSplineSet
EndChar

StartChar: Oslash
Encoding: 216 216 152
Width: 1663
GlyphClass: 2
Flags: W
LayerCount: 2
UndoRedoHistory
Layer: 1
Undoes
EndUndoes
Redoes
EndRedoes
EndUndoRedoHistory
Fore
SplineSet
228.5 1164 m 0,0,1
 354.396882797 1367.12774367 354.396882797 1367.12774367 574 1442.5 c 0,2,3
 692 1483 692 1483 823.358269634 1483 c 128,-1,4
 954.716539269 1483 954.716539269 1483 1063.09804896 1449.9215651 c 1,5,-1
 1001.16349656 1303.19466077 l 1,6,7
 919.503014067 1331 919.503014067 1331 821.751507034 1331 c 128,-1,8
 724 1331 724 1331 629 1292 c 128,-1,9
 534 1253 534 1253 459 1180 c 128,-1,10
 384 1107 384 1107 340 990.5 c 128,-1,11
 296 874 296 874 296 729 c 128,-1,12
 296 584 296 584 340 467.5 c 128,-1,13
 384 351 384 351 459 278 c 0,14,15
 497.257483714 240.762715852 497.257483714 240.762715852 540.719003197 212.372292512 c 1,16,-1
 475.44210591 57.7271599983 l 1,17,18
 326.589633774 136.062016379 326.589633774 136.062016379 228.5 293.5 c 0,19,20
 112 480.487394958 112 480.487394958 112 728.260504202 c 128,-1,21
 112 976.033613445 112 976.033613445 228.5 1164 c 0,0,1
1364 729 m 128,-1,23
 1364 874 1364 874 1320 990.5 c 128,-1,24
 1276 1107 1276 1107 1201 1180 c 0,25,26
 1162.87604127 1217.10731983 1162.87604127 1217.10731983 1119.58430928 1245.42942512 c 1,27,-1
 1185.16407634 1399.95341066 l 1,28,29
 1333.89909364 1321.47373127 1333.89909364 1321.47373127 1431.5 1164 c 0,30,31
 1548 976.033613445 1548 976.033613445 1548 728.260504202 c 128,-1,32
 1548 480.487394958 1548 480.487394958 1431.5 293.5 c 0,33,34
 1305.16093349 90.7204898835 1305.16093349 90.7204898835 1086 15.5 c 0,35,36
 968 -25 968 -25 836.018266938 -25 c 128,-1,37
 704.036533876 -25 704.036533876 -25 594.736368316 8.74318364427 c 1,38,-1
 656.992996545 155.436939228 l 1,39,40
 739.486160689 127 739.486160689 127 837.743080345 127 c 128,-1,41
 936 127 936 127 1031 166 c 128,-1,42
 1126 205 1126 205 1201 278 c 128,-1,43
 1276 351 1276 351 1320 467.5 c 128,-1,22
 1364 584 1364 584 1364 729 c 128,-1,23
656.992996545 155.436939228 m 1,44,45
 595.34734963 176.687348679 595.34734963 176.687348679 540.719003197 212.372292512 c 1,46,-1
 1001.16349656 1303.19466077 l 1,47,48
 1063.98293525 1281.80468425 1063.98293525 1281.80468425 1119.58430928 1245.42942512 c 1,49,-1
 656.992996545 155.436939228 l 1,44,45
1185.16407634 1399.95341066 m 1,50,51
 1128.01190792 1430.10961688 1128.01190792 1430.10961688 1063.09804896 1449.9215651 c 1,52,-1
 1137 1625 l 1,53,-1
 1262 1581 l 1,54,-1
 1185.16407634 1399.95341066 l 1,50,51
475.44210591 57.7271599983 m 1,55,56
 531.319290171 28.3213252061 531.319290171 28.3213252061 594.736368316 8.74318364427 c 1,57,-1
 521 -165 l 1,58,-1
 400 -121 l 1,59,-1
 475.44210591 57.7271599983 l 1,55,56
EndSplineSet
EndChar

StartChar: Thorn
Encoding: 222 222 158
Width: 1274
GlyphClass: 2
Flags: W
LayerCount: 2
UndoRedoHistory
Layer: 1
Undoes
EndUndoes
Redoes
EndRedoes
EndUndoRedoHistory
Fore
SplineSet
203 0 m 1,0,-1
 203 1456 l 1,1,-1
 375 1456 l 1,2,-1
 375 1312 l 1,3,-1
 544 1312 l 2,4,5
 658 1312 658 1312 749.5 1301 c 128,-1,6
 841 1290 841 1290 927.5 1260.5 c 128,-1,7
 1014 1231 1014 1231 1072 1183 c 128,-1,8
 1130 1135 1130 1135 1165 1057 c 128,-1,9
 1200 979 1200 979 1200 876 c 0,10,11
 1200 661 1200 661 1018 546 c 0,12,13
 854 443 854 443 597 443 c 2,14,-1
 375 443 l 1,15,-1
 375 0 l 1,16,-1
 203 0 l 1,0,-1
375 592 m 1,17,-1
 636 592 l 2,18,19
 905 592 905 592 988 747 c 0,20,21
 1016 799 1016 799 1016 871.5 c 0,22,23
 1016 1009.94594595 1016 1009.94594595 935 1080 c 0,24,25
 837.875 1164 837.875 1164 588 1164 c 2,26,-1
 375 1164 l 1,27,-1
 375 592 l 1,17,-1
EndSplineSet
EndChar

StartChar: germandbls
Encoding: 223 223 159
Width: 1257
GlyphClass: 2
Flags: W
LayerCount: 2
UndoRedoHistory
Layer: 1
Undoes
EndUndoes
Redoes
EndRedoes
EndUndoRedoHistory
Fore
SplineSet
340 326 m 1,0,-1
 341 0 l 1,1,-1
 176 0 l 1,2,-1
 174 1071 l 2,3,4
 174 1226 174 1226 238.5 1330 c 0,5,6
 350.754807692 1511 350.754807692 1511 604 1511 c 0,7,8
 742 1511 742 1511 841 1460 c 128,-1,9
 940 1409 940 1409 984 1316 c 0,10,11
 1011 1258 1011 1258 1011 1192 c 0,12,13
 1011 1076 1011 1076 903 968 c 1,14,15
 818 881 818 881 719 838 c 0,16,17
 693 826 693 826 693 816.5 c 128,-1,18
 693 807 693 807 722 798 c 0,19,20
 1029 708 1029 708 1133 514 c 0,21,22
 1173 440 1173 440 1173 341 c 0,23,24
 1173 215 1173 215 1106 129 c 128,-1,25
 1039 43 1039 43 934 3 c 0,26,27
 864 -23 864 -23 792 -23 c 0,28,29
 598 -23 598 -23 471 138 c 1,30,-1
 536 243 l 1,31,32
 653 109 653 109 788 109 c 0,33,34
 879 109 879 109 932.5 168 c 128,-1,35
 986 227 986 227 986 322 c 0,36,37
 986 458 986 458 858 570 c 0,38,39
 784.605603448 635.006465517 784.605603448 635.006465517 619.5 728.5 c 0,40,41
 578 752 578 752 572 756 c 1,42,-1
 588 892 l 1,43,44
 747 964 747 964 804 1095 c 0,45,46
 823 1139 823 1139 823 1191 c 0,47,48
 823 1283 823 1283 762.5 1332.5 c 128,-1,49
 702 1382 702 1382 603 1382 c 0,50,51
 468 1382 468 1382 402.5 1286.5 c 128,-1,52
 337 1191 337 1191 337 1038 c 2,53,-1
 338 711 l 1,54,-1
 340 326 l 1,0,-1
EndSplineSet
EndChar

StartChar: ae
Encoding: 230 230 166
Width: 1807
GlyphClass: 2
Flags: W
LayerCount: 2
UndoRedoHistory
Layer: 1
Undoes
EndUndoes
Redoes
EndRedoes
EndUndoRedoHistory
Fore
SplineSet
942 489 m 1,0,-1
 941 463 l 1,1,2
 941 298 941 298 1014.5 206.5 c 128,-1,3
 1088 115 1088 115 1242 115 c 0,4,5
 1352 115 1352 115 1438 163.5 c 128,-1,6
 1524 212 1524 212 1577 292 c 1,7,-1
 1664 206 l 1,8,9
 1531 -22 1531 -22 1232 -22 c 0,10,11
 1092 -22 1092 -22 989.5 47 c 128,-1,12
 887 116 887 116 853 230 c 1,13,14
 726 -22 726 -22 441 -22 c 0,15,16
 276 -22 276 -22 178.5 59 c 128,-1,17
 81 140 81 140 81 282 c 0,18,19
 81 349 81 349 103 401.5 c 128,-1,20
 125 454 125 454 155.5 487.5 c 128,-1,21
 186 521 186 521 246 544.5 c 128,-1,22
 306 568 306 568 351.5 579.5 c 128,-1,23
 397 591 397 591 495 598 c 0,24,25
 593 605 593 605 679 605 c 2,26,-1
 771 605 l 1,27,-1
 771 628 l 2,28,29
 771 759 771 759 715 833 c 128,-1,30
 659 907 659 907 543.5 907 c 128,-1,31
 428 907 428 907 355.5 872.5 c 128,-1,32
 283 838 283 838 238 763 c 1,33,-1
 148 856 l 1,34,35
 251 1048 251 1048 550 1048 c 0,36,37
 674 1048 674 1048 759.5 983.5 c 128,-1,38
 845 919 845 919 877 806 c 1,39,40
 920 910 920 910 1024 979 c 128,-1,41
 1128 1048 1128 1048 1251 1048 c 0,42,43
 1467 1048 1467 1048 1582 908.5 c 128,-1,44
 1697 769 1697 769 1697 524 c 2,45,-1
 1697 489 l 1,46,-1
 942 489 l 1,0,-1
464 115 m 0,47,48
 622 115 622 115 697.5 216 c 128,-1,49
 773 317 773 317 773 489 c 1,50,-1
 627 486 l 2,51,52
 444.058491896 482.548273432 444.058491896 482.548273432 366.15902492 448.991579966 c 0,53,54
 288.259557945 415.434886499 288.259557945 415.434886499 264.5 363 c 0,55,56
 250 331 250 331 250 290 c 0,57,58
 250 115 250 115 464 115 c 0,47,48
943 606 m 1,59,-1
 1534 606 l 1,60,61
 1505 907 1505 907 1250 907 c 0,62,63
 1112 907 1112 907 1032.5 819.5 c 128,-1,64
 953 732 953 732 943 606 c 1,59,-1
EndSplineSet
EndChar

StartChar: eth
Encoding: 240 240 176
Width: 1190
GlyphClass: 2
Flags: W
LayerCount: 2
UndoRedoHistory
Layer: 1
Undoes
EndUndoes
Redoes
EndRedoes
EndUndoRedoHistory
Fore
SplineSet
581 -23 m 0,0,1
 411 -23 411 -23 292.5 53.5 c 128,-1,2
 174 130 174 130 122 261 c 0,3,4
 88 345 88 345 88 446 c 0,5,6
 88 602 88 602 160.5 708.5 c 128,-1,7
 233 815 233 815 356 864 c 0,8,9
 440 897 440 897 545 897 c 0,10,11
 809 897 809 897 918 723 c 1,12,-1
 918 733 l 1,13,14
 917 898 917 898 882 1026 c 1,15,-1
 620 1026 l 1,16,-1
 620 1163 l 1,17,-1
 826 1163 l 1,18,19
 744 1310 744 1310 574 1406 c 1,20,-1
 653 1490 l 1,21,22
 878 1402 878 1402 993 1163 c 1,23,-1
 1190 1163 l 1,24,-1
 1190 1026 l 1,25,-1
 1045 1026 l 1,26,27
 1093 858 1093 858 1093 672 c 0,28,29
 1093 429 1093 429 1021 261.5 c 128,-1,30
 949 94 949 94 798 22 c 0,31,32
 702 -23 702 -23 581 -23 c 0,0,1
573 118 m 0,33,34
 735 118 735 118 819 227.5 c 128,-1,35
 903 337 903 337 903 512 c 2,36,-1
 903 536 l 1,37,38
 869 636 869 636 782.5 696.5 c 128,-1,39
 696 757 696 757 572 757 c 0,40,41
 424 757 424 757 344 673.5 c 128,-1,42
 264 590 264 590 264 441 c 0,43,44
 264 332 264 332 313.5 255 c 128,-1,45
 363 178 363 178 446 142 c 0,46,47
 503 118 503 118 573 118 c 0,33,34
EndSplineSet
EndChar

StartChar: divide
Encoding: 247 247 183
Width: 1458
GlyphClass: 2
Flags: W
LayerCount: 2
UndoRedoHistory
Layer: 1
Undoes
EndUndoes
Redoes
EndRedoes
EndUndoRedoHistory
Fore
SplineSet
619 21 m 1,0,-1
 619 231 l 1,1,-1
 836 231 l 1,2,-1
 836 21 l 1,3,-1
 619 21 l 1,0,-1
198 485 m 1,4,-1
 198 624 l 1,5,-1
 1246 624 l 1,6,-1
 1246 485 l 1,7,-1
 198 485 l 1,4,-1
619 873 m 1,8,-1
 619 1083 l 1,9,-1
 836 1083 l 1,10,-1
 836 873 l 1,11,-1
 619 873 l 1,8,-1
EndSplineSet
EndChar

StartChar: oslash
Encoding: 248 248 184
Width: 1238
GlyphClass: 2
Flags: W
LayerCount: 2
UndoRedoHistory
Layer: 1
Undoes
EndUndoes
Redoes
EndRedoes
EndUndoRedoHistory
Fore
SplineSet
237.5 124.5 m 0,0,1
 92 271 92 271 92 511.5 c 128,-1,2
 92 752 92 752 237.5 900 c 128,-1,3
 383 1048 383 1048 621 1048 c 0,4,5
 706.021191036 1048 706.021191036 1048 779.000164433 1028.75863051 c 1,6,-1
 722.105509667 894.247876859 l 1,7,8
 675.166835816 907 675.166835816 907 621 907 c 0,9,10
 460 907 460 907 361 797.5 c 128,-1,11
 262 688 262 688 262 510 c 128,-1,12
 262 332 262 332 361 224 c 0,13,14
 387.138922073 195.484812284 387.138922073 195.484812284 417.669674017 174.498475776 c 1,15,-1
 358.940303765 35.6500745214 l 1,16,17
 291.726623355 69.9006850757 291.726623355 69.9006850757 237.5 124.5 c 0,0,1
876 224.5 m 128,-1,19
 972 333 972 333 972 511.5 c 128,-1,20
 972 690 972 690 875.5 798.5 c 0,21,22
 849.320227577 827.935288165 849.320227577 827.935288165 818.614062524 849.384989331 c 1,23,-1
 878.728674192 990.62150286 l 1,24,25
 945.341235614 956.159708844 945.341235614 956.159708844 999 901 c 0,26,27
 1142 754 1142 754 1142 513 c 128,-1,28
 1142 272 1142 272 999 125 c 128,-1,29
 856 -22 856 -22 622 -22 c 0,30,31
 532.688275245 -22 532.688275245 -22 456.433230532 -1.54220720591 c 1,32,-1
 512.538150858 130.27372105 l 1,33,34
 563.10590679 116 563.10590679 116 622 116 c 0,35,18
 780 116 780 116 876 224.5 c 128,-1,19
722.105509667 894.247876859 m 1,36,37
 774.938539863 879.894397058 774.938539863 879.894397058 818.614062524 849.384989331 c 1,38,-1
 512.538150858 130.27372105 l 1,39,40
 460.734810588 144.896209528 460.734810588 144.896209528 417.669674017 174.498475776 c 1,41,-1
 722.105509667 894.247876859 l 1,36,37
779.000164433 1028.75863051 m 1,42,-1
 884 1277 l 1,43,-1
 987 1245 l 1,44,-1
 878.728674192 990.62150286 l 1,45,46
 832.045505775 1014.77288962 832.045505775 1014.77288962 779.000164433 1028.75863051 c 1,42,-1
358.940303765 35.6500745214 m 1,47,48
 404.679680855 12.3422957754 404.679680855 12.3422957754 456.433230532 -1.54220720591 c 1,49,-1
 346 -261 l 1,50,-1
 247 -229 l 1,51,-1
 358.940303765 35.6500745214 l 1,47,48
EndSplineSet
EndChar

StartChar: thorn
Encoding: 254 254 190
Width: 1239
GlyphClass: 2
Flags: W
LayerCount: 2
UndoRedoHistory
Layer: 1
Undoes
EndUndoes
Redoes
EndRedoes
EndUndoRedoHistory
Fore
SplineSet
158 -427 m 1,0,-1
 158 1455 l 1,1,-1
 325 1455 l 1,2,-1
 325 882 l 1,3,4
 450 1051 450 1051 668 1051 c 0,5,6
 843 1051 843 1051 954.5 964 c 128,-1,7
 1066 877 1066 877 1110 728 c 0,8,9
 1139 630 1139 630 1139 527 c 0,10,11
 1139 348 1139 348 1068.5 217 c 128,-1,12
 998 86 998 86 874 22 c 0,13,14
 786 -23 786 -23 668 -23 c 0,15,16
 452 -23 452 -23 323 135 c 1,17,-1
 323 -427 l 1,18,-1
 158 -427 l 1,0,-1
506 138 m 0,19,20
 567 109 567 109 646.5 109 c 128,-1,21
 726 109 726 109 788.5 141.5 c 128,-1,22
 851 174 851 174 888.5 231 c 0,23,24
 963 344.24 963 344.24 963 522.62 c 128,-1,25
 963 701 963 701 886.5 809 c 128,-1,26
 810 917 810 917 650 917 c 0,27,28
 563 917 563 917 498.5 885 c 128,-1,29
 434 853 434 853 396.5 794.5 c 0,30,31
 323 679.84 323 679.84 323 494 c 0,32,33
 323 365 323 365 370.5 273 c 128,-1,34
 418 181 418 181 506 138 c 0,19,20
EndSplineSet
EndChar

StartChar: Delta
Encoding: 916 916 197
Width: 1314
GlyphClass: 2
Flags: W
LayerCount: 2
UndoRedoHistory
Layer: 1
Undoes
EndUndoes
Redoes
EndRedoes
EndUndoRedoHistory
Fore
SplineSet
40 0 m 1,0,-1
 40 80 l 1,1,-1
 561 1429 l 1,2,-1
 743 1429 l 1,3,-1
 1263 80 l 1,4,-1
 1263 0 l 1,5,-1
 40 0 l 1,0,-1
269 162 m 1,6,-1
 1033 162 l 1,7,-1
 681 1111 l 1,8,-1
 647 1218 l 1,9,-1
 615 1111 l 1,10,-1
 269 162 l 1,6,-1
EndSplineSet
EndChar

StartChar: Euro
Encoding: 8364 8364 200
Width: 1190
GlyphClass: 2
Flags: W
LayerCount: 2
UndoRedoHistory
Layer: 1
Undoes
EndUndoes
Redoes
EndRedoes
EndUndoRedoHistory
Fore
SplineSet
751 -21 m 0,0,1
 625 -21 625 -21 527.5 19 c 128,-1,2
 430 59 430 59 366.5 133 c 0,3,4
 243.159388816 276.735515396 243.159388816 276.735515396 213 516 c 1,5,-1
 78 516 l 1,6,-1
 98 654 l 1,7,-1
 200 654 l 1,8,9
 197 681 197 681 197 709.5 c 128,-1,10
 197 738 197 738 199 784 c 1,11,-1
 75 784 l 1,12,-1
 97 922 l 1,13,-1
 218 922 l 1,14,15
 250 1099 250 1099 338.5 1225 c 128,-1,16
 427 1351 427 1351 569 1409 c 0,17,18
 664 1448 664 1448 783 1448 c 0,19,20
 982 1448 982 1448 1106 1330 c 1,21,-1
 1070 1141 l 1,22,23
 961 1303 961 1303 776 1303 c 0,24,25
 691 1303 691 1303 624 1271.5 c 128,-1,26
 557 1240 557 1240 512.5 1184 c 0,27,28
 429.276697102 1079.26955141 429.276697102 1079.26955141 395 922 c 1,29,-1
 987 922 l 1,30,-1
 967 784 l 1,31,-1
 377 784 l 1,32,33
 375 778 375 778 375 773 c 2,34,-1
 375 761 l 2,35,36
 374.666666667 754 374.666666667 754 374.666666667 740.666666667 c 128,-1,37
 374.666666667 727.333333333 374.666666667 727.333333333 376 702 c 2,38,-1
 378 654 l 1,39,-1
 953 654 l 1,40,-1
 934 516 l 1,41,-1
 392 516 l 1,42,43
 446 125 446 125 767 125 c 0,44,45
 858 125 858 125 931.5 158.5 c 128,-1,46
 1005 192 1005 192 1084 253 c 1,47,-1
 1083 75 l 1,48,49
 943 -21 943 -21 751 -21 c 0,0,1
EndSplineSet
EndChar

StartChar: J.alt
Encoding: 65538 -1 206
Width: 939
GlyphClass: 2
Flags: W
LayerCount: 2
UndoRedoHistory
Layer: 1
Undoes
EndUndoes
Redoes
EndRedoes
EndUndoRedoHistory
Fore
SplineSet
321 -23 m 0,0,1
 175 -23 175 -23 71 81 c 1,2,-1
 122 197 l 1,3,4
 217 125 217 125 326 125 c 0,5,6
 483.548387097 125 483.548387097 125 547.5 277.5 c 0,7,8
 583 362.153846154 583 362.153846154 583 488 c 2,9,-1
 583 1456 l 1,10,-1
 755 1456 l 1,11,-1
 755 499 l 2,12,13
 755 315 755 315 691 189.5 c 128,-1,14
 627 64 627 64 502 11 c 0,15,16
 422 -23 422 -23 321 -23 c 0,0,1
EndSplineSet
EndChar

StartChar: Lslash
Encoding: 321 321 209
Width: 1120
GlyphClass: 2
Flags: W
LayerCount: 2
UndoRedoHistory
Layer: 1
Undoes
EndUndoes
Redoes
EndRedoes
EndUndoRedoHistory
Fore
SplineSet
202 0 m 1,0,-1
 202 605 l 1,1,-1
 15 489 l 1,2,-1
 15 626 l 1,3,-1
 202 742 l 1,4,-1
 202 1456 l 1,5,-1
 374 1456 l 1,6,-1
 374 849 l 1,7,-1
 659 1027 l 1,8,-1
 659 890 l 1,9,-1
 374 712 l 1,10,-1
 374 148 l 1,11,-1
 1073 148 l 1,12,-1
 1073 0 l 1,13,-1
 202 0 l 1,0,-1
EndSplineSet
EndChar

StartChar: OE
Encoding: 338 338 211
Width: 2099
GlyphClass: 2
Flags: W
LayerCount: 2
UndoRedoHistory
Layer: 1
Undoes
EndUndoes
Redoes
EndRedoes
EndUndoRedoHistory
Fore
SplineSet
1151 105 m 1,0,1
 1009 -23 1009 -23 831.5 -23 c 128,-1,2
 654 -23 654 -23 517 32 c 128,-1,3
 380 87 380 87 292 187.5 c 0,4,5
 114 390.784090909 114 390.784090909 114 737.392045455 c 128,-1,6
 114 1084 114 1084 310 1283.5 c 128,-1,7
 506 1483 506 1483 837 1483 c 0,8,9
 1007 1483 1007 1483 1151 1381 c 1,10,-1
 1151 1456 l 1,11,-1
 1954 1456 l 1,12,-1
 1954 1308 l 1,13,-1
 1323 1308 l 1,14,-1
 1323 820 l 1,15,-1
 1916 820 l 1,16,-1
 1916 672 l 1,17,-1
 1323 672 l 1,18,-1
 1323 148 l 1,19,-1
 1984 148 l 1,20,-1
 1984 0 l 1,21,-1
 1151 0 l 1,22,-1
 1151 105 l 1,0,1
827 125 m 0,23,24
 1016 125 1016 125 1151 265 c 1,25,-1
 1151 1219 l 1,26,27
 1018 1335 1018 1335 830 1335 c 0,28,29
 697 1335 697 1335 594.5 1290 c 128,-1,30
 492 1245 492 1245 427.5 1163.5 c 0,31,32
 298 999.868217054 298 999.868217054 298 722.934108527 c 128,-1,33
 298 446 298 446 437.5 285.5 c 128,-1,34
 577 125 577 125 827 125 c 0,23,24
EndSplineSet
EndChar

StartChar: a.alt
Encoding: 65539 -1 222
Width: 1219
GlyphClass: 2
Flags: W
LayerCount: 2
UndoRedoHistory
Layer: 1
Undoes
EndUndoes
Redoes
EndRedoes
EndUndoRedoHistory
Fore
SplineSet
553 -23 m 0,0,1
 349 -23 349 -23 218.5 122 c 128,-1,2
 88 267 88 267 88 494 c 0,3,4
 88 757 88 757 227.5 904.5 c 128,-1,5
 367 1052 367 1052 614 1052 c 0,6,7
 1066 1052 1066 1052 1066 519 c 2,8,-1
 1066 286 l 2,9,10
 1066 208 1066 208 1104 173.5 c 128,-1,11
 1142 139 1142 139 1191 139 c 1,12,-1
 1157 -4 l 1,13,14
 1082 -4 1082 -4 1013 39.5 c 128,-1,15
 944 83 944 83 925 166 c 1,16,17
 810 -23 810 -23 553 -23 c 0,0,1
572 117 m 0,18,19
 759 117 759 117 833 227 c 0,20,21
 870 282 870 282 886 353.5 c 128,-1,22
 902 425 902 425 902 524 c 0,23,24
 902 734 902 734 830.5 823.5 c 128,-1,25
 759 913 759 913 617 913 c 0,26,27
 447 913 447 913 351 805 c 128,-1,28
 255 697 255 697 255 504 c 0,29,30
 255 335 255 335 344 226 c 128,-1,31
 433 117 433 117 572 117 c 0,18,19
EndSplineSet
EndChar

StartChar: approxequal
Encoding: 8776 8776 226
Width: 1351
GlyphClass: 2
Flags: W
LayerCount: 2
UndoRedoHistory
Layer: 1
Undoes
EndUndoes
Redoes
EndRedoes
EndUndoRedoHistory
Fore
SplineSet
268 261 m 1,0,-1
 154 289 l 1,1,2
 182 405 182 405 257 475.5 c 128,-1,3
 332 546 332 546 452 546 c 0,4,5
 497 546 497 546 547.5 531.5 c 128,-1,6
 598 517 598 517 627.5 502.5 c 128,-1,7
 657 488 657 488 708 460 c 128,-1,8
 759 432 759 432 810.5 406 c 128,-1,9
 862 380 862 380 904 380 c 0,10,11
 972 380 972 380 1010 424.5 c 128,-1,12
 1048 469 1048 469 1077 546 c 1,13,-1
 1187 518 l 1,14,15
 1128 262 1128 262 898 262 c 0,16,17
 815 262 815 262 707 317 c 0,18,19
 703 319 703 319 635 356.5 c 128,-1,20
 567 394 567 394 529.5 410 c 128,-1,21
 492 426 492 426 449 426 c 0,22,23
 317 426 317 426 268 261 c 1,0,-1
267 634 m 1,24,-1
 152 661 l 1,25,26
 178 778 178 778 253 847.5 c 128,-1,27
 328 917 328 917 450 917 c 0,28,29
 515 917 515 917 578.5 892 c 128,-1,30
 642 867 642 867 711 826.5 c 128,-1,31
 780 786 780 786 821.5 769 c 128,-1,32
 863 752 863 752 902 752 c 0,33,34
 971 752 971 752 1009.5 796 c 128,-1,35
 1048 840 1048 840 1075 918 c 1,36,-1
 1185 890 l 1,37,38
 1161 773 1161 773 1090 703.5 c 128,-1,39
 1019 634 1019 634 896 634 c 0,40,41
 813.2 634 813.2 634 723.5 679.5 c 0,42,43
 689 697 689 697 625.5 732 c 128,-1,44
 562 767 562 767 526 783 c 128,-1,45
 490 799 490 799 446 799 c 0,46,47
 316 799 316 799 267 634 c 1,24,-1
EndSplineSet
EndChar

StartChar: breve
Encoding: 728 728 227
Width: 629
GlyphClass: 2
Flags: W
LayerCount: 2
UndoRedoHistory
Layer: 1
Undoes
EndUndoes
Redoes
EndRedoes
EndUndoRedoHistory
Fore
SplineSet
316 1218 m 0,0,1
 51 1218 51 1218 32 1454 c 1,2,-1
 119 1454 l 1,3,4
 130 1390 130 1390 180 1357.5 c 128,-1,5
 230 1325 230 1325 308.5 1325 c 0,6,7
 387 1325 387 1325 441 1358.5 c 128,-1,8
 495 1392 495 1392 510 1454 c 1,9,-1
 596 1454 l 1,10,11
 586 1339 586 1339 513.5 1278.5 c 128,-1,12
 441 1218 441 1218 316 1218 c 0,0,1
EndSplineSet
EndChar

StartChar: bullet
Encoding: 8226 8226 228
Width: 989
GlyphClass: 2
Flags: W
LayerCount: 2
UndoRedoHistory
Layer: 1
Undoes
EndUndoes
Redoes
EndRedoes
EndUndoRedoHistory
Fore
SplineSet
493 385 m 0,0,1
 383 385 383 385 302.5 438 c 128,-1,2
 222 491 222 491 183 575 c 0,3,4
 157 632 157 632 157 694 c 0,5,6
 157 798 157 798 217.5 873.5 c 128,-1,7
 278 949 278 949 368 985 c 0,8,9
 428 1010 428 1010 498 1010 c 0,10,11
 607 1010 607 1010 687 957 c 128,-1,12
 767 904 767 904 806 820 c 0,13,14
 833 763 833 763 833 701 c 0,15,16
 833 572 833 572 733.5 478.5 c 0,17,18
 634 385 634 385 493 385 c 0,0,1
EndSplineSet
EndChar

StartChar: caron
Encoding: 711 711 230
Width: 699
GlyphClass: 2
Flags: W
LayerCount: 2
UndoRedoHistory
Layer: 1
Undoes
EndUndoes
Redoes
EndRedoes
EndUndoRedoHistory
Fore
SplineSet
268 1170 m 1,0,-1
 29 1493 l 1,1,-1
 176 1493 l 1,2,-1
 340 1278 l 1,3,-1
 508 1493 l 1,4,-1
 662 1493 l 1,5,-1
 424 1170 l 1,6,-1
 268 1170 l 1,0,-1
EndSplineSet
EndChar

StartChar: circumflex
Encoding: 710 710 232
Width: 699
GlyphClass: 2
Flags: W
LayerCount: 2
UndoRedoHistory
Layer: 1
Undoes
EndUndoes
Redoes
EndRedoes
EndUndoRedoHistory
Fore
SplineSet
35 1170 m 1,0,-1
 263 1494 l 1,1,-1
 420 1494 l 1,2,-1
 649 1170 l 1,3,-1
 517 1170 l 1,4,-1
 339 1386 l 1,5,-1
 161 1170 l 1,6,-1
 35 1170 l 1,0,-1
EndSplineSet
EndChar

StartChar: commaaccentcomb
Encoding: 806 806 233
Width: 540
GlyphClass: 2
Flags: W
LayerCount: 2
UndoRedoHistory
Layer: 1
Undoes
EndUndoes
Redoes
EndRedoes
EndUndoRedoHistory
Fore
SplineSet
78 -625 m 1,0,-1
 185 -162 l 1,1,-1
 372 -162 l 1,2,-1
 209 -625 l 1,3,-1
 78 -625 l 1,0,-1
EndSplineSet
EndChar

StartChar: dagger
Encoding: 8224 8224 234
Width: 1022
GlyphClass: 2
Flags: W
LayerCount: 2
UndoRedoHistory
Layer: 1
Undoes
EndUndoes
Redoes
EndRedoes
EndUndoRedoHistory
Fore
SplineSet
433 113 m 1,0,-1
 433 934 l 1,1,-1
 107 934 l 1,2,-1
 107 1066 l 1,3,-1
 433 1066 l 1,4,-1
 433 1451 l 1,5,-1
 575 1451 l 1,6,-1
 575 1066 l 1,7,-1
 919 1066 l 1,8,-1
 919 934 l 1,9,-1
 561 934 l 1,10,-1
 561 113 l 1,11,-1
 433 113 l 1,0,-1
EndSplineSet
EndChar

StartChar: daggerdbl
Encoding: 8225 8225 235
Width: 1022
GlyphClass: 2
Flags: W
LayerCount: 2
UndoRedoHistory
Layer: 1
Undoes
EndUndoes
Redoes
EndRedoes
EndUndoRedoHistory
Fore
SplineSet
420 113 m 1,0,-1
 442 435 l 1,1,-1
 98 435 l 1,2,-1
 98 562 l 1,3,-1
 442 562 l 1,4,-1
 442 983 l 1,5,-1
 104 983 l 1,6,-1
 104 1115 l 1,7,-1
 448 1115 l 1,8,-1
 422 1451 l 1,9,-1
 593 1451 l 1,10,-1
 572 1115 l 1,11,-1
 916 1115 l 1,12,-1
 916 983 l 1,13,-1
 565 983 l 1,14,-1
 565 562 l 1,15,-1
 909 562 l 1,16,-1
 909 435 l 1,17,-1
 565 435 l 1,18,-1
 591 113 l 1,19,-1
 420 113 l 1,0,-1
EndSplineSet
EndChar

StartChar: dblgravecmb
Encoding: 783 783 236
Width: 969
GlyphClass: 2
Flags: W
LayerCount: 2
UndoRedoHistory
Layer: 1
Undoes
EndUndoes
Redoes
EndRedoes
EndUndoRedoHistory
Fore
SplineSet
438 1174 m 1,0,-1
 162 1487 l 1,1,-1
 338 1487 l 1,2,-1
 558 1174 l 1,3,-1
 438 1174 l 1,0,-1
707 1174 m 1,4,-1
 432 1487 l 1,5,-1
 608 1487 l 1,6,-1
 825 1174 l 1,7,-1
 707 1174 l 1,4,-1
EndSplineSet
EndChar

StartChar: dotaccent
Encoding: 729 729 237
Width: 524
GlyphClass: 2
Flags: W
LayerCount: 2
UndoRedoHistory
Layer: 1
Undoes
EndUndoes
Redoes
EndRedoes
EndUndoRedoHistory
Fore
SplineSet
184 1246 m 1,0,-1
 184 1409 l 1,1,-1
 344 1409 l 1,2,-1
 344 1246 l 1,3,-1
 184 1246 l 1,0,-1
EndSplineSet
EndChar

StartChar: dotlessi
Encoding: 305 305 238
Width: 503
GlyphClass: 2
Flags: W
LayerCount: 2
UndoRedoHistory
Layer: 1
Undoes
EndUndoes
Redoes
EndRedoes
EndUndoRedoHistory
Fore
SplineSet
600 30 m 1,0,1
 512 -5 512 -5 445 -5 c 128,-1,2
 378 -5 378 -5 332 10 c 128,-1,3
 286 25 286 25 248 57 c 128,-1,4
 210 89 210 89 188.5 145.5 c 128,-1,5
 167 202 167 202 167 278 c 2,6,-1
 167 1026 l 1,7,-1
 332 1026 l 1,8,-1
 332 283 l 2,9,10
 332 187 332 187 365 152.5 c 128,-1,11
 398 118 398 118 458 118 c 128,-1,12
 518 118 518 118 580 141 c 1,13,-1
 600 30 l 1,0,1
EndSplineSet
EndChar

StartChar: e.alt
Encoding: 65540 -1 239
Width: 1073
GlyphClass: 2
Flags: W
LayerCount: 2
UndoRedoHistory
Layer: 1
Undoes
EndUndoes
Redoes
EndRedoes
EndUndoRedoHistory
Fore
SplineSet
589 -19 m 0,0,1
 489 -19 489 -19 400 17.5 c 128,-1,2
 311 54 311 54 242.5 120.5 c 128,-1,3
 174 187 174 187 134 289.5 c 128,-1,4
 94 392 94 392 94 527.5 c 128,-1,5
 94 663 94 663 150 784 c 128,-1,6
 206 905 206 905 321 980.5 c 128,-1,7
 436 1056 436 1056 593 1056 c 128,-1,8
 750 1056 750 1056 848 968 c 128,-1,9
 946 880 946 880 946 754.5 c 0,10,11
 946 629 946 629 854.613214939 553.859754505 c 0,12,13
 763.226429877 478.71950901 763.226429877 478.71950901 622.788031565 439.360976999 c 0,14,15
 482.349633252 400.002444988 482.349633252 400.002444988 289 371 c 1,16,17
 321 244 321 244 404 183.5 c 128,-1,18
 487 123 487 123 592 123 c 128,-1,19
 697 123 697 123 784.5 165 c 128,-1,20
 872 207 872 207 930 276 c 1,21,-1
 1013 170 l 1,22,23
 833 -19 833 -19 589 -19 c 0,0,1
277 490 m 1,24,25
 578.061245497 534.838908904 578.061245497 534.838908904 688.5 605 c 0,26,27
 783 665.035294118 783 665.035294118 783 755 c 0,28,29
 783 825 783 825 732.5 869 c 128,-1,30
 682 913 682 913 593 913 c 0,31,32
 448 913 448 913 361 803 c 128,-1,33
 274 693 274 693 274 539 c 0,34,35
 274 516 274 516 277 490 c 1,24,25
EndSplineSet
EndChar

StartChar: ellipsis
Encoding: 8230 8230 240
Width: 1620
GlyphClass: 2
Flags: W
LayerCount: 2
UndoRedoHistory
Layer: 1
Undoes
EndUndoes
Redoes
EndRedoes
EndUndoRedoHistory
Fore
SplineSet
159 -11 m 1,0,-1
 159 199 l 1,1,-1
 376 199 l 1,2,-1
 376 -11 l 1,3,-1
 159 -11 l 1,0,-1
699 -11 m 1,4,-1
 699 199 l 1,5,-1
 916 199 l 1,6,-1
 916 -11 l 1,7,-1
 699 -11 l 1,4,-1
1239 -11 m 1,8,-1
 1239 199 l 1,9,-1
 1456 199 l 1,10,-1
 1456 -11 l 1,11,-1
 1239 -11 l 1,8,-1
EndSplineSet
EndChar

StartChar: emdash
Encoding: 8212 8212 242
Width: 2171
GlyphClass: 2
Flags: W
LayerCount: 2
UndoRedoHistory
Layer: 1
Undoes
EndUndoes
Redoes
EndRedoes
EndUndoRedoHistory
Fore
SplineSet
-3 489 m 1,0,-1
 -3 626 l 1,1,-1
 2160 626 l 1,2,-1
 2160 489 l 1,3,-1
 -3 489 l 1,0,-1
EndSplineSet
EndChar

StartChar: endash
Encoding: 8211 8211 243
Width: 1085
GlyphClass: 2
Flags: W
LayerCount: 2
UndoRedoHistory
Layer: 1
Undoes
EndUndoes
Redoes
EndRedoes
EndUndoRedoHistory
Fore
SplineSet
-6 489 m 1,0,-1
 -6 626 l 1,1,-1
 1084 626 l 1,2,-1
 1084 489 l 1,3,-1
 -6 489 l 1,0,-1
EndSplineSet
EndChar

StartChar: florin
Encoding: 402 402 245
Width: 1190
GlyphClass: 2
Flags: W
LayerCount: 2
UndoRedoHistory
Layer: 1
Undoes
EndUndoes
Redoes
EndRedoes
EndUndoRedoHistory
Fore
SplineSet
177 -332 m 0,0,1
 128 -332 128 -332 73 -316 c 1,2,-1
 85 -178 l 1,3,4
 124 -194 124 -194 163.5 -194 c 0,5,6
 243.538461538 -194 243.538461538 -194 283 -126.5 c 0,7,8
 314.63876652 -72.3810572687 314.63876652 -72.3810572687 338.31938326 23.3094713656 c 128,-1,9
 362 119 362 119 387.5 252 c 128,-1,10
 413 385 413 385 441.5 549.5 c 128,-1,11
 470 714 470 714 487 803 c 1,12,-1
 332 803 l 1,13,-1
 342 943 l 1,14,-1
 511 943 l 1,15,-1
 534 1094 l 1,16,17
 553.607476636 1244.97757009 553.607476636 1244.97757009 628.225613318 1340.48878505 c 128,-1,18
 702.84375 1436 702.84375 1436 865 1436 c 0,19,20
 932 1436 932 1436 1008 1417 c 1,21,-1
 1000 1272 l 1,22,23
 944 1294 944 1294 891 1294 c 0,24,25
 809 1294 809 1294 771 1255.5 c 128,-1,26
 733 1217 733 1217 718 1139 c 2,27,-1
 682 943 l 1,28,-1
 882 943 l 1,29,-1
 872 803 l 1,30,-1
 659 803 l 1,31,-1
 532 120 l 2,32,33
 497.205111402 -69.7903014417 497.205111402 -69.7903014417 448.929683361 -161.389831572 c 128,-1,34
 400.654255319 -252.989361702 400.654255319 -252.989361702 330 -295 c 1,35,36
 271 -332 271 -332 177 -332 c 0,0,1
EndSplineSet
EndChar

StartChar: fraction
Encoding: 8260 8260 246
Width: 368
GlyphClass: 2
Flags: W
LayerCount: 2
UndoRedoHistory
Layer: 1
Undoes
EndUndoes
Redoes
EndRedoes
EndUndoRedoHistory
Fore
SplineSet
-337 0 m 1,0,-1
 568 1436 l 1,1,-1
 717 1436 l 1,2,-1
 -186 0 l 1,3,-1
 -337 0 l 1,0,-1
EndSplineSet
EndChar

StartChar: greaterequal
Encoding: 8805 8805 248
Width: 1350
GlyphClass: 2
Flags: W
LayerCount: 2
UndoRedoHistory
Layer: 1
Undoes
EndUndoes
Redoes
EndRedoes
EndUndoRedoHistory
Fore
SplineSet
192 218 m 1,0,-1
 192 359 l 1,1,-1
 974 707 l 1,2,-1
 196 1081 l 1,3,-1
 196 1221 l 1,4,-1
 1152 748 l 1,5,-1
 1152 668 l 1,6,-1
 192 218 l 1,0,-1
161 9 m 1,7,-1
 161 131 l 1,8,-1
 1171 131 l 1,9,-1
 1171 9 l 1,10,-1
 161 9 l 1,7,-1
EndSplineSet
EndChar

StartChar: guilsinglleft
Encoding: 8249 8249 249
Width: 642
GlyphClass: 2
Flags: W
LayerCount: 2
UndoRedoHistory
Layer: 1
Undoes
EndUndoes
Redoes
EndRedoes
EndUndoRedoHistory
Fore
SplineSet
374 171 m 1,0,-1
 105 541 l 1,1,-1
 379 914 l 1,2,-1
 538 914 l 1,3,-1
 275 541 l 1,4,-1
 530 171 l 1,5,-1
 374 171 l 1,0,-1
EndSplineSet
EndChar

StartChar: guilsinglright
Encoding: 8250 8250 250
Width: 642
GlyphClass: 2
Flags: W
LayerCount: 2
UndoRedoHistory
Layer: 1
Undoes
EndUndoes
Redoes
EndRedoes
EndUndoRedoHistory
Fore
SplineSet
103 171 m 1,0,-1
 365 542 l 1,1,-1
 111 914 l 1,2,-1
 266 914 l 1,3,-1
 537 542 l 1,4,-1
 260 171 l 1,5,-1
 103 171 l 1,0,-1
EndSplineSet
EndChar

StartChar: hungarumlaut
Encoding: 733 733 252
Width: 969
GlyphClass: 2
Flags: W
LayerCount: 2
UndoRedoHistory
Layer: 1
Undoes
EndUndoes
Redoes
EndRedoes
EndUndoRedoHistory
Fore
SplineSet
162 1174 m 1,0,-1
 379 1487 l 1,1,-1
 555 1487 l 1,2,-1
 280 1174 l 1,3,-1
 162 1174 l 1,0,-1
429 1174 m 1,4,-1
 649 1487 l 1,5,-1
 825 1487 l 1,6,-1
 549 1174 l 1,7,-1
 429 1174 l 1,4,-1
EndSplineSet
EndChar

StartChar: infinity
Encoding: 8734 8734 255
Width: 1724
GlyphClass: 2
Flags: W
LayerCount: 2
UndoRedoHistory
Layer: 1
Undoes
EndUndoes
Redoes
EndRedoes
EndUndoRedoHistory
Fore
SplineSet
460 236 m 0,0,1
 335 236 335 236 248.5 300 c 128,-1,2
 162 364 162 364 122 467 c 0,3,4
 96 532 96 532 96 612 c 0,5,6
 96 750 96 750 203 847 c 128,-1,7
 310 944 310 944 455 944 c 0,8,9
 554 944 554 944 629.5 904 c 0,10,11
 748.317573931 841.050291957 748.317573931 841.050291957 862 692 c 1,12,13
 930 781 930 781 994.5 839 c 0,14,15
 1111.26724138 944 1111.26724138 944 1262 944 c 0,16,17
 1387 944 1387 944 1472.5 888 c 128,-1,18
 1558 832 1558 832 1596 735 c 0,19,20
 1621 672 1621 672 1621 595 c 0,21,22
 1621 473 1621 473 1559 387 c 128,-1,23
 1497 301 1497 301 1398 262 c 0,24,25
 1331 236 1331 236 1260 236 c 0,26,27
 1148 236 1148 236 1053 299.5 c 128,-1,28
 958 363 958 363 860 488 c 1,29,30
 793 402 793 402 726 342.5 c 128,-1,31
 659 283 659 283 574 254 c 0,32,33
 520 236 520 236 460 236 c 0,0,1
463 355 m 0,34,35
 552 355 552 355 640 424 c 0,36,37
 709 477 709 477 791 589 c 1,38,39
 735 671 735 671 679.5 726 c 128,-1,40
 624 781 624 781 563.5 805 c 128,-1,41
 503 829 503 829 453 829 c 0,42,43
 373 829 373 829 319.5 789 c 128,-1,44
 266 749 266 749 246 693 c 128,-1,45
 226 637 226 637 226 592 c 0,46,47
 226 516 226 516 265.5 459.5 c 128,-1,48
 305 403 305 403 358 379 c 128,-1,49
 411 355 411 355 463 355 c 0,34,35
1263 355 m 0,50,51
 1372 355 1372 355 1427 426.5 c 128,-1,52
 1482 498 1482 498 1482 618 c 0,53,54
 1482 688 1482 688 1444.5 738 c 128,-1,55
 1407 788 1407 788 1356 808.5 c 128,-1,56
 1305 829 1305 829 1258 829 c 0,57,58
 1092.21698113 829 1092.21698113 829 929 592 c 1,59,60
 1024 468 1024 468 1099 411.5 c 128,-1,61
 1174 355 1174 355 1263 355 c 0,50,51
EndSplineSet
EndChar

StartChar: integral
Encoding: 8747 8747 256
Width: 702
GlyphClass: 2
Flags: W
LayerCount: 2
UndoRedoHistory
Layer: 1
Undoes
EndUndoes
Redoes
EndRedoes
EndUndoRedoHistory
Fore
SplineSet
400.5 -372 m 128,-1,1
 342 -399 342 -399 272 -399 c 128,-1,2
 202 -399 202 -399 124 -378 c 1,3,-1
 122 -249 l 1,4,5
 161 -264 161 -264 232 -264 c 0,6,7
 328 -264 328 -264 360.5 -211.5 c 128,-1,8
 393 -159 393 -159 393 -47 c 2,9,-1
 393 1255 l 2,10,11
 393 1631 393 1631 692 1631 c 0,12,13
 736 1631 736 1631 828 1610 c 1,14,-1
 830 1481 l 1,15,16
 791 1496 791 1496 720 1496 c 0,17,18
 624 1496 624 1496 590.5 1443.5 c 128,-1,19
 557 1391 557 1391 557 1279 c 2,20,-1
 557 -23 l 2,21,22
 557 -194.343283582 557 -194.343283582 492.5 -293.5 c 0,23,0
 459 -345 459 -345 400.5 -372 c 128,-1,1
EndSplineSet
EndChar

StartChar: k.alt
Encoding: 65541 -1 260
Width: 1082
GlyphClass: 2
Flags: W
LayerCount: 2
UndoRedoHistory
Layer: 1
Undoes
EndUndoes
Redoes
EndRedoes
EndUndoRedoHistory
Fore
SplineSet
998 1026 m 1,0,1
 779.081081081 702 779.081081081 702 695 580 c 1,2,-1
 1066 0 l 1,3,-1
 885 0 l 1,4,-1
 604 445 l 1,5,-1
 303 0 l 1,6,-1
 178 0 l 1,7,-1
 178 1526 l 1,8,-1
 343 1526 l 1,9,-1
 343 308 l 1,10,-1
 819 1026 l 1,11,-1
 998 1026 l 1,0,1
EndSplineSet
EndChar

StartChar: kgreenlandic
Encoding: 312 312 262
Width: 1082
GlyphClass: 2
Flags: W
LayerCount: 2
UndoRedoHistory
Layer: 1
Undoes
EndUndoes
Redoes
EndRedoes
EndUndoRedoHistory
Fore
SplineSet
178 0 m 1,0,-1
 178 1026 l 1,1,-1
 343 1026 l 1,2,-1
 343 557 l 1,3,-1
 809 1026 l 1,4,-1
 1034 1026 l 1,5,-1
 504 512 l 1,6,7
 600 425 600 425 788.5 256 c 128,-1,8
 977 87 977 87 1072 0 c 1,9,-1
 853 0 l 1,10,-1
 343 471 l 1,11,-1
 343 0 l 1,12,-1
 178 0 l 1,0,-1
EndSplineSet
EndChar

StartChar: lessequal
Encoding: 8804 8804 264
Width: 1351
GlyphClass: 2
Flags: W
LayerCount: 2
UndoRedoHistory
Layer: 1
Undoes
EndUndoes
Redoes
EndRedoes
EndUndoRedoHistory
Fore
SplineSet
1146 216 m 1,0,-1
 197 666 l 1,1,-1
 197 747 l 1,2,-1
 1146 1219 l 1,3,-1
 1146 1079 l 1,4,-1
 372 710 l 1,5,-1
 1146 357 l 1,6,-1
 1146 216 l 1,0,-1
161 9 m 1,7,-1
 161 131 l 1,8,-1
 1175 131 l 1,9,-1
 1175 9 l 1,10,-1
 161 9 l 1,7,-1
EndSplineSet
EndChar

StartChar: lozenge
Encoding: 9674 9674 265
Width: 1248
GlyphClass: 2
Flags: W
LayerCount: 2
UndoRedoHistory
Layer: 1
Undoes
EndUndoes
Redoes
EndRedoes
EndUndoRedoHistory
Fore
SplineSet
562 -45 m 1,0,-1
 112 711 l 1,1,-1
 570 1470 l 1,2,-1
 677 1470 l 1,3,-1
 1130 712 l 1,4,-1
 668 -45 l 1,5,-1
 562 -45 l 1,0,-1
615 98 m 1,6,7
 689.106122449 232.044897959 689.106122449 232.044897959 979 711 c 1,8,9
 962 741 962 741 827.5 971 c 128,-1,10
 693 1201 693 1201 625 1324 c 1,11,12
 557 1199 557 1199 416.5 968.5 c 128,-1,13
 276 738 276 738 261 713 c 1,14,15
 300 645 300 645 415.92228739 446.502932551 c 0,16,17
 531.84457478 248.005865103 531.84457478 248.005865103 615 98 c 1,6,7
EndSplineSet
EndChar

StartChar: lslash
Encoding: 322 322 266
Width: 503
GlyphClass: 2
Flags: W
LayerCount: 2
UndoRedoHistory
Layer: 1
Undoes
EndUndoes
Redoes
EndRedoes
EndUndoRedoHistory
Fore
SplineSet
168 0 m 1,0,-1
 168 689 l 1,1,-1
 0 589 l 1,2,-1
 0 726 l 1,3,-1
 168 826 l 1,4,-1
 168 1492 l 1,5,-1
 333 1492 l 1,6,-1
 333 925 l 1,7,-1
 504 1027 l 1,8,-1
 504 890 l 1,9,-1
 333 788 l 1,10,-1
 333 0 l 1,11,-1
 168 0 l 1,0,-1
EndSplineSet
EndChar

StartChar: minus
Encoding: 8722 8722 267
Width: 1458
GlyphClass: 2
Flags: W
LayerCount: 2
UndoRedoHistory
Layer: 1
Undoes
EndUndoes
Redoes
EndRedoes
EndUndoRedoHistory
Fore
SplineSet
198 496 m 1,0,-1
 198 633 l 1,1,-1
 1247 633 l 1,2,-1
 1247 496 l 1,3,-1
 198 496 l 1,0,-1
EndSplineSet
EndChar

StartChar: n.alt
Encoding: 65542 -1 268
Width: 1263
GlyphClass: 2
Flags: W
LayerCount: 2
UndoRedoHistory
Layer: 1
Undoes
EndUndoes
Redoes
EndRedoes
EndUndoRedoHistory
Fore
SplineSet
1096 -24 m 1,0,1
 1025 -16 1025 -16 983 0.5 c 128,-1,2
 941 17 941 17 918 51.5 c 128,-1,3
 895 86 895 86 888 129.5 c 128,-1,4
 881 173 881 173 881 248 c 2,5,-1
 881 265 l 1,6,-1
 883 572 l 1,7,-1
 883 585 l 2,8,9
 883 793.962962963 883 793.962962963 816 856 c 0,10,11
 756.6 911 756.6 911 638.8 911 c 128,-1,12
 521 911 521 911 433 835.5 c 128,-1,13
 345 760 345 760 345 652 c 2,14,-1
 345 0 l 1,15,-1
 180 0 l 1,16,-1
 180 699 l 2,17,18
 180 814 180 814 154 1026 c 1,19,-1
 321 1026 l 1,20,-1
 343 884 l 1,21,22
 402 969 402 969 475 1010 c 128,-1,23
 548 1051 548 1051 661.5 1051 c 128,-1,24
 775 1051 775 1051 850 1018.5 c 128,-1,25
 925 986 925 986 968 922 c 128,-1,26
 1011 858 1011 858 1029.5 774 c 128,-1,27
 1048 690 1048 690 1048 577 c 2,28,-1
 1048 567 l 1,29,-1
 1046 270 l 1,30,-1
 1046 255 l 2,31,32
 1046 169 1046 169 1061 141 c 128,-1,33
 1076 113 1076 113 1132 102 c 1,34,-1
 1096 -24 l 1,0,1
EndSplineSet
EndChar

StartChar: nine.alt
Encoding: 65543 -1 270
Width: 1190
GlyphClass: 2
Flags: W
LayerCount: 2
UndoRedoHistory
Layer: 1
Undoes
EndUndoes
Redoes
EndRedoes
EndUndoRedoHistory
Fore
SplineSet
514 -23 m 0,0,1
 296 -23 296 -23 183 121 c 1,2,-1
 237 234 l 1,3,4
 343 119 343 119 517 119 c 0,5,6
 705 119 705 119 813 288 c 1,7,8
 913 442 913 442 918 683 c 1,9,-1
 918 707 l 1,10,11
 809 533 809 533 545 533 c 0,12,13
 386 533 386 533 277 605.5 c 128,-1,14
 168 678 168 678 120 802 c 0,15,16
 88 886 88 886 88 984 c 0,17,18
 88 1145 88 1145 166.5 1255 c 128,-1,19
 245 1365 245 1365 376 1417 c 0,20,21
 468 1453 468 1453 581 1453 c 0,22,23
 778 1453 778 1453 894.5 1346 c 0,24,25
 1093 1163.68669528 1093 1163.68669528 1093 758 c 0,26,27
 1093 497 1093 497 1009 309 c 128,-1,28
 925 121 925 121 761 34 c 0,29,30
 653 -23 653 -23 514 -23 c 0,0,1
572 673 m 0,31,32
 681 673 681 673 760.5 720 c 128,-1,33
 840 767 840 767 879 847 c 0,34,35
 906 902 906 902 906 971 c 0,36,37
 906 1081 906 1081 852.5 1161.5 c 128,-1,38
 799 1242 799 1242 714 1283 c 1,39,40
 651 1312 651 1312 573 1312 c 0,41,42
 465 1312 465 1312 392 1258.5 c 128,-1,43
 319 1205 319 1205 286 1117 c 0,44,45
 264 1060 264 1060 264 989 c 0,46,47
 264 840 264 840 344 756.5 c 128,-1,48
 424 673 424 673 572 673 c 0,31,32
EndSplineSet
EndChar

StartChar: notequal
Encoding: 8800 8800 271
Width: 1351
GlyphClass: 2
Flags: W
LayerCount: 2
UndoRedoHistory
Layer: 1
Undoes
EndUndoes
Redoes
EndRedoes
EndUndoRedoHistory
Fore
SplineSet
457 46 m 1,0,-1
 335 64 l 1,1,-1
 463 325 l 1,2,-1
 170 325 l 1,3,-1
 161 445 l 1,4,-1
 524 445 l 1,5,-1
 671 728 l 1,6,-1
 170 728 l 1,7,-1
 160 849 l 1,8,-1
 728 849 l 1,9,-1
 864 1123 l 1,10,-1
 989 1105 l 1,11,-1
 862 849 l 1,12,-1
 1172 849 l 1,13,-1
 1182 728 l 1,14,-1
 804 728 l 1,15,-1
 656 445 l 1,16,-1
 1173 445 l 1,17,-1
 1182 325 l 1,18,-1
 597 325 l 1,19,-1
 457 46 l 1,0,-1
EndSplineSet
EndChar

StartChar: oe
Encoding: 339 339 272
Width: 1970
GlyphClass: 2
Flags: W
LayerCount: 2
UndoRedoHistory
Layer: 1
Undoes
EndUndoes
Redoes
EndRedoes
EndUndoRedoHistory
Fore
SplineSet
610 -28 m 0,0,1
 426 -28 426 -28 303.5 61 c 128,-1,2
 181 150 181 150 127 300 c 0,3,4
 92 399 92 399 92 509 c 0,5,6
 92 692 92 692 174 820.5 c 128,-1,7
 256 949 256 949 396 1010 c 0,8,9
 494 1053 494 1053 620 1053 c 0,10,11
 905 1053 905 1053 1027 821 c 1,12,13
 1138 1053 1138 1053 1417 1053 c 0,14,15
 1641 1053 1641 1053 1754.5 910 c 128,-1,16
 1868 767 1868 767 1868 525 c 2,17,-1
 1868 472 l 1,18,-1
 1113 470 l 1,19,-1
 1113 450 l 1,20,21
 1116 335 1116 335 1162 254 c 128,-1,22
 1208 173 1208 173 1290 135 c 0,23,24
 1348 109 1348 109 1421 109 c 0,25,26
 1529 109 1529 109 1613 160 c 128,-1,27
 1697 211 1697 211 1748 292 c 1,28,-1
 1836 206 l 1,29,30
 1775 95 1775 95 1667.5 33.5 c 128,-1,31
 1560 -28 1560 -28 1412.5 -28 c 128,-1,32
 1265 -28 1265 -28 1166.5 34 c 128,-1,33
 1068 96 1068 96 1022 209 c 1,34,35
 976 94 976 94 871.5 33 c 128,-1,36
 767 -28 767 -28 610 -28 c 0,0,1
620 109 m 0,37,38
 781 109 781 109 863 221 c 128,-1,39
 945 333 945 333 945 514.5 c 128,-1,40
 945 696 945 696 862.5 806.5 c 128,-1,41
 780 917 780 917 612 917 c 0,42,43
 485 917 485 917 403.5 846.5 c 128,-1,44
 322 776 322 776 288 663 c 0,45,46
 265 588 265 588 265 507 c 0,47,48
 265 374 265 374 316.5 280 c 128,-1,49
 368 186 368 186 462 141 c 0,50,51
 529 109 529 109 620 109 c 0,37,38
1113 609 m 1,52,-1
 1695 609 l 1,53,54
 1695 752 1695 752 1626 834.5 c 128,-1,55
 1557 917 1557 917 1423 917 c 0,56,57
 1319 917 1319 917 1247 863.5 c 0,58,59
 1126.52285125 773.978785307 1126.52285125 773.978785307 1113 609 c 1,52,-1
EndSplineSet
EndChar

StartChar: ogonek
Encoding: 731 731 273
Width: 508
GlyphClass: 2
Flags: W
LayerCount: 2
UndoRedoHistory
Layer: 1
Undoes
EndUndoes
Redoes
EndRedoes
EndUndoRedoHistory
Fore
SplineSet
266 -390 m 0,0,1
 117 -390 117 -390 65 -296 c 0,2,3
 48 -265 48 -265 48 -225 c 0,4,5
 48 -156 48 -156 110 -94 c 128,-1,6
 172 -32 172 -32 263 12 c 1,7,-1
 392 0 l 1,8,9
 287 -64 287 -64 254 -94 c 0,10,11
 189 -153.090909091 189 -153.090909091 189 -194.545454545 c 128,-1,12
 189 -236 189 -236 219 -258.5 c 128,-1,13
 249 -281 249 -281 289 -281 c 0,14,15
 364 -281 364 -281 443 -250 c 1,16,-1
 443 -361 l 1,17,18
 373 -390 373 -390 266 -390 c 0,0,1
EndSplineSet
EndChar

StartChar: partialdiff
Encoding: 8706 8706 274
Width: 1167
GlyphClass: 2
Flags: W
LayerCount: 2
UndoRedoHistory
Layer: 1
Undoes
EndUndoes
Redoes
EndRedoes
EndUndoRedoHistory
Fore
SplineSet
902 836 m 1,0,-1
 903 911 l 1,1,2
 903 1076 903 1076 854 1194.5 c 128,-1,3
 805 1313 805 1313 706 1366 c 0,4,5
 643 1399 643 1399 565 1399 c 0,6,7
 432 1399 432 1399 291 1304 c 1,8,-1
 280 1442 l 1,9,10
 417 1533 417 1533 588 1533 c 0,11,12
 941 1533 941 1533 1040 1156 c 0,13,14
 1074 1029 1074 1029 1074 852 c 0,15,16
 1074 501 1074 501 931 252 c 0,17,18
 832 80 832 80 672 11 c 0,19,20
 590 -24 590 -24 492 -24 c 0,21,22
 342 -24 342 -24 245.5 48.5 c 128,-1,23
 149 121 149 121 109 245 c 0,24,25
 83 328 83 328 83 420 c 0,26,27
 83 609 83 609 167 749 c 128,-1,28
 251 889 251 889 390 957 c 0,29,30
 482 1002 482 1002 586 1002 c 0,31,32
 774 1002 774 1002 902 836 c 1,0,-1
495 111 m 0,33,34
 646 111 646 111 752.5 268 c 128,-1,35
 859 425 859 425 885 655 c 1,36,37
 832.371216144 800.255443441 832.371216144 800.255443441 705 852 c 0,38,39
 664 869 664 869 609 869 c 0,40,41
 459 869 459 869 355.5 735 c 128,-1,42
 252 601 252 601 252 417 c 0,43,44
 252 314 252 314 288.5 240.5 c 128,-1,45
 325 167 325 167 394 133 c 0,46,47
 438 111 438 111 495 111 c 0,33,34
EndSplineSet
EndChar

StartChar: perthousand
Encoding: 8240 8240 275
Width: 2386
GlyphClass: 2
Flags: W
LayerCount: 2
UndoRedoHistory
Layer: 1
Undoes
EndUndoes
Redoes
EndRedoes
EndUndoRedoHistory
Fore
SplineSet
410 740 m 0,0,1
 249 740 249 740 161 835 c 128,-1,2
 73 930 73 930 73 1095 c 0,3,4
 73 1216 73 1216 125 1299 c 128,-1,5
 177 1382 177 1382 268 1420 c 0,6,7
 331 1447 331 1447 412 1447 c 0,8,9
 575 1447 575 1447 662 1353 c 128,-1,10
 749 1259 749 1259 749 1092 c 0,11,12
 749 972 749 972 696.5 888 c 128,-1,13
 644 804 644 804 553 766 c 0,14,15
 492 740 492 740 410 740 c 0,0,1
1172 -27 m 0,16,17
 1011 -27 1011 -27 923 68 c 128,-1,18
 835 163 835 163 835 328 c 0,19,20
 835 449 835 449 886.5 532 c 128,-1,21
 938 615 938 615 1030 654 c 0,22,23
 1093 681 1093 681 1176 681 c 0,24,25
 1338 681 1338 681 1424.5 586.5 c 128,-1,26
 1511 492 1511 492 1511 325 c 0,27,28
 1511 205 1511 205 1459 122 c 128,-1,29
 1407 39 1407 39 1316 0 c 0,30,31
 1253 -27 1253 -27 1172 -27 c 0,16,17
1959 -27 m 0,32,33
 1799 -27 1799 -27 1711 68.5 c 128,-1,34
 1623 164 1623 164 1623 328 c 0,35,36
 1623 449 1623 449 1674.5 532 c 128,-1,37
 1726 615 1726 615 1818 654 c 0,38,39
 1881 681 1881 681 1964 681 c 0,40,41
 2127 681 2127 681 2213 587 c 128,-1,42
 2299 493 2299 493 2299 325 c 0,43,44
 2299 205 2299 205 2246.5 121.5 c 128,-1,45
 2194 38 2194 38 2103 0 c 0,46,47
 2040 -27 2040 -27 1959 -27 c 0,32,33
268 920.5 m 128,-1,49
 317 853 317 853 412 853 c 128,-1,50
 507 853 507 853 555.5 921 c 128,-1,51
 604 989 604 989 604 1095 c 128,-1,52
 604 1201 604 1201 555.5 1268 c 128,-1,53
 507 1335 507 1335 412 1335 c 128,-1,54
 317 1335 317 1335 268 1267.5 c 128,-1,55
 219 1200 219 1200 219 1094 c 128,-1,48
 219 988 219 988 268 920.5 c 128,-1,49
245 -21 m 1,56,-1
 1183 1436 l 1,57,-1
 1332 1436 l 1,58,-1
 398 -21 l 1,59,-1
 245 -21 l 1,56,-1
1029 153 m 128,-1,61
 1078 86 1078 86 1173.5 86 c 128,-1,62
 1269 86 1269 86 1318 154 c 128,-1,63
 1367 222 1367 222 1367 328.5 c 128,-1,64
 1367 435 1367 435 1319 501 c 128,-1,65
 1271 567 1271 567 1175 567 c 128,-1,66
 1079 567 1079 567 1029.5 500.5 c 128,-1,67
 980 434 980 434 980 327 c 128,-1,60
 980 220 980 220 1029 153 c 128,-1,61
1817 153 m 128,-1,69
 1866 86 1866 86 1961.5 86 c 128,-1,70
 2057 86 2057 86 2106.5 154 c 128,-1,71
 2156 222 2156 222 2156 328 c 128,-1,72
 2156 434 2156 434 2107 500.5 c 128,-1,73
 2058 567 2058 567 1962.5 567 c 128,-1,74
 1867 567 1867 567 1817.5 500.5 c 128,-1,75
 1768 434 1768 434 1768 327 c 128,-1,68
 1768 220 1768 220 1817 153 c 128,-1,69
EndSplineSet
EndChar

StartChar: pi
Encoding: 960 960 276
Width: 1288
GlyphClass: 2
Flags: W
LayerCount: 2
UndoRedoHistory
Layer: 1
Undoes
EndUndoes
Redoes
EndRedoes
EndUndoRedoHistory
Fore
SplineSet
1198 6 m 1,0,1
 1119 -8 1119 -8 1058.5 -8 c 128,-1,2
 998 -8 998 -8 955.5 11.5 c 128,-1,3
 913 31 913 31 890.5 70.5 c 128,-1,4
 868 110 868 110 859.5 159.5 c 128,-1,5
 851 209 851 209 851 279 c 2,6,-1
 851 907 l 1,7,-1
 480 907 l 1,8,9
 464 694 464 694 456.5 606.5 c 128,-1,10
 449 519 449 519 426.5 361 c 128,-1,11
 404 203 404 203 374 88 c 1,12,13
 358 31 358 31 341 0 c 1,14,-1
 172 0 l 1,15,16
 213 71 213 71 235.5 171.5 c 0,17,18
 296.650920737 444.64077929 296.650920737 444.64077929 311 907 c 1,19,20
 140 903 140 903 34 846 c 1,21,-1
 17 977 l 1,22,23
 70 1017 70 1017 152.5 1028.5 c 128,-1,24
 235 1040 235 1040 369 1040 c 2,25,-1
 1214 1040 l 1,26,-1
 1214 907 l 1,27,-1
 1010 907 l 1,28,-1
 1010 288 l 2,29,30
 1010 218 1010 218 1030 182.5 c 128,-1,31
 1050 147 1050 147 1108 147 c 0,32,33
 1146 147 1146 147 1188 160 c 1,34,-1
 1186 130 l 2,35,36
 1185 120 1185 120 1185 82 c 128,-1,37
 1185 44 1185 44 1198 6 c 1,0,1
EndSplineSet
EndChar

StartChar: product
Encoding: 8719 8719 277
Width: 1568
GlyphClass: 2
Flags: W
LayerCount: 2
UndoRedoHistory
Layer: 1
Undoes
EndUndoes
Redoes
EndRedoes
EndUndoRedoHistory
Fore
SplineSet
251 -329 m 1,0,-1
 251 1278 l 1,1,-1
 126 1278 l 1,2,-1
 110 1423 l 1,3,-1
 1456 1423 l 1,4,-1
 1440 1278 l 1,5,-1
 1327 1278 l 1,6,-1
 1327 -329 l 1,7,-1
 1149 -329 l 1,8,-1
 1149 1278 l 1,9,-1
 426 1278 l 1,10,-1
 426 -329 l 1,11,-1
 251 -329 l 1,0,-1
EndSplineSet
EndChar

StartChar: quotedblbase
Encoding: 8222 8222 278
Width: 1024
GlyphClass: 2
Flags: W
LayerCount: 2
UndoRedoHistory
Layer: 1
Undoes
EndUndoes
Redoes
EndRedoes
EndUndoRedoHistory
Fore
SplineSet
178 -238 m 1,0,-1
 283 201 l 1,1,-1
 465 201 l 1,2,-1
 312 -238 l 1,3,-1
 178 -238 l 1,0,-1
537 -238 m 1,4,-1
 641 201 l 1,5,-1
 824 201 l 1,6,-1
 670 -238 l 1,7,-1
 537 -238 l 1,4,-1
EndSplineSet
EndChar

StartChar: quotedblleft
Encoding: 8220 8220 279
Width: 1024
GlyphClass: 2
Flags: W
LayerCount: 2
UndoRedoHistory
Layer: 1
Undoes
EndUndoes
Redoes
EndRedoes
EndUndoRedoHistory
Fore
SplineSet
179 1023 m 1,0,-1
 333 1463 l 1,1,-1
 466 1463 l 1,2,-1
 361 1023 l 1,3,-1
 179 1023 l 1,0,-1
528 1023 m 1,4,-1
 682 1463 l 1,5,-1
 815 1463 l 1,6,-1
 711 1023 l 1,7,-1
 528 1023 l 1,4,-1
EndSplineSet
EndChar

StartChar: quotedblright
Encoding: 8221 8221 280
Width: 1024
GlyphClass: 2
Flags: W
LayerCount: 2
UndoRedoHistory
Layer: 1
Undoes
EndUndoes
Redoes
EndRedoes
EndUndoRedoHistory
Fore
SplineSet
208 1023 m 1,0,-1
 312 1463 l 1,1,-1
 494 1463 l 1,2,-1
 341 1023 l 1,3,-1
 208 1023 l 1,0,-1
534 1023 m 1,4,-1
 639 1463 l 1,5,-1
 821 1463 l 1,6,-1
 667 1023 l 1,7,-1
 534 1023 l 1,4,-1
EndSplineSet
EndChar

StartChar: quoteleft
Encoding: 8216 8216 281
Width: 553
GlyphClass: 2
Flags: W
LayerCount: 2
UndoRedoHistory
Layer: 1
Undoes
EndUndoes
Redoes
EndRedoes
EndUndoRedoHistory
Fore
SplineSet
130 1023 m 1,0,-1
 284 1463 l 1,1,-1
 416 1463 l 1,2,-1
 312 1023 l 1,3,-1
 130 1023 l 1,0,-1
EndSplineSet
EndChar

StartChar: quoteright
Encoding: 8217 8217 282
Width: 553
GlyphClass: 2
Flags: W
LayerCount: 2
UndoRedoHistory
Layer: 1
Undoes
EndUndoes
Redoes
EndRedoes
EndUndoRedoHistory
Fore
SplineSet
140 1023 m 1,0,-1
 245 1463 l 1,1,-1
 426 1463 l 1,2,-1
 272 1023 l 1,3,-1
 140 1023 l 1,0,-1
EndSplineSet
EndChar

StartChar: quotesinglbase
Encoding: 8218 8218 283
Width: 553
GlyphClass: 2
Flags: W
LayerCount: 2
UndoRedoHistory
Layer: 1
Undoes
EndUndoes
Redoes
EndRedoes
EndUndoRedoHistory
Fore
SplineSet
125 -238 m 1,0,-1
 231 201 l 1,1,-1
 412 201 l 1,2,-1
 258 -238 l 1,3,-1
 125 -238 l 1,0,-1
EndSplineSet
EndChar

StartChar: radical
Encoding: 8730 8730 284
Width: 1314
GlyphClass: 2
Flags: W
LayerCount: 2
UndoRedoHistory
Layer: 1
Undoes
EndUndoes
Redoes
EndRedoes
EndUndoRedoHistory
Fore
SplineSet
611 -153 m 1,0,-1
 279 690 l 1,1,-1
 107 662 l 1,2,-1
 87 774 l 1,3,-1
 382 825 l 1,4,-1
 611 214 l 1,5,-1
 669 41 l 1,6,-1
 709 217 l 1,7,-1
 1082 1596 l 1,8,-1
 1212 1596 l 1,9,-1
 746 -153 l 1,10,-1
 611 -153 l 1,0,-1
EndSplineSet
EndChar

StartChar: ring
Encoding: 730 730 287
Width: 605
GlyphClass: 2
Flags: W
LayerCount: 2
UndoRedoHistory
Layer: 1
Undoes
EndUndoes
Redoes
EndRedoes
EndUndoRedoHistory
Fore
SplineSet
301 1149 m 0,0,1
 232 1149 232 1149 181 1181 c 128,-1,2
 130 1213 130 1213 106 1264 c 0,3,4
 90 1297 90 1297 90 1339 c 0,5,6
 90 1404 90 1404 126 1449.5 c 0,7,8
 189.692307692 1530 189.692307692 1530 300 1530 c 0,9,10
 369 1530 369 1530 419.5 1498 c 128,-1,11
 470 1466 470 1466 494 1414 c 0,12,13
 510 1381 510 1381 510 1340 c 0,14,15
 510 1276 510 1276 473 1230.5 c 128,-1,16
 436 1185 436 1185 389.5 1167 c 128,-1,17
 343 1149 343 1149 301 1149 c 0,0,1
219.5 1263.5 m 128,-1,19
 250 1235 250 1235 297.5 1235 c 128,-1,20
 345 1235 345 1235 377.5 1265.5 c 128,-1,21
 410 1296 410 1296 410 1341 c 128,-1,22
 410 1386 410 1386 378 1415.5 c 128,-1,23
 346 1445 346 1445 300 1445 c 128,-1,24
 254 1445 254 1445 221.5 1415 c 128,-1,25
 189 1385 189 1385 189 1338.5 c 128,-1,18
 189 1292 189 1292 219.5 1263.5 c 128,-1,19
EndSplineSet
EndChar

StartChar: s.alt
Encoding: 65544 -1 288
Width: 1001
GlyphClass: 2
Flags: W
LayerCount: 2
UndoRedoHistory
Layer: 1
Undoes
EndUndoes
Redoes
EndRedoes
EndUndoRedoHistory
Fore
SplineSet
902 284 m 0,0,1
 902 -26 902 -26 531.5 -26 c 0,2,3
 438 -26 438 -26 317 7 c 128,-1,4
 196 40 196 40 114 90 c 1,5,-1
 161 227 l 1,6,7
 220 182 220 182 327 147 c 128,-1,8
 434 112 434 112 529 112 c 0,9,10
 739 112 739 112 739 272 c 0,11,12
 739 383.5 739 383.5 555.428571429 433.982142857 c 0,13,14
 419 471.5 419 471.5 384 482.75 c 0,15,16
 205.581939799 540.098662207 205.581939799 540.098662207 151 630.5 c 0,17,18
 114 691.78125 114 691.78125 114 766.890625 c 128,-1,19
 114 842 114 842 145 898 c 128,-1,20
 176 954 176 954 229.5 987.5 c 0,21,22
 338.895522388 1056 338.895522388 1056 494 1056 c 0,23,24
 685 1056 685 1056 834 966 c 1,25,-1
 787 844 l 1,26,27
 743 873 743 873 658.5 895 c 128,-1,28
 574 917 574 917 487.5 917 c 128,-1,29
 401 917 401 917 343 883 c 128,-1,30
 285 849 285 849 285 774 c 0,31,32
 285 745 285 745 299.5 720.5 c 128,-1,33
 314 696 314 696 331.5 680.5 c 128,-1,34
 349 665 349 665 391.095238095 646.428571429 c 128,-1,35
 433.19047619 627.857142857 433.19047619 627.857142857 550 596 c 1,36,37
 699 550 699 550 760 516 c 0,38,39
 902 435 902 435 902 284 c 0,0,1
EndSplineSet
EndChar

StartChar: summation
Encoding: 8721 8721 292
Width: 1264
GlyphClass: 2
Flags: W
LayerCount: 2
UndoRedoHistory
Layer: 1
Undoes
EndUndoes
Redoes
EndRedoes
EndUndoRedoHistory
Fore
SplineSet
57 -329 m 1,0,-1
 57 -239 l 1,1,-1
 697 552 l 1,2,-1
 79 1328 l 1,3,-1
 79 1423 l 1,4,-1
 1175 1423 l 1,5,-1
 1175 1281 l 1,6,-1
 325 1281 l 1,7,-1
 898 561 l 1,8,-1
 294 -181 l 1,9,-1
 1220 -181 l 1,10,-1
 1220 -329 l 1,11,-1
 57 -329 l 1,0,-1
EndSplineSet
EndChar

StartChar: tilde
Encoding: 732 732 293
Width: 663
GlyphClass: 2
Flags: W
LayerCount: 2
UndoRedoHistory
Layer: 1
Undoes
EndUndoes
Redoes
EndRedoes
EndUndoRedoHistory
Fore
SplineSet
14 1203 m 1,0,1
 22 1295 22 1295 73 1354 c 128,-1,2
 124 1413 124 1413 213 1413 c 0,3,4
 269.805555556 1413 269.805555556 1413 350.5 1378 c 0,5,6
 392 1360 392 1360 413.5 1352.5 c 128,-1,7
 435 1345 435 1345 468 1345 c 128,-1,8
 501 1345 501 1345 522.5 1369.5 c 128,-1,9
 544 1394 544 1394 550 1435 c 1,10,-1
 658 1435 l 1,11,12
 647 1342 647 1342 598.5 1281 c 128,-1,13
 550 1220 550 1220 463 1220 c 0,14,15
 415 1220 415 1220 336 1254 c 128,-1,16
 257 1288 257 1288 210 1288 c 0,17,18
 129 1288 129 1288 119 1203 c 1,19,-1
 14 1203 l 1,0,1
EndSplineSet
EndChar

StartChar: trademark
Encoding: 8482 8482 294
Width: 1869
GlyphClass: 2
Flags: W
LayerCount: 2
UndoRedoHistory
Layer: 1
Undoes
EndUndoes
Redoes
EndRedoes
EndUndoRedoHistory
Fore
SplineSet
819 686 m 1,0,-1
 819 1451 l 1,1,-1
 1009 1451 l 1,2,-1
 1245 900 l 1,3,-1
 1495 1451 l 1,4,-1
 1675 1451 l 1,5,-1
 1675 686 l 1,6,-1
 1553 686 l 1,7,-1
 1553 1281 l 1,8,-1
 1279 686 l 1,9,-1
 1199 686 l 1,10,-1
 940 1280 l 1,11,-1
 940 686 l 1,12,-1
 819 686 l 1,0,-1
323 686 m 1,13,-1
 323 1350 l 1,14,-1
 70 1350 l 1,15,-1
 70 1451 l 1,16,-1
 707 1451 l 1,17,-1
 707 1350 l 1,18,-1
 447 1350 l 1,19,-1
 447 686 l 1,20,-1
 323 686 l 1,13,-1
EndSplineSet
EndChar

StartChar: u.alt
Encoding: 65545 -1 295
Width: 1215
GlyphClass: 2
Flags: W
LayerCount: 2
UndoRedoHistory
Layer: 1
Undoes
EndUndoes
Redoes
EndRedoes
EndUndoRedoHistory
Fore
SplineSet
530 -24 m 0,0,1
 377.5 -24 377.5 -24 272.5 70 c 0,2,3
 220 117 220 117 189.5 196.5 c 128,-1,4
 159 276 159 276 159 379 c 2,5,-1
 159 582 l 2,6,7
 159 710 159 710 149.5 821 c 128,-1,8
 140 932 140 932 130 979 c 2,9,-1
 120 1026 l 1,10,-1
 285 1026 l 1,11,12
 289 1013 289 1013 295.5 985 c 128,-1,13
 302 957 302 957 313 846 c 128,-1,14
 324 735 324 735 324 595 c 2,15,-1
 324 379 l 2,16,17
 324 242 324 242 389 180 c 128,-1,18
 454 118 454 118 560.833333333 118 c 0,19,20
 667.666666667 118 667.666666667 118 759.5 194 c 0,21,22
 803 230 803 230 830 288.5 c 128,-1,23
 857 347 857 347 857 418 c 2,24,-1
 857 1026 l 1,25,-1
 1022 1026 l 1,26,-1
 1022 286 l 2,27,28
 1022 208 1022 208 1060 173.5 c 128,-1,29
 1098 139 1098 139 1146 139 c 1,30,-1
 1111 -4 l 1,31,32
 1032 -4 1032 -4 970 36 c 128,-1,33
 908 76 908 76 889 155 c 1,34,35
 764 -24 764 -24 530 -24 c 0,0,1
EndSplineSet
EndChar

StartChar: uni0237
Encoding: 567 567 322
Width: 503
GlyphClass: 2
Flags: W
LayerCount: 2
UndoRedoHistory
Layer: 1
Undoes
EndUndoes
Redoes
EndRedoes
EndUndoRedoHistory
Fore
SplineSet
140 -407 m 0,0,1
 90 -429 90 -429 22 -429 c 128,-1,2
 -46 -429 -46 -429 -101 -416 c 1,3,-1
 -102 -273 l 1,4,5
 -42 -283 -42 -283 -18 -283 c 0,6,7
 95.3483146067 -283 95.3483146067 -283 137.5 -191.5 c 0,8,9
 175 -110.097560976 175 -110.097560976 175 31 c 2,10,-1
 175 1026 l 1,11,-1
 340 1026 l 1,12,-1
 340 73 l 2,13,14
 340 -320 340 -320 140 -407 c 0,0,1
EndSplineSet
EndChar

StartChar: uni0307
Encoding: 775 775 323
Width: 524
GlyphClass: 2
Flags: W
LayerCount: 2
UndoRedoHistory
Layer: 1
Undoes
EndUndoes
Redoes
EndRedoes
EndUndoRedoHistory
Fore
SplineSet
184 1246 m 1,0,-1
 184 1409 l 1,1,-1
 344 1409 l 1,2,-1
 344 1246 l 1,3,-1
 184 1246 l 1,0,-1
EndSplineSet
EndChar

StartChar: uni0311
Encoding: 785 785 324
Width: 629
GlyphClass: 2
Flags: W
LayerCount: 2
UndoRedoHistory
Layer: 1
Undoes
EndUndoes
Redoes
EndRedoes
EndUndoRedoHistory
Fore
SplineSet
32 1218 m 1,0,1
 51 1454 51 1454 316 1454 c 0,2,3
 441 1454 441 1454 513.5 1393.5 c 128,-1,4
 586 1333 586 1333 596 1218 c 1,5,-1
 510 1218 l 1,6,7
 495 1280 495 1280 441 1313.5 c 128,-1,8
 387 1347 387 1347 308.5 1347 c 0,9,10
 230 1347 230 1347 180 1314.5 c 128,-1,11
 130 1282 130 1282 119 1218 c 1,12,-1
 32 1218 l 1,0,1
EndSplineSet
EndChar

StartChar: uni03A9
Encoding: 937 937 325
Width: 1603
GlyphClass: 2
Flags: W
LayerCount: 2
UndoRedoHistory
Layer: 1
Undoes
EndUndoes
Redoes
EndRedoes
EndUndoRedoHistory
Fore
SplineSet
104 0 m 1,0,-1
 93 138 l 1,1,-1
 435 137 l 1,2,3
 206 306 206 306 138 578 c 0,4,5
 114 671 114 671 114 776 c 0,6,7
 114 1080 114 1080 312 1266 c 0,8,9
 402 1351 402 1351 528.5 1400 c 128,-1,10
 655 1449 655 1449 810 1449 c 0,11,12
 965 1449 965 1449 1089.5 1396.5 c 128,-1,13
 1214 1344 1214 1344 1300 1254 c 0,14,15
 1481 1064 1481 1064 1481 772 c 0,16,17
 1481 577 1481 577 1381 398 c 1,18,19
 1296 249 1296 249 1155 137 c 1,20,-1
 1483 138 l 1,21,-1
 1474 0 l 1,22,-1
 953 0 l 1,23,-1
 949 121 l 1,24,25
 1198 287 1198 287 1276 560 c 0,26,27
 1303 653 1303 653 1303 754 c 0,28,29
 1303 938 1303 938 1228.5 1069 c 128,-1,30
 1154 1200 1154 1200 1022 1264 c 0,31,32
 929 1309 929 1309 804 1309 c 0,33,34
 626 1309 626 1309 505.5 1219.5 c 128,-1,35
 385 1130 385 1130 330 982 c 0,36,37
 293 881 293 881 293 759 c 0,38,39
 293 460 293 460 500 240 c 0,40,41
 567 170 567 170 642 121 c 1,42,-1
 645 0 l 1,43,-1
 104 0 l 1,0,-1
EndSplineSet
EndChar

StartChar: uni03BC
Encoding: 956 956 326
Width: 1217
GlyphClass: 2
Flags: W
LayerCount: 2
UndoRedoHistory
Layer: 1
Undoes
EndUndoes
Redoes
EndRedoes
EndUndoRedoHistory
Fore
SplineSet
157 -202 m 1,0,-1
 157 1026 l 1,1,-1
 322 1026 l 1,2,-1
 322 399 l 2,3,4
 322 256 322 256 383.5 182.5 c 128,-1,5
 445 109 445 109 578 109 c 0,6,7
 686 109 686 109 757 164 c 128,-1,8
 828 219 828 219 858 310 c 0,9,10
 878 372 878 372 878 436 c 2,11,-1
 878 1026 l 1,12,-1
 1043 1026 l 1,13,-1
 1043 246 l 2,14,15
 1043 96 1043 96 1051 0 c 1,16,-1
 881 0 l 1,17,-1
 878 135 l 1,18,19
 762 -23 762 -23 540 -23 c 0,20,21
 413 -23 413 -23 322 31 c 1,22,-1
 322 -202 l 1,23,-1
 157 -202 l 1,0,-1
EndSplineSet
EndChar

StartChar: uni2074
Encoding: 8308 8308 327
Width: 897
GlyphClass: 2
Flags: W
LayerCount: 2
UndoRedoHistory
Layer: 1
Undoes
EndUndoes
Redoes
EndRedoes
EndUndoRedoHistory
Fore
SplineSet
356 615 m 1,0,-1
 356 803 l 1,1,-1
 -22 803 l 1,2,-1
 -22 894 l 1,3,-1
 344 1412 l 1,4,-1
 478 1412 l 1,5,-1
 478 910 l 1,6,-1
 587 910 l 1,7,-1
 597 803 l 1,8,-1
 476 803 l 1,9,-1
 476 615 l 1,10,-1
 356 615 l 1,0,-1
117 910 m 1,11,-1
 356 910 l 1,12,-1
 356 1244 l 1,13,-1
 117 910 l 1,11,-1
EndSplineSet
EndChar

StartChar: uniF6C3
Encoding: 65546 -1 328
Width: 599
GlyphClass: 2
Flags: W
LayerCount: 2
UndoRedoHistory
Layer: 1
Undoes
EndUndoes
Redoes
EndRedoes
EndUndoRedoHistory
Fore
SplineSet
110 -603 m 1,0,-1
 217 -140 l 1,1,-1
 404 -140 l 1,2,-1
 241 -603 l 1,3,-1
 110 -603 l 1,0,-1
EndSplineSet
EndChar

StartChar: uniFB01
Encoding: 64257 64257 329
Width: 1205
GlyphClass: 2
Flags: W
LayerCount: 2
UndoRedoHistory
Layer: 1
Undoes
EndUndoes
Redoes
EndRedoes
EndUndoRedoHistory
Fore
SplineSet
246 0 m 1,0,-1
 246 919 l 1,1,-1
 45 919 l 1,2,-1
 45 1026 l 1,3,-1
 246 1026 l 1,4,-1
 248 1138 l 1,5,6
 251.230215827 1415.79856115 251.230215827 1415.79856115 405.5 1487 c 0,7,8
 464 1514 464 1514 545 1514 c 0,9,10
 589 1514 589 1514 681 1493 c 1,11,-1
 683 1364 l 1,12,13
 644 1379 644 1379 573 1379 c 0,14,15
 478 1379 478 1379 445 1326 c 128,-1,16
 412 1273 412 1273 412 1162 c 2,17,-1
 411 1026 l 1,18,-1
 1034 1026 l 1,19,-1
 1034 0 l 1,20,-1
 869 0 l 1,21,-1
 869 919 l 1,22,-1
 411 919 l 1,23,-1
 411 0 l 1,24,-1
 246 0 l 1,0,-1
877 1307 m 1,25,-1
 877 1462 l 1,26,-1
 1030 1462 l 1,27,-1
 1030 1307 l 1,28,-1
 877 1307 l 1,25,-1
EndSplineSet
EndChar

